<svg xmlns="http://www.w3.org/2000/svg" viewBox="0 0 64 32" style="fill: #a4a4a4">
  <path d="M5.388 0.832c-0.305-0.266-0.663-0.473-1.055-0.611s-0.809-0.203-1.229-0.192c-0.419 0.011-0.832 0.098-1.215 0.256s-0.728 0.384-1.016 0.665c-0.288 0.281-0.513 0.612-0.663 0.973s-0.22 0.746-0.208 1.133c0.012 0.387 0.106 0.767 0.278 1.12s0.417 0.672 0.721 0.937l28.738 25.033c0.593 0.517 1.378 0.805 2.194 0.805s1.601-0.288 2.194-0.805l28.742-25.033c0.311-0.264 0.563-0.582 0.74-0.937s0.276-0.738 0.291-1.128c0.015-0.39-0.054-0.779-0.203-1.144s-0.376-0.699-0.666-0.983-0.639-0.511-1.026-0.67c-0.386-0.158-0.803-0.244-1.227-0.253s-0.843 0.061-1.237 0.203-0.753 0.356-1.056 0.628l-26.551 23.125-26.545-23.125z"></path>
</svg>
