<?xml version="1.0" encoding="UTF-8"?>
<svg id="_Слой_2" data-name="Слой 2" xmlns="http://www.w3.org/2000/svg" viewBox="0 0 604.79 597.46">
  <defs>
    <style>
      .cls-1 {
        fill: #999;
        stroke-width: 0px;
      }
    </style>
  </defs>
  <g id="_Слой_1-2" data-name="Слой 1">
    <g>
      <path class="cls-1" d="m586.35,131.93c-12.03-34.44-30.85-61.5-55.93-80.42-28.25-21.32-65.19-32.92-109.79-34.49v.03c-.46-.03-.92-.04-1.39-.04h-241.3c-36.66,0-57.31,16.23-96,54.61V0h-40v140h140v-40h-71.81c35.29-34.99,46.61-43,67.81-43,2.36,0,231.65,0,241.63,0,140.49,5.11,148.4,118.03,144.23,276.96-.6,22.69-1.16,44.12-.85,64.34l40-.61c-.3-19.39.26-40.42.84-62.68,1.75-66.79,3.74-142.5-17.42-203.09Z"/>
      <polygon class="cls-1" points="197.55 452.31 169.27 424.03 284.05 309.25 284.05 199.15 324.05 199.15 324.05 325.82 197.55 452.31"/>
      <path class="cls-1" d="m18.44,465.53c12.03,34.44,30.85,61.5,55.93,80.42,28.25,21.32,65.19,32.92,109.79,34.49v-.03c.46.03.92.04,1.39.04h241.3c36.66,0,57.31-16.23,96-54.61v71.61h40v-140h-140v40h71.81c-35.29,34.99-46.61,43-67.81,43-2.36,0-231.65,0-241.63,0-140.49-5.11-148.4-118.03-144.23-276.96.6-22.69,1.16-44.12.85-64.34l-40,.61c.3,19.39-.26,40.42-.84,62.68-1.75,66.79-3.74,142.5,17.42,203.09Z"/>
    </g>
  </g>
</svg>