<svg width="14" height="14" viewBox="0 0 14 14" fill="none" xmlns="http://www.w3.org/2000/svg">
<path fill-rule="evenodd" clip-rule="evenodd" d="M6.99904 0.290527C7.27518 0.290527 7.49904 0.514385 7.49904 0.790527V9.94063L11.0895 6.34967C11.2847 6.15439 11.6013 6.15437 11.7966 6.34961C11.9919 6.54486 11.9919 6.86144 11.7967 7.05672L7.35262 11.5014C7.25885 11.5952 7.13167 11.6479 6.99906 11.6479C6.86644 11.6479 6.73926 11.5952 6.64548 11.5014L2.20082 7.05675C2.00556 6.86149 2.00556 6.5449 2.20082 6.34964C2.39608 6.15438 2.71266 6.15438 2.90792 6.34964L6.49904 9.94075V0.790527C6.49904 0.514385 6.7229 0.290527 6.99904 0.290527ZM0.276367 13.2225C0.276367 12.9464 0.500225 12.7225 0.776367 12.7225H13.2211C13.4972 12.7225 13.7211 12.9464 13.7211 13.2225C13.7211 13.4987 13.4972 13.7225 13.2211 13.7225H0.776367C0.500225 13.7225 0.276367 13.4987 0.276367 13.2225Z" fill="#EEEEEE"/>
</svg>
