<svg xmlns="http://www.w3.org/2000/svg" viewBox="0 0 99.94 99.93"><defs><style>.cls-1{fill:#231f20;fill-rule:evenodd;}</style></defs><title>eac</title><g id="Слой_2" data-name="Слой 2"><g id="Слой_1-2" data-name="Слой 1"><polygon class="cls-1" points="0 0 0 11.1 0 44.41 0 55.52 0 88.83 0 99.93 11.11 99.93 22.21 99.93 22.21 88.83 11.11 88.83 11.11 55.52 22.21 55.52 22.21 44.41 11.11 44.41 11.11 11.1 22.21 11.1 22.21 0 11.11 0 0 0"/><polygon class="cls-1" points="99.94 11.1 99.94 0 88.83 0 77.73 0 77.73 11.1 77.73 88.83 77.73 99.93 88.83 99.93 99.94 99.93 99.94 88.83 88.83 88.83 88.83 11.1 99.94 11.1"/><path class="cls-1" d="M44.42,0H33.31V99.93H44.42V55.52h11.1V99.93h11.1V0H44.42Zm11.1,44.41H44.42V11.1h11.1Z"/></g></g></svg>