<svg xmlns="http://www.w3.org/2000/svg" viewBox="0 0 90 124"><defs><style>.cls-1{fill:none;stroke:#000;stroke-miterlimit:22.93;stroke-width:2.83px;}.cls-2{fill:#231f20;fill-rule:evenodd;}</style></defs><title>ex_eac</title><g xmlns="http://www.w3.org/2000/svg"><rect class="cls-1" x="2" y="2" width="86" height="120"/><polygon class="cls-2" points="77.77 55.67 66.67 55.67 61.11 69.54 55.56 55.67 44.46 55.67 55.56 83.42 44.46 111.19 55.56 111.19 61.11 97.31 66.67 111.19 77.77 111.19 66.67 83.42 77.77 55.67"/><polygon class="cls-2" points="11.15 11.25 11.15 22.36 11.15 55.67 11.15 66.77 11.15 100.08 11.15 111.19 22.25 111.19 33.36 111.19 33.36 100.08 22.25 100.08 22.25 66.77 33.36 66.77 33.36 55.67 22.25 55.67 22.25 22.36 33.36 22.36 33.36 11.25 22.25 11.25 11.15 11.25"/></g></svg>