<svg id="Слой_1" data-name="Слой 1" xmlns="http://www.w3.org/2000/svg" xmlns:xlink="http://www.w3.org/1999/xlink" viewBox="0 0 100.6 115.85"><defs><style>.cls-1{fill:none;}.cls-2{clip-path:url(#clip-path);}</style><clipPath id="clip-path"><rect class="cls-1" x="-1.13" width="102.85" height="118.22"/></clipPath></defs><title>logo igc</title><g class="cls-2"><path d="M50.3,0a50,50,0,1,0,50,50,50,50,0,0,0-50-50m-32,67.5h-6v-35h6Zm22-1A17.76,17.76,0,0,1,22.3,49a17.76,17.76,0,0,1,18-17.5,18,18,0,0,1,16,9.5H48.9a12.21,12.21,0,0,0-8.6-3.5A11.76,11.76,0,0,0,28.3,49a11.76,11.76,0,0,0,12,11.5A11.92,11.92,0,0,0,51.86,52H36.3V46H58a16.77,16.77,0,0,1,.3,3,17.77,17.77,0,0,1-18,17.5m38,1A17.76,17.76,0,0,1,60.3,50a17.76,17.76,0,0,1,18-17.5,18,18,0,0,1,16,9.5H86.9a12.21,12.21,0,0,0-8.6-3.5A11.76,11.76,0,0,0,66.3,50a11.76,11.76,0,0,0,12,11.5A12.21,12.21,0,0,0,86.9,58h7.4a18,18,0,0,1-16,9.5"/><path d="M42.71,108.91v6.94H40.79V111.3a5.13,5.13,0,0,1-.9.57,6.56,6.56,0,0,1-1.09.42v-1.55a4.76,4.76,0,0,0,1.5-.75,3.16,3.16,0,0,0,.84-1.08Z"/><path d="M49.07,108.91v6.94H47.15V111.3a5.13,5.13,0,0,1-.9.57,6.23,6.23,0,0,1-1.09.42v-1.55a4.55,4.55,0,0,0,1.5-.75,3.16,3.16,0,0,0,.84-1.08Z"/><path d="M56.69,115.85H51a3.55,3.55,0,0,1,.59-1.59,8,8,0,0,1,1.86-1.75,5.66,5.66,0,0,0,1.07-.94,1.08,1.08,0,0,0,.23-.61.7.7,0,0,0-.23-.53.89.89,0,0,0-1.17,0,1.36,1.36,0,0,0-.31.81l-1.9-.15a3,3,0,0,1,.41-1.26,1.85,1.85,0,0,1,.84-.68,3.78,3.78,0,0,1,1.5-.24,4.31,4.31,0,0,1,1.56.22,2,2,0,0,1,.87.7,1.89,1.89,0,0,1,.32,1.06,2.21,2.21,0,0,1-.36,1.2A5.26,5.26,0,0,1,55,113.34c-.39.26-.64.44-.77.55s-.28.24-.45.41h3Z"/><path d="M61.8,108.91v6.94H59.88V111.3a5.13,5.13,0,0,1-.9.57,6.37,6.37,0,0,1-1.1.42v-1.55a4.71,4.71,0,0,0,1.51-.75,3.16,3.16,0,0,0,.84-1.08Z"/></g></svg>