<svg width="17" height="17" viewBox="0 0 17 17" fill="none" xmlns="http://www.w3.org/2000/svg">
<path fill-rule="evenodd" clip-rule="evenodd" d="M14.5344 2.44351C13.6553 1.5644 12.2312 1.5644 11.3521 2.44351L7.11006 6.6855C6.23095 7.5646 6.23095 8.9887 7.11006 9.8678C7.40296 10.1607 7.40296 10.6356 7.11006 10.9285C6.81716 11.2214 6.34229 11.2214 6.04939 10.9285C4.5845 9.4636 4.5845 7.0897 6.04939 5.62485L10.2914 1.38285C11.7563 -0.0820428 14.1302 -0.0820428 15.5951 1.38285C17.06 2.84774 17.06 5.22162 15.5951 6.6865L14.9397 7.3409C14.6466 7.6336 14.1717 7.6332 13.879 7.3401C13.5864 7.047 13.5867 6.5721 13.8798 6.2794L14.5344 5.62585C15.4135 4.74674 15.4135 3.32262 14.5344 2.44351ZM9.84536 6.0718C10.1383 5.77896 10.6132 5.77896 10.9061 6.0718C12.371 7.5367 12.371 9.9106 10.9061 11.3755L6.66405 15.6175C5.19916 17.0824 2.82529 17.0824 1.36039 15.6175C-0.104504 14.1526 -0.104504 11.7787 1.36039 10.3138L2.01439 9.6598C2.30729 9.367 2.78216 9.367 3.07505 9.6598C3.36795 9.9527 3.36795 10.4276 3.07505 10.7205L2.42105 11.3745C1.54195 12.2536 1.54195 13.6777 2.42105 14.5568C3.30016 15.436 4.72429 15.436 5.60339 14.5568L9.84536 10.3148C10.7245 9.4357 10.7245 8.0116 9.84536 7.1325C9.55246 6.8396 9.55246 6.3647 9.84536 6.0718Z" fill="#EEEEEE"/>
</svg>
