<svg xmlns="http://www.w3.org/2000/svg" viewBox="0 0 26 26" fill="currentColor" width="1em" height="1em" data-icon="rep" aria-hidden="true"><g style="fill: #1B6FC6;"><path d="M1 8.76435V17.2477H3.12876V14.47196H4.8486C6.38804 14.47196 8.27626 13.81108 8.27626 11.66021C8.27626 9.71362 7.21789 8.76435 5.20941 8.76435H1ZM3.12876 10.32643H4.48779C5.14927 10.32643 6.15953 10.33845 6.15953 11.56409C6.15953 12.66956 5.48602 12.89786 4.52387 12.89786H3.12876V10.32643Z"></path><path d="M8.71496 15.3131C9.61697 16.9352 11.0001 17.5 12.3711 17.5C14.8607 17.5 16.4603 15.4453 16.4603 12.96996C16.4603 9.82176 14.3676 8.5 12.4553 8.5C11.1925 8.5 9.96575 8.8004 8.81117 10.69893L10.49493 11.54005C10.91587 10.47063 11.7578 10.25434 12.3591 10.25434C13.2611 10.25434 14.2233 10.85514 14.3435 12.12884H11.2887V13.66689H14.3435C14.1631 15.3251 13.1649 15.7216 12.2509 15.7216C11.4932 15.7216 10.81966 15.3732 10.39872 14.45995L8.71496 15.3131Z"></path><path d="M17.7839 8.76435V17.2477H19.9247V10.42256H22.8592V17.2477H25V8.76435H17.7839Z"></path><path d="M25 4.5H1V6.5H25V4.5Z"></path><path d="M25 19.5H1V21.5H25V19.5Z"></path></g></svg>
