<?xml version="1.0" encoding="utf-8"?>
<!-- Generator: Adobe Illustrator 23.0.1, SVG Export Plug-In . SVG Version: 6.00 Build 0)  -->
<svg version="1.1" id="Слой_1" xmlns="http://www.w3.org/2000/svg" xmlns:xlink="http://www.w3.org/1999/xlink" x="0px" y="0px"
	 viewBox="0 0 181 181.1" style="enable-background:new 0 0 181 181.1;" xml:space="preserve">
<style type="text/css">
	.st0{fill:#34346D;}
</style>
<title>rmrs</title>
<g>
	<g id="Layer_1">
		<path class="st0" d="M179.9,102.3c0.8-1.5,0.8-3.3,0.2-4.8c-0.8,0.8-1.7,1.6-2.6,2.3c-1.5,1-2.8,2.2-3.8,3.7
			c-0.8,1.3-1,2.9-0.6,4.3c0.9-0.8,1.9-1.5,2.9-2.2C177.5,104.8,178.9,103.6,179.9,102.3 M180.5,95.4c0.7-1.6,0.6-3.3-0.2-4.8
			c-0.7,0.9-1.6,1.7-2.4,2.5c-1.4,1.1-2.6,2.4-3.5,4c-0.7,1.4-0.8,2.9-0.3,4.4c0.9-0.9,1.8-1.7,2.8-2.4
			C178.4,97.8,179.9,96.8,180.5,95.4 M178.8,109.1c0.9-1.4,1.1-3.2,0.5-4.8c-0.9,0.7-1.8,1.4-2.8,2c-1.6,0.9-2.9,2-4,3.4
			c-0.9,1.2-1.2,2.8-0.9,4.3c1-0.7,2-1.4,3.1-1.9C176.2,111.4,177.6,110.4,178.8,109.1 M172.8,118.5c1.6-0.6,3.1-1.5,4.3-2.7
			c1-1.4,1.3-3.2,0.9-4.8c-0.9,0.7-1.9,1.3-2.9,1.8c-1.6,0.7-3.1,1.8-4.3,3.1c-1,1.2-1.4,2.7-1.3,4.2
			C170.6,119.5,171.6,118.9,172.8,118.5 M170.4,124.7c1.8-0.7,3.5-1.3,4.5-2.4c1.1-1.3,1.6-3,1.3-4.6c-1,0.6-2,1.1-3,1.6
			c-1.7,0.6-3.2,1.6-4.5,2.8c-1.1,1.1-1.6,2.6-1.6,4.1C168.2,125.5,169.3,125.1,170.4,124.7 M164.5,86.4L164.5,86.4l3.1-1l-0.1-2.8
			l-5.1,2.2l-6.1-1.9l0.1,2.7l3.6,0.9l0,0l-3.6,1.2l0.1,2.7l5.8-2.4l5.3,1.9l-0.1-2.7L164.5,86.4z M155.3,61.2L155.3,61.2l2.7-1.4
			l3.2-1.9l-1-2.4l-6.9,4.7c-0.6,0.6-1.1,0.5-1.2,0.1c-0.1-0.2-0.1-0.4,0-0.6l-1.7,0.8c0,0.5,0.1,0.9,0.2,1.3
			c0.7,1.6,2.1,2.2,4.2,1.8l8.1-1.8l-1.1-2.4l-3.6,1L155.3,61.2z M135.7,29.2l1.3,1l-5.7,7l2,1.6l5.7-7l1.3,1l1.4-1.7l-4.6-3.7
			L135.7,29.2z M121.3,24.9L121.3,24.9l2.6-5.3l-2.2-1.1l-5,10l2.4,1.2l4-4.6l0,0l-2.6,5.3l2.2,1.1l5-10l-2.3-1.2L121.3,24.9z
			 M106.6,13.7l-2.6,10.8l5.7,1.4l0.5-2.1l-3.2-0.8l0.6-2.4l2.7,0.6l0.5-2.1l-2.7-0.6l0.5-2.2l3.1,0.7l0.5-2.1L106.6,13.7z
			 M101.8,16.2c-0.1,1-0.3,1.4-1.1,1.3l-0.7-0.1l0.4-2.7h0.3C101.5,14.8,101.9,14.8,101.8,16.2 M104.3,16.6c0.4-2.9-0.7-3.5-3.5-3.9
			l-2.7-0.4l-1.6,11l2.5,0.4l0.6-4.4l1.4,0.2C103.4,19.8,104.1,18.1,104.3,16.6 M115,15.9l-4,10.4l2.4,0.9l3.2-8.4l2.6,1l0.8-2
			L115,15.9z M128.7,25.5l-2.8,4.2c-1,1.3-0.8,3.2,0.5,4.2c0.2,0.1,0.3,0.2,0.5,0.3c1.3,1.1,3.2,0.9,4.2-0.4
			c0.1-0.1,0.2-0.3,0.3-0.5l0.8-1.2l-2.2-1.4l-0.9,1.4c-0.1,0.2-0.6,0.8-1.2,0.4s-0.2-1-0.1-1.3l3-4.6c0.2-0.3,0.6-0.9,1.2-0.5
			s0.3,1,0.1,1.3l-0.7,1l2.1,1.4l0.6-0.9c1-1.3,0.8-3.2-0.5-4.2c-0.1-0.1-0.3-0.2-0.5-0.3c-1.3-1.1-3.2-0.9-4.2,0.4
			C128.8,25.2,128.7,25.4,128.7,25.5 M141.7,38l2-1.9l0.2,0.2c0.6,0.6,0.9,0.9,0,1.9c-0.7,0.7-1.1,0.9-1.7,0.3L141.7,38z
			 M143.4,32.8l-8,7.8l1.8,1.8l3.2-3.1l1,1c1.6,1.7,3.1,0.8,4.3-0.4c2.1-2,1.6-3.2-0.4-5.2L143.4,32.8z M147.1,70.8
			c-8.1-24-30.4-40.3-55.7-40.7l9.8,29.6c5.7,2.1,10.7,5.9,14.3,10.9L147.1,70.8z M85.3,12.1l-2.6,0.3l-0.8,6l0,0l-0.7-5.8l-2.5,0.3
			L80,24l2.6-0.3l0.8-6l0,0l0.7,5.8l2.5-0.3L85.3,12.1z M81.9,12.1c1.9-0.2,2.2-1.3,2.1-2.2l-1.6,0.2c0,0.2-0.3,0.6-0.7,0.7
			c-0.4,0.1-0.7-0.2-0.8-0.5l-1.6,0.2C79.5,11.3,80,12.3,81.9,12.1 M89.6,30.2C64.3,30.6,42,46.9,33.9,70.9l31.5-0.2
			c3.6-4.9,8.5-8.7,14.3-10.9L89.6,30.2z M67.2,20.8L67.2,20.8c1.1-0.9,0.9-2.1,0.4-3.2c-0.3-0.7-0.7-1.6-0.5-2.1l-2.3,0.9
			c0,0.7,0.1,1.4,0.5,2.1c0.4,1,0.7,1.9-0.1,2.2l-0.5,0.2L63.2,17l-2.4,0.9l4,10.4l2.4-0.9l-1.7-4.5l0.6-0.2c0.7-0.3,0.9,0,1.1,0.6
			l0.6,1.8c0.2,0.7,0.5,1.3,1,1.9l2.4-0.9c-0.4-0.2-0.7-1.2-1-1.9L69.3,22C69,21.1,68,20.6,67.2,20.8 M59.8,27.6
			c0.1,0.3,0.5,0.9-0.2,1.3s-1-0.3-1.1-0.6l-2.4-4.9c-0.2-0.4-0.5-0.9,0.2-1.3s1,0.2,1.1,0.6l0.6,1.1l2.3-1.1l-0.5-0.9
			c-0.6-1.5-2.3-2.3-3.9-1.7c-0.2,0.1-0.4,0.2-0.5,0.3c-1.6,0.6-2.4,2.3-1.8,3.9c0.1,0.2,0.2,0.4,0.2,0.5l2.3,4.5
			c0.9,1.6,2.9,2.2,4.5,1.3c1.5-0.8,2.1-2.7,1.4-4.3l-0.6-1.3l-2.3,1.1L59.8,27.6z M72.8,15.9c0.7-0.2,0.9,0.4,1,0.8l1.3,5.4
			c0.1,0.3,0.2,1-0.5,1.2s-0.9-0.5-1-0.8l-1.3-5.4C72.2,16.7,72.1,16.1,72.8,15.9 M69.9,17.9l1.2,4.9c0.5,1.8,2.3,2.8,4.1,2.3
			c1.7-0.5,2.7-2.2,2.4-3.9l-1.2-4.9c-0.5-1.7-2.4-2.7-4.1-2.2C70.5,14.7,69.6,16.3,69.9,17.9 M32.3,38.5l3.8,4.1l0,0l-4.7-3
			l-2.6,3.1l8.5,7.2l1.6-1.9l-6.6-5.6l0,0l7.6,4.5l1.1-1.3l-5.7-6.7l0,0l6.6,5.6l1.6-1.9l-8.5-7.2L32.3,38.5z M20.5,56.7l4.7,3.8
			l0,0l-5.3-2.5l-1,2.3L28.9,65l1.1-2.3l-4.7-3.8l0,0l5.3,2.5l1.1-2.2l-10.1-4.8L20.5,56.7z M18.5,55.7c0.3,0.2,0.4,0.7,0.2,1
			c-0.1,0.3-0.5,0.5-0.9,0.4l-0.7,1.5c0.8,0.3,1.9,0.4,2.7-1.3s0-2.6-0.7-3L18.5,55.7z M16.8,66.1l5.2,3.1l0,0l-5.6-1.7l-0.7,2.4
			L26.4,73l0.8-2.5l-5.1-3l0,0l5.6,1.7l0.7-2.4l-10.7-3.2L16.8,66.1z M18.5,77.2l-0.1,0.5L14.3,77l-0.4,2.5l11,1.8l0.4-2.5L20.5,78
			l0.1-0.6c0.1-0.7,0.4-0.8,1-0.7l1.8,0.3c0.7,0.2,1.4,0.2,2.1,0.1l0.4-2.5c-0.7,0.1-1.4,0.1-2.1-0.1l-2.2-0.4
			c-0.9-0.1-1.8,0.5-2,1.4l0,0c-0.2-1.4-1.4-1.8-2.6-2c-0.7,0-1.4-0.2-2-0.6l-0.4,2.4c0.6,0.4,1.3,0.6,2,0.6
			C17.7,76.2,18.6,76.3,18.5,77.2 M19.4,94.7L19.4,94.7l-5.8,0.4l0.1,2.5l11.1-0.7l-0.2-2.6l-5.9-1.1l0,0l5.9-0.4l-0.2-2.5L13.3,91
			l0.2,2.6L19.4,94.7z M20.5,103L20.5,103l-5.8,1.1l0.5,2.4l11-2.1l-0.5-2.6l-6-0.3l0,0l5.8-1.1L24.9,98L14,100.1l0.5,2.6L20.5,103z
			 M72.7,157.6l1.7,0.3l-1.6,8.1l2.4,0.4l2.1-10.8l-2.1-0.4c-0.5,0.7-1.4,1-2.3,0.8L72.7,157.6z M56.6,139.1
			c20.4,14.1,47.4,14.1,67.8,0l-27.8-19.9c-4,0.8-8.1,0.8-12.1,0L56.6,139.1z M84.6,162.6c-0.3,0-0.6-0.2-0.5-0.8l0.2-2.7
			c0-0.6,0.3-0.7,0.6-0.7s0.6,0.2,0.5,0.8l-0.2,2.7C85.3,162.6,85,162.7,84.6,162.6 M85.2,164L85.2,164l-0.1,1.2
			c0,0.6-0.2,0.9-0.7,0.9s-0.6-0.4-0.6-1l-2.2-0.1c-0.1,2,0.9,2.9,2.7,3c2,0.1,3.1-0.9,3.2-2.6l0.4-5.8c0.1-1.7-0.9-2.9-2.9-3
			s-3.1,0.9-3.3,2.6l-0.1,2.2c-0.1,1.7,0.3,2.9,2.1,3.1C84.3,164.6,84.9,164.4,85.2,164 M94.8,157c-0.2,0.9-1.2,1.3-1.9,1.4l0.2,1.6
			l1.8-0.2l0.9,8.2l2.4-0.3l-1.2-10.9L94.8,157z M106.1,158.5l-0.2-0.7c-0.1-0.6,0-0.9,0.4-0.9s0.6,0.2,0.7,0.6l0.2,0.9
			c0,0.5-0.3,1-0.8,1.1l-0.4,0.1l0.4,1.8c1.3-0.3,1.6,0,1.9,1.2l0.2,0.8c0.1,0.4,0,0.9-0.5,1s-0.8-0.2-0.8-0.7l-0.3-1.1l-2.3,0.5
			l0.2,1c0.4,1.9,1.8,2.5,3.7,2.1c2.4-0.6,2.7-2,2.2-4.2c-0.3-1.1-0.7-2.1-1.9-2.2c0.8-0.6,1-1.7,0.7-2.6c-0.5-2-1.8-2.4-3.6-2
			c-2.4,0.6-2.8,2-2.2,4L106.1,158.5z M54.6,137.5l10.1-31.7c-2.7-4-4.4-8.7-4.9-13.5L33.3,72.9C26.1,96.8,34.6,122.6,54.6,137.5
			 M31.8,125.3l-4.8,2.8c-0.3,0.2-0.9,0.5-1.3-0.1s0.2-1,0.5-1.2l4.8-2.8c0.3-0.2,0.9-0.5,1.3,0.1C32.7,124.8,32.1,125.1,31.8,125.3
			 M34,123.1c-0.7-1.5-2.5-2.2-4-1.5c-0.2,0.1-0.3,0.2-0.5,0.3l-4.4,2.6c-1.5,0.7-2.1,2.5-1.4,4c0.1,0.2,0.2,0.3,0.3,0.5
			c0.7,1.5,2.5,2.2,4,1.5c0.2-0.1,0.3-0.2,0.5-0.3l4.4-2.6c1.5-0.7,2.1-2.5,1.4-4C34.2,123.4,34.1,123.3,34,123.1 M23.9,122l4.7-2
			c1.6-0.8,2.3-2.8,1.5-4.4c-0.8-1.5-2.6-2.3-4.2-1.6l-1.3,0.6l1,2.3l1.5-0.7c0.3-0.1,0.9-0.4,1.2,0.3s-0.4,1-0.6,1.1l-5.1,2.2
			c-0.4,0.2-0.9,0.4-1.2-0.3s0.3-0.9,0.6-1.1l1.2-0.5l-1-2.4l-1,0.4c-1.6,0.5-2.4,2.2-1.9,3.8c0.1,0.2,0.1,0.4,0.2,0.5
			c0.5,1.6,2.2,2.4,3.8,1.9C23.5,122.2,23.7,122.1,23.9,122 M20.6,114.2l4.9-1.4c1.7-0.5,2.7-2.4,2.2-4.1s-2.4-2.7-4.1-2.2l-1.4,0.4
			l0.7,2.5l1.6-0.5c0.3-0.1,1-0.3,1.2,0.4s-0.5,0.9-0.8,1l-5.3,1.6c-0.4,0.1-1,0.3-1.2-0.4s0.4-0.9,0.8-1l1.2-0.4l-0.7-2.5l-1,0.3
			c-1.7,0.6-2.6,2.5-2,4.2C17.2,113.7,18.9,114.6,20.6,114.2 M13.2,84.8c-0.3,1.6,0.8,3.2,2.4,3.5c0.2,0,0.4,0,0.6,0l5.1,0.3
			c1.8,0,3.3-1.6,3.2-3.4c0-1.6-1.2-3-2.8-3.2l-1.4-0.1l-0.2,2.6l1.6,0.1c0.3,0,1,0.1,1,0.8s-0.8,0.7-1.1,0.7l-5.5-0.4
			c-0.4,0-1-0.1-1-0.8s0.7-0.7,1.1-0.7l1.3,0.1l0.2-2.6l-1-0.1c-1.6-0.2-3.2,0.9-3.4,2.5C13.2,84.4,13.2,84.6,13.2,84.8 M41.3,32.1
			c0.6-0.5,1,0,1.2,0.3l3.6,4.2c0.2,0.2,0.7,0.8,0.1,1.3s-1-0.1-1.2-0.3l-3.5-4.2C41.2,33,40.7,32.6,41.3,32.1 M40,30.6
			c-1.4,0.9-1.7,2.8-0.8,4.2c0.1,0.2,0.2,0.3,0.4,0.4l3.3,3.8c1.2,1.3,3.3,1.4,4.7,0.2c1.3-1.2,1.4-3.1,0.4-4.4l-3.3-3.9
			c-1-1.3-2.8-1.7-4.2-0.7C40.3,30.3,40.1,30.4,40,30.6 M48.3,26.9l0.2-0.2c0.7-0.5,1.1-0.7,1.8,0.4c0.5,0.8,0.7,1.3,0,1.7l-0.5,0.4
			L48.3,26.9z M47.4,25.1l-2.3,1.5l6.2,9.3l2.1-1.4L51,30.9l1.2-0.8c1.9-1.3,1.3-2.9,0.4-4.3C51.1,23.4,49.8,23.6,47.4,25.1
			 M73.7,84.6c0-1.7-0.6-1.7-1.7-1.7h-0.4v3.6h0.8C73.5,86.5,73.6,85.9,73.7,84.6 M90.5,67c-0.4,0-0.8,0.1-1.2,0.2L89,67.3
			c-1.2,0.4-2,1.5-2.1,2.8c0,0.7,0.3,1.3,0.7,1.8h1.2V71h3.5v0.8h1.2c0.4-0.5,0.7-1.1,0.7-1.8c-0.1-1.3-0.9-2.4-2.1-2.8
			c-0.1,0-0.2-0.1-0.3-0.1C91.3,67.1,90.9,67,90.5,67 M90.5,65L90.5,65h0.2c0.5,0,1,0.1,1.4,0.2h0.2l0,0c2.5,0.6,4.3,2.5,4.3,4.8
			c-0.1,1.7-1.1,3.3-2.6,4.1h-0.1v0.1h-1.6v3.2H98v2.8h-5.8v21.4c0.1,0.6,0.5,1.7,2.7,2.1c3,0.6,8.2-2.1,8.2-2.1v-2.8l7.4-1.3
			l-5.6,8.5l-1-2.5c0,0-1.1,0.8-2.6,1.9l-0.4,0.3l-1.1,0.8l-0.9,0.6l-1.3,0.9c-0.2,0.2-0.4,0.3-0.7,0.4l-1.4,1l-0.4,0.3
			c-1,0.6-1.8,1.2-2.5,1.6c-0.2,0.1-0.3,0.2-0.5,0.3c-0.5,0.3-1,0.5-1.6,0.6c-0.5-0.1-1.1-0.3-1.6-0.6l-0.4-0.2
			c-0.7-0.4-1.5-0.9-2.5-1.6l-0.4-0.3l-1.3-0.8l-0.9-0.6c-0.3-0.2-0.7-0.4-1-0.7l-1.3-0.9c-2.2-1.6-4-2.9-4-2.9l-0.8,2.5l-5.7-8.5
			l7.4,1.3v2.8c0,0,5.2,2.7,8.2,2.1c2.2-0.4,2.6-1.5,2.7-2.1V80.2H83v-2.8h5.8v-3.2h-1.6v-0.1h-0.1c-1.6-0.8-2.5-2.4-2.6-4.2
			c0-2.3,1.8-4.2,4.3-4.8l0,0h0.2c0.5-0.1,0.9-0.2,1.4-0.2H90.5 M77,84.7c0,2.1-0.5,4.3-3.5,4.3h-1.9v5.7h-3.3V80.3h3.5
			C75.5,80.3,77,81,77,84.7 M108.4,95.2c-2.2,0.2-4.1-1.4-4.3-3.6c0-0.2,0-0.4,0-0.6v-6.5c0-2.8,1.8-4.2,4.3-4.2s4.3,1.4,4.3,4.2
			v1.3h-3.3v-1.6c0-0.5,0-1.3-1-1.3s-1,0.8-1,1.3v7.1c0,0.4,0,1.3,1,1.3s1-0.9,1-1.3v-2.1h3.3V91c0.2,2.1-1.5,4-3.6,4.2
			C108.9,95.2,108.7,95.2,108.4,95.2 M90.5,60.5c-15.6,0-28.3,12.7-28.3,28.3c0,15.6,12.7,28.3,28.3,28.3s28.3-12.7,28.3-28.3
			c0,0,0,0,0,0C118.8,73.1,106.1,60.5,90.5,60.5 M147.8,72.9l-26.5,19.6c-0.6,4.8-2.3,9.4-4.9,13.5l10,31.7
			C146.3,122.6,154.8,96.8,147.8,72.9 M164.2,104.4l-0.3,1.2l-7-1.5l0.4-1.9C159.6,103.2,161.9,103.9,164.2,104.4 M165.2,108.5
			l1.3-6c-2.9-0.7-6.9-1.5-8.6-2.7l0.1-0.6l-4.1-0.9l-0.4,2.1l2,0.4l-0.9,4l-2-0.4l-0.5,2.1l4.1,0.9l0.2-0.7L165.2,108.5z
			 M164.4,96.2l-5.5-0.5c-0.3,0-1-0.1-1-0.8s0.8-0.7,1.1-0.7l5.5,0.5c0.4,0,1,0.1,0.9,0.8S164.8,96.2,164.4,96.2 M163.9,98.7
			c1.8,0.2,3.4-1.2,3.6-3c0.2-1.8-1.2-3.4-3-3.6l-5.1-0.4c-1.8-0.1-3.4,1.3-3.5,3.1c-0.1,1.7,1.2,3.2,2.9,3.5L163.9,98.7z
			 M163.7,113.8c0.7-1.5,0-3.3-1.5-4c-0.2-0.1-0.4-0.1-0.6-0.2l-4.7-1.6c-1.8-0.5-3.6,0.6-4,2.4c-0.4,1.6,0.5,3.3,2,3.9l1.3,0.4
			l0.8-2.4l-1.6-0.5c-0.3-0.1-1-0.3-0.7-1s0.9-0.5,1.2-0.4l5.3,1.7c0.4,0.1,1,0.3,0.7,1s-0.8,0.5-1.2,0.4l-1.2-0.4l-0.8,2.4l1,0.3
			c1.5,0.6,3.3-0.1,3.9-1.6c0.1-0.2,0.1-0.4,0.2-0.5 M159.4,124.2l2.5-5.3l-2-0.9l-0.7,1.5l-8.2-3.8l-1,2.3l8.2,3.8l-0.7,1.5
			L159.4,124.2z M155.5,127.4l-0.3,0.5c-0.3,0.6-0.8,0.5-1.5,0.1s-1.1-0.7-0.6-1.4l0.3-0.4L155.5,127.4z M151.8,125.2l-0.3,0.5
			c-0.4,0.7-1.1,0.4-1.8,0c-1-0.6-1.3-0.9-0.8-1.6l0.3-0.5L151.8,125.2z M156.6,129.2l1.8-3.1l-9.6-5.7l-1.9,3.1
			c-1.2,2-0.3,3.3,1.3,4.2c1.2,0.7,2.2,0.8,3.1-0.1l0,0c-0.3,1.3,0.5,1.9,1.5,2.5C154.6,131.2,155.6,130.8,156.6,129.2 M150.2,135.4
			L150.2,135.4l-4.7-2.8l0.8-1L150.2,135.4z M150.5,137.8l2.1-2.7l-7.6-8.4l-1.6,2l1.4,1.4l-1.1,1.4l-1.7-1l-1.6,2.1L150.5,137.8z
			 M163,68.9l-6.8,2l-0.6-1.9c1.6,0.1,4.7-0.8,7-1.4L163,68.9z M163.8,64.9c-2.9,0.8-6.8,2.1-8.9,1.8l-0.2-0.6l-4,1.2l0.6,2.1l2-0.6
			l1.2,3.9l-2,0.6l0.6,2.1l4-1.2l-0.2-0.7l8.6-2.6L163.8,64.9z M165,77.4c0.1,0.7-0.5,0.8-0.9,0.9l-5.4,0.9c-0.3,0.1-1,0.2-1.1-0.6
			s0.6-0.9,0.9-0.9l5.4-0.9C164.2,76.8,164.9,76.7,165,77.4 M163.2,74.3l-5,0.8c-1.8,0.4-2.9,2.2-2.5,4c0.4,1.6,1.9,2.7,3.6,2.6
			l5-0.8c1.8-0.4,2.9-2.2,2.5-4C166.4,75.3,164.9,74.2,163.2,74.3 M167.6,130.7c1.8-0.5,3.6-1,4.7-2c1.2-1.2,1.8-2.9,1.6-4.5
			c-1,0.5-2.1,1-3.1,1.4c-1.7,0.5-3.3,1.3-4.7,2.4c-1.1,1-1.8,2.4-1.9,3.9C165.2,131.5,166.4,131.1,167.6,130.7 M164.1,136.6
			c1.7-0.2,3.4-0.7,4.9-1.6c1.3-1.1,2.1-2.8,2-4.5c-1,0.4-2.1,0.8-3.2,1.1c-1.7,0.4-3.4,1.1-4.9,2.1c-1.2,0.9-1.9,2.2-2.1,3.6
			C161.8,137,162.9,136.7,164.1,136.6 M160.3,142.1c1.7,0,3.4-0.4,5-1.2c1.4-1,2.3-2.6,2.4-4.3c-1.1,0.4-2.3,0.6-3.4,0.8
			c-1.8,0.2-3.5,0.7-5.1,1.6c-1.3,0.8-2.2,2.1-2.5,3.6C157.9,142.4,159.1,142.2,160.3,142.1 M156.2,147.3c1.7,0.1,3.4-0.2,5-0.9
			c1.5-0.9,2.4-2.4,2.6-4.1c-1.1,0.3-2.3,0.5-3.4,0.6c-1.8,0.1-3.5,0.5-5.2,1.2c-1.4,0.7-2.4,2-2.8,3.4
			C153.7,147.4,155,147.3,156.2,147.3 M156.8,151.7c1.5-0.8,2.6-2.2,2.9-3.8c-1.1,0.2-2.3,0.3-3.5,0.3c-1.8-0.1-3.6,0.2-5.2,0.8
			c-1.4,0.6-2.5,1.8-3,3.2c1.2-0.1,2.5-0.2,3.7-0.1C153.4,152.3,155.1,152.2,156.8,151.7 M151.9,156.5c1.5-0.6,2.7-1.9,3.2-3.5
			c-1.1,0.1-2.3,0.1-3.4,0.1c-1.8-0.2-3.6,0-5.3,0.5c-1.4,0.5-2.6,1.6-3.2,3c1.2,0,2.4,0,3.7,0.2C148.5,157.1,150.2,157,151.9,156.5
			 M141.6,160.9c1.7,0.5,3.4,0.5,5.1,0.3c1.6-0.5,2.8-1.8,3.4-3.3c-1.1,0-2.3,0-3.4-0.2c-1.8-0.3-3.6-0.3-5.3,0.1
			c-1.5,0.4-2.7,1.4-3.4,2.7C139.2,160.5,140.4,160.6,141.6,160.9 M135.9,164.5c1.6,0.6,3.3,0.9,5.1,0.7c1.7-0.4,3.1-1.6,3.8-3.1
			c-1.1-0.1-2.2-0.2-3.3-0.4c-1.7-0.5-3.5-0.5-5.3-0.3c-1.4,0.3-2.7,1.1-3.5,2.3C133.8,164,134.9,164.2,135.9,164.5 M130.2,167.8
			c1.6,0.7,3.3,1.1,5,1.1c1.7-0.3,3.2-1.3,4-2.8c-1.2-0.2-2.3-0.4-3.4-0.8c-1.7-0.6-3.5-0.9-5.2-0.8c-1.5,0.1-2.9,0.9-3.8,2.2
			C127.9,167,129.1,167.3,130.2,167.8 M124.2,170.6c1.5,0.8,3.2,1.3,4.9,1.4c1.7-0.2,3.2-1.1,4.1-2.5c-1.1-0.3-2.2-0.6-3.3-1
			c-1.6-0.7-3.4-1.1-5.2-1.2c-1.5,0-3,0.7-4,1.9C121.9,169.7,123.1,170.1,124.2,170.6 M117.9,173c1.4,0.9,3.1,1.5,4.8,1.8
			c1.7,0,3.3-0.8,4.3-2.1c-1.1-0.3-2.2-0.7-3.2-1.2c-1.6-0.8-3.3-1.4-5.1-1.5c-1.5-0.1-3,0.5-4.1,1.5
			C115.8,171.9,116.9,172.4,117.9,173 M111.6,174.9c1.4,1.1,3,1.8,4.6,2.1c1.7,0.1,3.3-0.6,4.4-1.8c-1.1-0.4-2.1-0.9-3.1-1.4
			c-1.5-1-3.2-1.6-5-1.9c-1.5-0.2-3,0.3-4.2,1.2C109.4,173.6,110.5,174.2,111.6,174.9 M105,176.3c1.3,1.1,2.8,2,4.4,2.5
			c1.7,0.2,3.3-0.3,4.5-1.5c-1-0.5-2-1-3-1.7c-1.4-1.1-3.1-1.8-4.8-2.3c-1.5-0.3-3,0-4.3,0.9C103,174.9,104,175.5,105,176.3
			 M98.2,177c1.4,1.3,2.8,2.5,4.2,2.9c1.7,0.4,3.4,0,4.8-1.1c-1-0.5-1.9-1.2-2.8-1.9c-1.3-1.2-2.9-2.1-4.6-2.6
			c-1.4-0.4-2.9-0.2-4.2,0.5C96.6,175.5,97.5,176.2,98.2,177 M95.6,180.6c1.6,0.5,3.4,0.2,4.8-0.7c-1-0.7-1.9-1.4-2.7-2.2
			c-1.2-1.3-2.7-2.3-4.3-3c-1.4-0.6-3-0.5-4.4,0.2c1,0.8,1.9,1.6,2.7,2.5C92.9,178.8,94.2,180.1,95.6,180.6 M85,177.2
			c1,1.4,2.2,2.6,3.7,3.5c1.6,0.6,3.4,0.5,4.9-0.3c-0.9-0.7-1.8-1.5-2.6-2.4c-1.1-1.4-2.5-2.5-4.1-3.4c-1.4-0.7-3-0.7-4.4-0.1
			C83.4,175.3,84.2,176.2,85,177.2 M78.4,176.5c1.1,1.6,2.1,3.1,3.4,3.8c1.5,0.7,3.3,0.7,4.9,0c-0.9-0.8-1.6-1.7-2.3-2.6
			c-1-1.5-2.3-2.7-3.8-3.6c-1.3-0.8-2.9-0.9-4.4-0.5C76.9,174.4,77.7,175.4,78.4,176.5 M71.8,175.3c1,1.6,1.9,3.2,3.1,4
			c1.5,0.9,3.3,1,4.8,0.4c-0.8-0.8-1.5-1.7-2.2-2.7c-0.9-1.6-2.1-2.9-3.5-4c-1.3-0.9-2.8-1.2-4.3-0.8
			C70.5,173.2,71.2,174.2,71.8,175.3 M65.3,173.6c0.6,1.6,1.6,3.1,2.8,4.3c1.4,1,3.2,1.3,4.8,0.8c-0.7-0.9-1.4-1.9-1.9-2.9
			c-0.8-1.6-1.9-3-3.2-4.2c-1.2-1-2.7-1.4-4.3-1.1C64.2,171.4,64.8,172.5,65.3,173.6 M59,171.5c0.5,1.6,1.3,3.2,2.5,4.5
			c1.3,1.1,3,1.5,4.7,1.1c-0.6-1-1.2-2-1.7-3.1c-0.6-1.7-1.6-3.2-2.9-4.4c-1.1-1-2.6-1.6-4.2-1.4C58.1,169.2,58.6,170.3,59,171.5
			 M52.9,168.8c0.6,1.8,1.1,3.6,2.2,4.6c1.2,1.2,2.9,1.8,4.6,1.5c-0.6-1-1-2.1-1.5-3.1c-0.5-1.7-1.4-3.3-2.6-4.6
			c-1-1.1-2.5-1.8-4-1.8C52.2,166.6,52.6,167.7,52.9,168.8 M47,165.7c0.3,1.7,0.9,3.3,1.8,4.8c1.1,1.2,2.8,1.9,4.5,1.8
			c-0.5-1.1-0.9-2.1-1.2-3.2c-0.4-1.7-1.2-3.4-2.2-4.8c-1-1.2-2.4-1.9-3.9-2C46.4,163.4,46.7,164.6,47,165.7 M40.6,158.7
			c0.3,1.2,0.6,2.4,0.8,3.6c0.1,1.7,0.6,3.4,1.5,4.9c1,1.3,2.6,2.1,4.3,2.1c-0.4-1.1-0.7-2.2-1-3.3c-0.3-1.8-0.9-3.5-1.8-5
			C43.4,159.7,42,158.9,40.6,158.7 M35.4,154.6c0.3,1.2,0.4,2.4,0.5,3.6c0,1.7,0.4,3.4,1.1,5c0.9,1.4,2.4,2.3,4.1,2.4
			c-0.3-1.1-0.6-2.2-0.7-3.3c-0.1-1.8-0.6-3.5-1.5-5.1C38.2,155.9,36.9,155,35.4,154.6 M30.8,150.3c0.1,1.1,0.2,2.2,0.1,3.4
			c0,1.9-0.1,3.7,0.6,5.1c0.8,1.5,2.3,2.6,4,2.9c-0.2-1.1-0.4-2.2-0.4-3.3c0-1.8-0.4-3.5-1.1-5.2C33.3,151.8,32.2,150.8,30.8,150.3
			 M31,133c0.8-0.6,1.2-0.8,1.7-0.1l0.4,0.5l-2.2,1.6l-0.2-0.2C30.1,134.1,29.9,133.8,31,133 M29.2,136.1l1.7,2.2l8.9-6.8l-1.6-2
			l-3.5,2.7l-0.9-1.1c-1.4-1.8-3-1.1-4.3-0.1C27.1,132.6,27.4,133.9,29.2,136.1 M26.4,149c-0.3,1.7-0.2,3.4,0.2,5.1
			c0.7,1.5,2.1,2.7,3.7,3.1c-0.1-1.2-0.2-2.3-0.2-3.5c0.2-1.8,0-3.6-0.6-5.3c-0.5-1.4-1.7-2.6-3.1-3.2
			C26.5,146.5,26.5,147.8,26.4,149 M22,143.9c-0.4,1.7-0.4,3.4-0.1,5.1c0.6,1.6,1.9,2.8,3.5,3.4c-0.1-1.2,0-2.3,0.1-3.5
			c0.3-1.8,0.2-3.6-0.2-5.3c-0.4-1.5-1.5-2.7-2.8-3.4C22.3,141.5,22.2,142.7,22,143.9 M18.1,138.6c-0.4,1.9-0.9,3.6-0.5,5.1
			c0.5,1.6,1.6,2.9,3.2,3.6c0-1.2,0.1-2.3,0.4-3.4c0.4-1.7,0.5-3.5,0.1-5.3c-0.3-1.5-1.2-2.7-2.5-3.5
			C18.6,136.2,18.4,137.4,18.1,138.6 M14.6,133c-0.6,1.6-0.9,3.3-0.9,5c0.3,1.6,1.4,3,2.9,3.8c0.1-1.1,0.3-2.3,0.6-3.4
			c0.5-1.7,0.7-3.5,0.5-5.3c-0.2-1.5-1-2.9-2.3-3.7C15.3,130.6,15,131.8,14.6,133 M11.6,126.8c-0.8,1.5-1.2,3.2-1.3,4.9
			c0.2,1.7,1.2,3.2,2.7,4.1c0.2-1.1,0.5-2.2,0.8-3.2c0.7-1.7,1-3.4,0.9-5.2c-0.1-1.5-0.8-2.8-1.9-3.8
			C12.5,124.7,12.1,125.8,11.6,126.8 M11.8,94.4c0,0.4-0.2,0.7-0.5,0.8l0.1,1.6c0.8,0,1.9-0.6,1.7-2.5s-1.2-2.3-2-2.3l0.1,1.6
			C11.6,93.7,11.8,94,11.8,94.4 M9.1,120.7c-0.9,1.5-1.5,3.1-1.7,4.8c0.1,1.7,0.9,3.3,2.3,4.3c0.3-1.1,0.7-2.2,1.2-3.3
			c0.8-1.6,1.3-3.3,1.4-5.1c0.1-1.5-0.6-3-1.7-4.1C10.2,118.5,9.7,119.6,9.1,120.7 M7,114.4c-1,1.4-1.7,3-2,4.7
			c-0.1,1.7,0.7,3.3,1.9,4.4c0.4-1.1,0.8-2.2,1.4-3.2c0.9-1.5,1.5-3.2,1.8-5c0.2-1.5-0.3-3-1.4-4.2C8.2,112.3,7.7,113.3,7,114.4
			 M5.4,107.9c-1.1,1.3-1.9,2.9-2.4,4.5c-0.2,1.7,0.4,3.4,1.6,4.6c0.5-1,1-2,1.6-3c1-1.5,1.8-3.1,2.1-4.8c0.3-1.5-0.1-3-1-4.2
			C6.8,106,6.1,107,5.4,107.9 M1.6,105.7c-0.3,1.7,0.2,3.4,1.2,4.6c0.5-1,1.1-2,1.8-2.9c1.1-1.4,2-3,2.5-4.7c0.4-1.5,0.1-3-0.7-4.3
			c-0.6,1-1.3,2-2.1,2.9C3.1,102.8,1.9,104.2,1.6,105.7 M0.7,98.8c-0.4,1.6-0.1,3.4,0.9,4.7c0.6-1,1.3-1.9,2-2.8
			c1.2-1.3,2.2-2.8,2.8-4.5c0.5-1.4,0.3-3-0.4-4.3c-0.7,1-1.5,1.9-2.3,2.7C2.4,95.8,1.4,97.2,0.7,98.8 M0.3,91.9
			c-0.5,1.6-0.3,3.3,0.5,4.8c0.7-0.9,1.4-1.8,2.2-2.6c1.3-1.2,2.4-2.6,3.2-4.3c0.6-1.4,0.6-2.9,0-4.3c-0.8,0.9-1.7,1.7-2.6,2.5
			C2.3,89,1.1,90.4,0.3,91.9 M0.5,85c-0.7,1.5-0.6,3.3,0.2,4.8c0.8-0.8,1.6-1.6,2.4-2.4c1.4-1.1,2.6-2.4,3.5-4
			c0.7-1.3,0.8-2.9,0.3-4.3c-0.8,0.8-1.7,1.6-2.7,2.3C2.7,82.3,1.4,83.6,0.5,85 M1.2,78.1c-0.8,1.5-0.8,3.2-0.2,4.8
			c0.8-0.8,1.7-1.5,2.6-2.2c1.5-1,2.8-2.3,3.8-3.7c0.8-1.3,1-2.8,0.7-4.3c-0.9,0.8-1.9,1.5-2.9,2.1C3.6,75.6,2.2,76.7,1.2,78.1
			 M2.4,71.3c-0.9,1.4-1.1,3.1-0.6,4.7c0.9-0.7,1.8-1.4,2.7-2c1.6-0.9,2.9-2,4-3.4c0.9-1.2,1.2-2.8,0.9-4.2c-0.9,0.7-1.9,1.3-3,1.9
			C4.9,68.9,3.5,69.9,2.4,71.3 M8.5,61.8c-1.6,0.6-3.1,1.5-4.3,2.7c-1,1.3-1.3,3.1-0.9,4.7c0.9-0.7,1.9-1.3,2.9-1.8
			c1.6-0.7,3.1-1.8,4.3-3.1c1-1.1,1.4-2.6,1.3-4.1C10.6,60.8,9.6,61.3,8.5,61.8 M11.1,55.6c-1.7,0.4-3.2,1.2-4.6,2.3
			c-1.2,1.3-1.6,3-1.3,4.7c1-0.6,2-1.1,3-1.5c1.7-0.6,3.2-1.5,4.5-2.7c1-1,1.6-2.4,1.6-3.9C13.2,54.9,12.1,55.3,11.1,55.6 M14,49.6
			c-1.7,0.3-3.3,0.9-4.7,1.9c-1.2,1.2-1.9,2.9-1.7,4.6c1.1-0.5,2.1-1,3.3-1.3c1.7-0.4,3.4-1.2,4.8-2.3c1.2-1,1.9-2.4,2-4
			C16.4,48.9,15.2,49.3,14,49.6 M17.4,43.9c-1.7,0.2-3.4,0.7-4.9,1.6c-1.3,1.1-2,2.7-2,4.4c1.1-0.4,2.2-0.8,3.3-1.1
			c1.8-0.3,3.4-1,4.9-2c1.2-0.9,2-2.3,2.2-3.8C19.7,43.4,18.5,43.7,17.4,43.9 M21.1,38.4c-1.7,0-3.4,0.4-5,1.2
			c-1.4,1-2.2,2.5-2.3,4.2c1.1-0.4,2.2-0.6,3.4-0.8c1.8-0.2,3.5-0.7,5-1.6c1.3-0.8,2.2-2.1,2.5-3.6C23.5,38.1,22.3,38.3,21.1,38.4
			 M25.2,33.2c-1.7-0.1-3.4,0.2-5,0.8c-1.4,0.9-2.4,2.3-2.6,4c1.1-0.3,2.3-0.5,3.4-0.5c1.8-0.1,3.5-0.5,5.1-1.2
			c1.4-0.7,2.4-1.9,2.8-3.4C27.7,33.1,26.5,33.2,25.2,33.2 M24.7,28.9c-1.5,0.8-2.5,2.2-2.9,3.8c1.1-0.2,2.3-0.3,3.4-0.3
			c1.8,0.1,3.6-0.2,5.2-0.9c1.4-0.6,2.5-1.7,3-3.2c-1.2,0.1-2.4,0.1-3.6,0.1C28.1,28.2,26.4,28.3,24.7,28.9 M29.8,24
			c-1.6,0.6-2.8,2-3.3,3.6c1.1-0.1,2.2-0.1,3.3,0c1.8,0.2,3.6,0,5.3-0.6c1.4-0.5,2.5-1.5,3.2-2.8c-1.1,0-2.2-0.1-3.4-0.2
			C33.2,23.6,31.5,23.6,29.8,24 M40.2,19.9c-1.7-0.5-3.4-0.6-5.1-0.4c-1.6,0.5-2.9,1.7-3.5,3.3c1.2,0,2.3,0.1,3.5,0.3
			c1.7,0.4,3.5,0.4,5.3,0c1.5-0.4,2.8-1.3,3.5-2.7C42.6,20.4,41.4,20.2,40.2,19.9 M45.7,16.2c-1.8-0.5-3.6-1-5.1-0.7
			c-1.6,0.4-3,1.5-3.7,3c1.2,0.1,2.3,0.3,3.4,0.5c1.7,0.5,3.5,0.6,5.3,0.4c1.5-0.2,2.9-1.1,3.7-2.4C48.1,16.8,46.9,16.6,45.7,16.2
			 M51.5,13c-1.6-0.7-3.3-1.1-5-1.1c-1.7,0.3-3.1,1.3-3.9,2.7c1.1,0.2,2.3,0.4,3.4,0.8c1.7,0.6,3.5,0.9,5.2,0.8
			c1.5-0.1,2.9-0.9,3.8-2.2C53.8,13.8,52.6,13.4,51.5,13 M57.5,10.2c-1.5-0.8-3.2-1.3-4.9-1.4c-1.7,0.1-3.2,1-4.1,2.4
			c1.1,0.3,2.2,0.6,3.3,1c1.7,0.7,3.4,1.1,5.2,1.1c1.5,0,2.9-0.7,4-1.8C59.8,11.1,58.7,10.7,57.5,10.2 M64,7.9
			c-1.4-1-3.1-1.7-4.8-1.9c-1.7,0-3.4,0.8-4.4,2.1c1.1,0.3,2.1,0.7,3.1,1.2c1.6,0.9,3.3,1.4,5.1,1.5c1.5,0.1,2.9-0.4,4-1.4
			C66,9,65,8.5,64,7.9 M70.4,6.1c-1.6-1.1-3.1-2.1-4.6-2.3c-1.7-0.1-3.4,0.5-4.5,1.8c1.1,0.4,2.1,1,3.1,1.6c1.5,1,3.1,1.7,4.9,2
			c1.5,0.2,3-0.2,4.2-1.2C72.4,7.5,71.4,6.8,70.4,6.1 M76.9,4.8c-1.3-1.2-2.8-2.1-4.4-2.6c-1.7-0.3-3.4,0.2-4.6,1.4
			c1,0.5,2,1.1,3,1.8c1.4,1.1,3,1.9,4.7,2.4c1.5,0.3,3.1,0,4.3-0.8C78.8,6.3,77.8,5.6,76.9,4.8 M83.3,4.1c-1.2-1.3-2.6-2.3-4.2-3
			c-1.6-0.4-3.3,0-4.6,1c1,0.6,2,1.3,2.9,2c1.3,1.2,2.9,2.1,4.6,2.7c1.4,0.4,2.9,0.3,4.2-0.4C85.2,5.7,84.2,4.9,83.3,4.1 M85.8,0.5
			c-1.6-0.5-3.3-0.3-4.7,0.6c1,0.7,1.9,1.5,2.8,2.3c1.2,1.3,2.7,2.3,4.3,3.1C89.6,7,91.1,7,92.5,6.4c-1-0.8-1.9-1.7-2.8-2.6
			C88.6,2.4,87.3,1.3,85.8,0.5 M93.4,1L93.4,1L93.4,1c-0.3-0.2-0.6-0.4-0.9-0.5c-1.5-0.6-3.3-0.5-4.7,0.3c0.9,0.7,1.8,1.6,2.6,2.5
			c1.1,1.4,2.5,2.5,4.1,3.4c1.3,0.6,2.9,0.7,4.3,0.2C97.8,5.9,96.9,5,96.2,4C95.4,2.9,94.4,1.9,93.4,1 M102.2,4.4
			c-0.9-1.5-2.1-2.7-3.5-3.7c-1.4-0.7-3-0.7-4.4-0.1c0.9,0.8,1.8,1.8,2.6,2.8c1,1.5,2.3,2.7,3.8,3.7c1.3,0.7,2.8,0.9,4.2,0.5
			C103.9,6.6,103,5.6,102.2,4.4 M108.6,5.5c-0.8-1.6-1.9-2.9-3.2-4c-1.4-0.8-3.1-0.9-4.6-0.4c0.8,0.9,1.6,1.8,2.3,2.7
			c0.9,1.5,2.2,2.8,3.6,3.9c1.2,0.8,2.7,1,4.1,0.8C109.9,7.6,109.2,6.6,108.6,5.5 M114.9,7.1c-0.9-1.7-1.7-3.3-2.9-4.2
			c-1.3-0.9-3-1.2-4.6-0.7c0.7,0.9,1.4,1.8,2,2.8c0.8,1.6,2,3,3.3,4.1c1.1,0.9,2.6,1.2,4,1.1C116.1,9.2,115.4,8.2,114.9,7.1
			 M121.2,9.2c-0.5-1.6-1.4-3.1-2.6-4.4c-1.3-1-3-1.4-4.7-1c0.6,0.9,1.2,1.9,1.7,2.9c0.7,1.6,1.7,3.1,3,4.4c1.1,1,2.6,1.5,4.1,1.4
			C122.2,11.4,121.7,10.4,121.2,9.2 M127.3,12c-0.6-1.8-1.1-3.6-2.2-4.6c-1.2-1.2-3-1.7-4.7-1.5c0.6,1,1,2,1.5,3
			c0.6,1.7,1.5,3.2,2.7,4.6c1,1,2.4,1.6,3.9,1.7C128,14.1,127.7,13.1,127.3,12 M133.3,15c-0.2-1.7-0.8-3.3-1.8-4.8
			c-1.2-1.2-2.8-1.9-4.5-1.8c0.5,1.1,0.9,2.2,1.2,3.3c0.4,1.7,1.2,3.4,2.2,4.8c1,1.2,2.4,1.9,3.9,2C133.9,17.4,133.5,16.2,133.3,15
			 M139.7,22.1c-0.4-1.2-0.6-2.4-0.8-3.6c-0.3-1.9-0.6-3.7-1.4-4.9c-1-1.3-2.6-2.1-4.3-2.1c0.4,1.1,0.8,2.2,1,3.3
			c0.3,1.8,0.9,3.5,1.9,5C136.9,21.1,138.2,21.9,139.7,22.1 M144.9,26.1c-0.3-1.2-0.5-2.4-0.5-3.6c0-1.7-0.4-3.4-1.1-5
			c-0.9-1.4-2.5-2.3-4.2-2.4c0.3,1.1,0.6,2.2,0.7,3.4c0.1,1.8,0.6,3.5,1.5,5.1C142,24.8,143.3,25.7,144.9,26.1 M149.6,30.4
			c-0.2-1.2-0.3-2.4-0.3-3.6c0.1-1.7-0.1-3.5-0.7-5.1c-0.8-1.4-2.3-2.4-3.9-2.7c0.2,1.1,0.4,2.3,0.5,3.4c0,1.8,0.4,3.5,1.1,5.2
			C147,28.9,148.2,30,149.6,30.4 M154.1,31.4c0.1-1.9,0.2-3.7-0.4-5.1c-0.7-1.5-2.1-2.6-3.7-3c0.2,1.1,0.2,2.3,0.2,3.4
			c-0.1,1.8,0.1,3.6,0.7,5.3c0.6,1.4,1.7,2.5,3.1,3C154,33.8,154,32.6,154.1,31.4 M153,49.2l-4.4,2.6c-1.6,0.9-2.1,3-1.2,4.5
			c0.9,1.6,3,2.1,4.5,1.2l1.2-0.7l-1.3-2.2l-1.4,0.8c-0.3,0.2-0.9,0.5-1.3-0.1s0.3-1,0.5-1.2l4.8-2.8c0.3-0.2,0.9-0.5,1.3,0.1
			s-0.2,1-0.5,1.2l-1.1,0.6l1.3,2.2l0.9-0.5c1.5-0.7,2.1-2.5,1.4-4c-0.1-0.2-0.2-0.3-0.3-0.5c-0.7-1.5-2.5-2.2-4-1.5
			C153.3,49,153.2,49.1,153,49.2 M158.4,36.6c0.4-1.7,0.5-3.4,0.1-5.1c-0.6-1.6-1.9-2.9-3.6-3.4c0.1,1.1,0.1,2.2,0,3.3
			c-0.3,1.8-0.1,3.6,0.4,5.3c0.4,1.4,1.4,2.6,2.7,3.3C158.1,38.9,158.2,37.8,158.4,36.6 M162.4,42c0.5-1.6,0.7-3.4,0.5-5.1
			c-0.5-1.6-1.7-3-3.2-3.6c0,1.2-0.1,2.3-0.4,3.5c-0.4,1.7-0.5,3.5-0.1,5.3c0.3,1.5,1.3,2.8,2.6,3.5C161.9,44.4,162.1,43.2,162.4,42
			 M165.9,47.6c0.6-1.6,0.9-3.3,0.9-5c-0.4-1.6-1.4-3-2.9-3.8c-0.1,1.2-0.3,2.3-0.6,3.4c-0.5,1.7-0.7,3.5-0.5,5.3
			c0.2,1.5,1.1,2.9,2.3,3.7C165.3,50,165.5,48.8,165.9,47.6 M169,53.5c0.7-1.8,1.4-3.5,1.2-5c-0.2-1.7-1.2-3.1-2.6-4
			c-0.2,1.1-0.5,2.2-0.8,3.3c-0.7,1.7-1,3.4-0.9,5.2c0.1,1.5,0.8,2.9,2,3.9C168.2,55.8,168.5,54.6,169,53.5 M171.7,59.5
			c0.9-1.5,1.4-3.1,1.6-4.9c-0.1-1.7-1-3.2-2.3-4.2c-0.3,1.1-0.6,2.2-1.1,3.2c-0.8,1.6-1.2,3.4-1.3,5.2c0,1.5,0.6,3,1.7,4
			C170.7,61.8,171.1,60.6,171.7,59.5 M173.7,66c1-1.4,1.7-3,2-4.7c0.1-1.7-0.7-3.4-2-4.5c-0.4,1.1-0.8,2.1-1.3,3.1
			c-0.9,1.5-1.4,3.2-1.6,5c-0.1,1.5,0.4,2.9,1.3,4C172.6,67.9,173.1,66.9,173.7,66 M175.4,72.4c1.1-1.3,1.9-2.9,2.4-4.5
			c0.2-1.7-0.4-3.4-1.6-4.6c-0.5,1.1-1,2.1-1.6,3.1c-1,1.5-1.8,3.1-2.1,4.8c-0.3,1.5,0.1,3.1,1.1,4.3
			C174,74.5,174.7,73.4,175.4,72.4 M179.3,74.7c0.3-1.7-0.2-3.4-1.3-4.7c-0.5,1-1.1,2.1-1.8,3c-1.1,1.4-2,3-2.5,4.7
			c-0.4,1.5-0.1,3.1,0.7,4.3c0.6-1.1,1.4-2.1,2.2-3C177.8,77.8,178.7,76.3,179.3,74.7 M180.3,81.5c0.4-1.6,0.1-3.4-0.9-4.7
			c-0.6,1-1.3,1.9-2.1,2.8c-1.2,1.3-2.2,2.8-2.8,4.5c-0.5,1.4-0.3,3,0.4,4.4c0.7-1,1.5-1.9,2.4-2.8
			C178.6,84.5,179.6,83.1,180.3,81.5 M180.7,88.4c0.5-1.6,0.3-3.4-0.6-4.8c-0.7,0.9-1.4,1.8-2.3,2.6c-1.3,1.2-2.4,2.6-3.1,4.3
			c-0.6,1.4-0.6,3,0.1,4.4c0.8-0.9,1.7-1.8,2.6-2.6C178.8,91,180.1,89.9,180.7,88.4"/>
	</g>
</g>
</svg>
