<svg xmlns="http://www.w3.org/2000/svg" viewBox="0 0 373.24 417.68"><defs><style>.cls-1{fill:#00539f;}.cls-1,.cls-2{fill-rule:evenodd;}.cls-2{fill:#fff;}</style></defs><title>rrr</title><g id="Слой_2" data-name="Слой 2"><g id="Слой_1-2" data-name="Слой 1"><path class="cls-1" d="M0,208.83C0,324,83.72,417.68,186.62,417.68S373.24,324,373.24,208.83,289.52,0,186.62,0,0,93.68,0,208.83Z"/><path class="cls-2" d="M3.86,208.83c0-113,82-205,182.76-205s182.75,92,182.75,205-82,205-182.75,205S3.86,321.86,3.86,208.83Z"/><path class="cls-1" d="M99.58,275.05c3.33-2.17,8.64-3.47,14.22-3.47,5.1,0,10.27,1.16,13.47,3,3.64,2.12,9.18,3.39,14.81,3.39,6.07,0,11.93-1.46,15.67-3.9,3.33-2.17,8.64-3.46,14.22-3.46,5.1,0,10.27,1.16,13.48,3,3.64,2.12,9.18,3.38,14.8,3.38,6.07,0,11.93-1.45,15.67-3.89,3.33-2.17,8.65-3.46,14.22-3.46,5.11,0,10.27,1.15,13.48,3,3.64,2.12,9.18,3.38,14.81,3.38,6.07,0,11.92-1.46,15.66-3.89,3.33-2.17,8.65-3.47,14.23-3.47a33.34,33.34,0,0,1,9.61,1.4q.52-1.22,1-2.46a35.43,35.43,0,0,0-10.63-1.59c-6.07,0-11.93,1.46-15.67,3.9-3.33,2.16-8.65,3.46-14.22,3.46-5.11,0-10.27-1.16-13.48-3-3.64-2.12-9.18-3.38-14.81-3.38-6.07,0-11.92,1.45-15.66,3.89-3.33,2.17-8.65,3.46-14.23,3.46-5.1,0-10.26-1.16-13.47-3C183.14,269.24,177.6,268,172,268c-6.07,0-11.93,1.45-15.67,3.89-3.33,2.17-8.64,3.47-14.22,3.47-5.1,0-10.27-1.16-13.47-3-3.65-2.12-9.18-3.38-14.81-3.38-6.07,0-11.93,1.46-15.67,3.9-3.33,2.16-8.65,3.46-14.22,3.46a34.39,34.39,0,0,1-7.27-.78c.47,1,1,2,1.45,3a38.31,38.31,0,0,0,5.82.46c6.07,0,11.92-1.46,15.67-3.89Z"/><path class="cls-1" d="M303.12,229.45c-3.64-2.12-9.17-3.39-14.8-3.39-6.07,0-11.93,1.46-15.67,3.9-3.33,2.17-8.65,3.46-14.22,3.46-5.11,0-10.27-1.16-13.48-3-3.64-2.12-9.18-3.38-14.81-3.38-6.07,0-11.92,1.45-15.66,3.89-3.33,2.17-8.65,3.46-14.23,3.46-5.1,0-10.26-1.15-13.47-3C183.14,229.23,177.6,228,172,228c-6.07,0-11.93,1.46-15.67,3.89-3.33,2.17-8.64,3.47-14.22,3.47-5.1,0-10.27-1.16-13.47-3-3.65-2.11-9.18-3.38-14.81-3.38-6.07,0-11.93,1.46-15.67,3.9-3.33,2.17-8.65,3.46-14.22,3.46-5.11,0-10.27-1.16-13.48-3a24.5,24.5,0,0,0-7.11-2.58c.13.95.26,1.89.41,2.83a21,21,0,0,1,5.37,2c3.64,2.12,9.18,3.38,14.81,3.38,6.07,0,11.92-1.45,15.67-3.89,3.33-2.17,8.64-3.47,14.22-3.47,5.1,0,10.27,1.16,13.47,3,3.64,2.11,9.18,3.38,14.81,3.38,6.07,0,11.93-1.46,15.67-3.9,3.33-2.16,8.64-3.46,14.22-3.46,5.1,0,10.27,1.16,13.48,3,3.64,2.12,9.18,3.38,14.8,3.38,6.07,0,11.93-1.45,15.67-3.89,3.33-2.17,8.65-3.46,14.22-3.46,5.11,0,10.27,1.16,13.48,3,3.64,2.12,9.18,3.38,14.81,3.38,6.07,0,11.92-1.45,15.66-3.89,3.33-2.17,8.65-3.46,14.23-3.46,5.1,0,10.26,1.15,13.47,3a24,24,0,0,0,6.52,2.45c.14-.88.27-1.76.4-2.65a21.18,21.18,0,0,1-5.59-2.09Z"/><path class="cls-1" d="M288.32,286.08c-6.07,0-11.93,1.45-15.67,3.89-3.33,2.17-8.65,3.46-14.22,3.46-5.11,0-10.27-1.16-13.48-3-3.64-2.12-9.18-3.38-14.81-3.38-6.07,0-11.92,1.46-15.66,3.89-3.33,2.17-8.65,3.47-14.23,3.47-5.1,0-10.26-1.16-13.47-3C183.14,289.25,177.6,288,172,288c-6.07,0-11.93,1.46-15.67,3.89-3.33,2.17-8.64,3.47-14.22,3.47-5.1,0-10.27-1.16-13.47-3-3.65-2.12-9.18-3.38-14.81-3.38-6.07,0-11.93,1.45-15.67,3.89a23.75,23.75,0,0,1-9.7,3.16c.57.82,1.13,1.62,1.71,2.42a25.37,25.37,0,0,0,9.44-3.36c3.33-2.17,8.64-3.46,14.22-3.46,5.1,0,10.27,1.15,13.47,3,3.64,2.12,9.18,3.38,14.81,3.38,6.07,0,11.93-1.46,15.67-3.89,3.33-2.17,8.64-3.47,14.22-3.47,5.1,0,10.27,1.16,13.48,3,3.64,2.11,9.18,3.38,14.8,3.38,6.07,0,11.93-1.46,15.67-3.9,3.33-2.16,8.65-3.46,14.22-3.46,5.11,0,10.27,1.16,13.48,3,3.64,2.12,9.18,3.38,14.81,3.38,6.07,0,11.92-1.45,15.66-3.89,3.33-2.17,8.65-3.46,14.23-3.46h.09c.52-.86,1-1.73,1.54-2.61-.54,0-1.09,0-1.63,0Z"/><path class="cls-1" d="M113.8,281.58c5.1,0,10.27,1.16,13.47,3,3.64,2.11,9.18,3.38,14.81,3.38,6.07,0,11.93-1.46,15.67-3.9,3.33-2.16,8.64-3.46,14.22-3.46,5.1,0,10.27,1.16,13.48,3,3.64,2.12,9.18,3.38,14.8,3.38,6.07,0,11.93-1.45,15.67-3.89,3.33-2.17,8.65-3.46,14.22-3.46,5.11,0,10.27,1.16,13.48,3,3.64,2.12,9.18,3.38,14.81,3.38,6.07,0,11.92-1.45,15.66-3.89,3.33-2.17,8.65-3.46,14.23-3.46a34.54,34.54,0,0,1,5.41.43c.41-.83.82-1.66,1.22-2.49a37.84,37.84,0,0,0-6.63-.6c-6.07,0-11.93,1.46-15.67,3.9-3.33,2.17-8.65,3.46-14.22,3.46-5.11,0-10.27-1.16-13.48-3-3.64-2.12-9.18-3.38-14.81-3.38-6.07,0-11.92,1.45-15.66,3.89-3.33,2.17-8.65,3.46-14.23,3.46-5.1,0-10.26-1.15-13.47-3C183.14,279.24,177.6,278,172,278c-6.07,0-11.93,1.46-15.67,3.89-3.33,2.17-8.64,3.47-14.22,3.47-5.1,0-10.27-1.16-13.47-3-3.65-2.11-9.18-3.38-14.81-3.38-6.07,0-11.93,1.46-15.67,3.9-3.33,2.16-8.65,3.46-14.22,3.46-.55,0-1.09,0-1.63-.05q.78,1.36,1.59,2.7h0c6.07,0,11.92-1.45,15.67-3.89,3.33-2.17,8.64-3.47,14.22-3.47Z"/><path class="cls-1" d="M303.12,239.45c-3.64-2.12-9.17-3.38-14.8-3.38-6.07,0-11.93,1.45-15.67,3.89-3.33,2.17-8.65,3.46-14.22,3.46-5.11,0-10.27-1.16-13.48-3-3.64-2.12-9.18-3.38-14.81-3.38-6.07,0-11.92,1.46-15.66,3.89-3.33,2.17-8.65,3.47-14.23,3.47-5.1,0-10.26-1.16-13.47-3C183.14,239.24,177.6,238,172,238c-6.07,0-11.93,1.46-15.67,3.9-3.33,2.16-8.64,3.46-14.22,3.46-5.1,0-10.27-1.16-13.47-3-3.65-2.12-9.18-3.38-14.81-3.38-6.07,0-11.93,1.45-15.67,3.89-3.33,2.17-8.65,3.46-14.22,3.46-5.11,0-10.27-1.16-13.48-3a22.29,22.29,0,0,0-5.29-2.13c.2,1,.42,2,.64,3a17.91,17.91,0,0,1,3.32,1.44c3.64,2.12,9.18,3.38,14.81,3.38,6.07,0,11.92-1.45,15.67-3.89,3.33-2.17,8.64-3.46,14.22-3.46,5.1,0,10.27,1.15,13.47,3,3.64,2.12,9.18,3.38,14.81,3.38,6.07,0,11.93-1.46,15.67-3.89,3.33-2.17,8.64-3.47,14.22-3.47,5.1,0,10.27,1.16,13.48,3,3.64,2.11,9.18,3.38,14.8,3.38,6.07,0,11.93-1.46,15.67-3.9,3.33-2.16,8.65-3.46,14.22-3.46,5.11,0,10.27,1.16,13.48,3,3.64,2.12,9.18,3.38,14.81,3.38,6.07,0,11.92-1.45,15.66-3.89,3.33-2.17,8.65-3.46,14.23-3.46,5.1,0,10.26,1.16,13.47,3a22.4,22.4,0,0,0,4.68,2c.19-.87.38-1.74.56-2.61a19.4,19.4,0,0,1-3.91-1.64Z"/><path class="cls-1" d="M303.12,249.45c-3.64-2.12-9.17-3.38-14.8-3.38-6.07,0-11.93,1.45-15.67,3.89-3.33,2.17-8.65,3.47-14.22,3.47-5.11,0-10.27-1.16-13.48-3-3.64-2.11-9.18-3.38-14.81-3.38-6.07,0-11.92,1.46-15.66,3.9-3.33,2.16-8.65,3.46-14.23,3.46-5.1,0-10.26-1.16-13.47-3C183.14,249.24,177.6,248,172,248c-6.07,0-11.93,1.46-15.67,3.9-3.33,2.17-8.64,3.46-14.22,3.46-5.1,0-10.27-1.16-13.47-3-3.65-2.12-9.18-3.38-14.81-3.38-6.07,0-11.93,1.45-15.67,3.89-3.33,2.17-8.65,3.46-14.22,3.46-5.11,0-10.27-1.15-13.48-3A19.17,19.17,0,0,0,67.82,252c.33,1.13.66,2.26,1,3.39a2.24,2.24,0,0,1,.27.13c3.64,2.12,9.18,3.38,14.81,3.38,6.07,0,11.92-1.45,15.67-3.89,3.33-2.17,8.64-3.46,14.22-3.46,5.1,0,10.27,1.16,13.47,3,3.64,2.12,9.18,3.38,14.81,3.38,6.07,0,11.93-1.45,15.67-3.89,3.33-2.17,8.64-3.47,14.22-3.47,5.1,0,10.27,1.16,13.48,3,3.64,2.12,9.18,3.38,14.8,3.38,6.07,0,11.93-1.46,15.67-3.89,3.33-2.17,8.65-3.47,14.22-3.47,5.11,0,10.27,1.16,13.48,3,3.64,2.12,9.18,3.39,14.81,3.39,6.07,0,11.92-1.46,15.66-3.9,3.33-2.17,8.65-3.46,14.23-3.46,5.1,0,10.26,1.16,13.47,3a18.88,18.88,0,0,0,2.3,1.11c.25-.85.5-1.71.73-2.57a16.8,16.8,0,0,1-1.7-.83Z"/><path class="cls-1" d="M272.65,260c-3.33,2.17-8.65,3.47-14.22,3.47-5.11,0-10.27-1.16-13.48-3-3.64-2.11-9.18-3.38-14.81-3.38-6.07,0-11.92,1.46-15.66,3.9-3.33,2.17-8.65,3.46-14.23,3.46-5.1,0-10.26-1.16-13.47-3C183.14,259.24,177.6,258,172,258c-6.07,0-11.93,1.45-15.67,3.89-3.33,2.17-8.64,3.46-14.22,3.46-5.1,0-10.27-1.16-13.47-3-3.65-2.12-9.18-3.38-14.81-3.38-6.07,0-11.93,1.45-15.67,3.89-3.33,2.17-8.65,3.46-14.22,3.46a30.87,30.87,0,0,1-12.17-2.34c.42,1.12.86,2.23,1.3,3.33a35.25,35.25,0,0,0,10.87,1.67c6.07,0,11.92-1.46,15.67-3.9,3.33-2.16,8.64-3.46,14.22-3.46,5.1,0,10.27,1.16,13.47,3,3.64,2.12,9.18,3.38,14.81,3.38,6.07,0,11.93-1.45,15.67-3.89,3.33-2.17,8.64-3.46,14.22-3.46,5.1,0,10.27,1.16,13.48,3,3.64,2.12,9.18,3.38,14.8,3.38,6.07,0,11.93-1.45,15.67-3.89,3.33-2.17,8.65-3.47,14.22-3.47,5.11,0,10.27,1.16,13.48,3,3.64,2.11,9.18,3.38,14.81,3.38,6.07,0,11.92-1.46,15.66-3.89,3.33-2.17,8.65-3.47,14.23-3.47a29.41,29.41,0,0,1,13,2.77c.3-.84.59-1.68.88-2.53a32.27,32.27,0,0,0-13.86-2.89c-6.07,0-11.93,1.46-15.67,3.89Z"/><path class="cls-1" d="M230.14,337c-6.07,0-11.92,1.46-15.66,3.89-3.33,2.17-8.65,3.47-14.23,3.47-5.1,0-10.26-1.16-13.47-3C183.14,339.26,177.6,338,172,338c-6.07,0-11.93,1.46-15.67,3.89a19.91,19.91,0,0,1-5.87,2.44c1.41.48,2.83.94,4.26,1.37a19.07,19.07,0,0,0,3.06-1.58c3.33-2.17,8.64-3.47,14.22-3.47,5.1,0,10.27,1.16,13.48,3,3.64,2.11,9.18,3.38,14.8,3.38,6.07,0,11.93-1.46,15.67-3.9,3.33-2.16,8.65-3.46,14.22-3.46.92,0,1.83.05,2.73.12q2.16-1,4.29-2.1a37.31,37.31,0,0,0-7-.67Z"/><path class="cls-1" d="M142.08,78c6.07,0,11.93-1.45,15.67-3.89,3.33-2.17,8.64-3.46,14.22-3.46,5.11,0,10.27,1.16,13.48,3,3.64,2.12,9.17,3.38,14.8,3.38,6.07,0,11.93-1.45,15.67-3.89a18.13,18.13,0,0,1,3.67-1.76q-1.93-.61-3.9-1.17c-.42.23-.84.46-1.21.71-3.33,2.16-8.65,3.46-14.23,3.46-5.1,0-10.26-1.16-13.47-3C183.14,69.21,177.6,68,172,68,165.9,68,160,69.4,156.3,71.84,153,74,147.67,75.3,142.1,75.3c-1.68.73-3.35,1.5-5,2.31a37,37,0,0,0,5,.34Z"/><path class="cls-1" d="M245,330.42c-3.64-2.12-9.18-3.38-14.81-3.38-6.07,0-11.92,1.45-15.66,3.89-3.33,2.17-8.65,3.46-14.23,3.46-5.1,0-10.26-1.15-13.47-3C183.14,329.25,177.6,328,172,328c-6.07,0-11.93,1.45-15.67,3.89-3.33,2.17-8.64,3.47-14.22,3.47-5.1,0-10.27-1.16-13.47-3a24.22,24.22,0,0,0-6.68-2.48,120.87,120.87,0,0,0,11.85,7.22,36.52,36.52,0,0,0,8.3.94c6.07,0,11.93-1.46,15.67-3.9,3.33-2.16,8.64-3.46,14.22-3.46,5.1,0,10.27,1.16,13.48,3,3.64,2.12,9.18,3.38,14.8,3.38,6.07,0,11.93-1.45,15.67-3.89,3.33-2.17,8.65-3.46,14.22-3.46,5.11,0,10.27,1.16,13.48,3,.38.22.8.43,1.23.64.91-.56,1.82-1.14,2.71-1.73a17.08,17.08,0,0,1-2.61-1.2Z"/><path class="cls-1" d="M303.12,219.44c-3.64-2.11-9.17-3.38-14.8-3.38-6.07,0-11.93,1.46-15.67,3.9-3.33,2.16-8.65,3.46-14.22,3.46-5.11,0-10.27-1.16-13.48-3-3.64-2.12-9.18-3.38-14.81-3.38-6.07,0-11.92,1.45-15.66,3.89-3.33,2.17-8.65,3.46-14.23,3.46-5.1,0-10.26-1.16-13.47-3C183.14,219.23,177.6,218,172,218c-6.07,0-11.93,1.45-15.67,3.89-3.33,2.17-8.64,3.47-14.22,3.47-5.1,0-10.27-1.16-13.47-3-3.65-2.12-9.18-3.38-14.81-3.38-6.07,0-11.93,1.46-15.67,3.89-3.33,2.17-8.65,3.47-14.22,3.47-5.11,0-10.27-1.16-13.48-3a25.71,25.71,0,0,0-8.21-2.8c.07.92.14,1.84.22,2.76a22.19,22.19,0,0,1,6.66,2.33c3.64,2.11,9.18,3.38,14.81,3.38,6.07,0,11.92-1.46,15.67-3.89,3.33-2.17,8.64-3.47,14.22-3.47,5.1,0,10.27,1.16,13.47,3,3.64,2.12,9.18,3.39,14.81,3.39,6.07,0,11.93-1.46,15.67-3.9,3.33-2.16,8.64-3.46,14.22-3.46,5.11,0,10.27,1.16,13.48,3,3.64,2.12,9.18,3.38,14.8,3.38,6.07,0,11.93-1.45,15.67-3.89,3.33-2.17,8.65-3.46,14.22-3.46,5.11,0,10.27,1.15,13.48,3,3.64,2.12,9.18,3.38,14.81,3.38,6.07,0,11.92-1.45,15.66-3.89,3.33-2.17,8.65-3.47,14.23-3.47,5.1,0,10.27,1.16,13.47,3a25.34,25.34,0,0,0,7.8,2.7c.09-.88.17-1.76.24-2.65a22.52,22.52,0,0,1-6.71-2.35Z"/><path class="cls-1" d="M101.86,103.82a30.44,30.44,0,0,1,11.94-2.26c5.1,0,10.27,1.15,13.47,3,3.64,2.11,9.18,3.38,14.81,3.38,6.07,0,11.93-1.46,15.67-3.9,3.33-2.16,8.64-3.46,14.22-3.46,5.11,0,10.27,1.16,13.48,3,3.64,2.12,9.17,3.38,14.8,3.38,6.07,0,11.93-1.45,15.67-3.89,3.33-2.17,8.65-3.46,14.22-3.46,5.11,0,10.27,1.16,13.48,3,3.64,2.12,9.18,3.38,14.81,3.38a34.19,34.19,0,0,0,12-2.08c-.66-.7-1.33-1.4-2-2.08a32.59,32.59,0,0,1-10,1.51c-5.11,0-10.27-1.16-13.48-3-3.64-2.12-9.18-3.38-14.81-3.38-6.07,0-11.92,1.45-15.66,3.89-3.33,2.17-8.65,3.46-14.23,3.46-5.1,0-10.26-1.15-13.47-3C183.14,99.21,177.6,98,172,98c-6.07,0-11.93,1.46-15.67,3.89-3.33,2.17-8.64,3.47-14.22,3.47-5.1,0-10.27-1.16-13.47-3-3.64-2.11-9.18-3.38-14.81-3.38a37.08,37.08,0,0,0-7.94.87q-2,2-4,4Z"/><path class="cls-1" d="M272.65,300c-3.33,2.17-8.65,3.47-14.22,3.47-5.11,0-10.27-1.16-13.48-3-3.64-2.12-9.18-3.38-14.81-3.38-6.07,0-11.92,1.46-15.66,3.9-3.33,2.16-8.65,3.46-14.23,3.46-5.1,0-10.26-1.16-13.47-3C183.14,299.25,177.6,298,172,298c-6.07,0-11.93,1.46-15.67,3.9-3.33,2.17-8.64,3.46-14.22,3.46-5.1,0-10.27-1.16-13.47-3-3.65-2.12-9.18-3.38-14.81-3.38-6.07,0-11.93,1.45-15.67,3.89a17.12,17.12,0,0,1-3.35,1.64c.58.72,1.17,1.44,1.77,2.15a18.33,18.33,0,0,0,3-1.57c3.33-2.17,8.64-3.46,14.22-3.46,5.1,0,10.27,1.16,13.47,3,3.64,2.12,9.18,3.38,14.81,3.38,6.07,0,11.93-1.45,15.67-3.89,3.33-2.17,8.64-3.47,14.22-3.47,5.1,0,10.27,1.16,13.48,3,3.64,2.11,9.18,3.38,14.8,3.38,6.07,0,11.93-1.46,15.67-3.89,3.33-2.17,8.65-3.47,14.22-3.47,5.11,0,10.27,1.16,13.48,3,3.64,2.12,9.18,3.39,14.81,3.39,6.07,0,11.92-1.46,15.66-3.9a21.65,21.65,0,0,1,7.15-2.73c.74-1,1.47-2,2.19-3.06A26.71,26.71,0,0,0,272.65,300Z"/><path class="cls-1" d="M99.58,115c3.32-2.17,8.64-3.46,14.22-3.46,5.1,0,10.27,1.15,13.47,3,3.64,2.12,9.18,3.38,14.81,3.38,6.07,0,11.93-1.46,15.67-3.89,3.33-2.17,8.64-3.47,14.22-3.47,5.11,0,10.27,1.16,13.48,3,3.64,2.11,9.17,3.38,14.8,3.38,6.07,0,11.93-1.46,15.67-3.9,3.33-2.16,8.65-3.46,14.22-3.46,5.11,0,10.27,1.16,13.48,3,3.64,2.12,9.18,3.38,14.81,3.38,6.07,0,11.92-1.45,15.66-3.89a17.58,17.58,0,0,1,2.45-1.28q-.87-1-1.77-2.1a18.47,18.47,0,0,0-2.12,1.16c-3.33,2.17-8.65,3.46-14.22,3.46-5.11,0-10.27-1.16-13.48-3-3.64-2.12-9.18-3.38-14.81-3.38-6.07,0-11.92,1.45-15.66,3.89-3.33,2.17-8.65,3.46-14.23,3.46-5.1,0-10.26-1.15-13.47-3C183.14,109.22,177.6,108,172,108c-6.07,0-11.93,1.46-15.67,3.89-3.33,2.17-8.64,3.47-14.22,3.47-5.1,0-10.27-1.16-13.47-3-3.64-2.12-9.18-3.38-14.81-3.38-6.07,0-11.93,1.45-15.67,3.89a20.33,20.33,0,0,1-6,2.46c-.79,1-1.56,2.11-2.33,3.17A25.69,25.69,0,0,0,99.58,115Z"/><path class="cls-1" d="M127.27,84.57c3.64,2.12,9.18,3.38,14.81,3.38,6.07,0,11.93-1.45,15.67-3.89,3.33-2.17,8.64-3.46,14.22-3.46,5.11,0,10.27,1.16,13.48,3,3.64,2.12,9.17,3.38,14.8,3.38,6.07,0,11.93-1.45,15.67-3.89,3.33-2.17,8.65-3.46,14.22-3.46,5.11,0,10.27,1.15,13.48,3a19.75,19.75,0,0,0,2.61,1.23,118.87,118.87,0,0,0-12-6.68,37.37,37.37,0,0,0-4.12-.23c-6.07,0-11.92,1.46-15.66,3.9-3.33,2.17-8.65,3.46-14.23,3.46-5.1,0-10.26-1.16-13.47-3C183.14,79.21,177.6,78,172,78,165.9,78,160,79.4,156.3,81.84,153,84,147.66,85.3,142.08,85.3c-5.1,0-10.27-1.15-13.47-3h0q-1.34.8-2.64,1.62c.47.22.92.44,1.33.68Z"/><path class="cls-1" d="M99.58,155c3.32-2.17,8.64-3.47,14.22-3.47,5.1,0,10.27,1.16,13.47,3,3.64,2.12,9.18,3.39,14.81,3.39,6.07,0,11.93-1.46,15.67-3.9,3.33-2.17,8.64-3.46,14.22-3.46,5.11,0,10.27,1.16,13.48,3,3.64,2.12,9.17,3.38,14.8,3.38,6.07,0,11.93-1.45,15.67-3.89,3.33-2.17,8.65-3.46,14.22-3.46,5.11,0,10.27,1.15,13.48,3,3.64,2.12,9.18,3.38,14.81,3.38,6.07,0,11.92-1.46,15.66-3.89,3.33-2.17,8.65-3.47,14.23-3.47a31.54,31.54,0,0,1,11.44,2.06c-.43-1.1-.87-2.2-1.32-3.29a35.86,35.86,0,0,0-10.12-1.42c-6.07,0-11.93,1.46-15.67,3.9-3.33,2.16-8.65,3.46-14.22,3.46-5.11,0-10.27-1.16-13.48-3-3.64-2.12-9.18-3.38-14.81-3.38-6.07,0-11.92,1.45-15.66,3.89-3.33,2.17-8.65,3.46-14.23,3.46-5.1,0-10.26-1.16-13.47-3C183.14,149.22,177.6,148,172,148c-6.07,0-11.93,1.45-15.67,3.89-3.33,2.17-8.64,3.46-14.22,3.46-5.1,0-10.27-1.15-13.47-3-3.64-2.12-9.18-3.38-14.81-3.38-6.07,0-11.93,1.46-15.67,3.89-3.33,2.17-8.64,3.47-14.22,3.47a29.92,29.92,0,0,1-12.62-2.59c-.31.84-.61,1.68-.91,2.52a32.75,32.75,0,0,0,13.53,2.72c6.07,0,11.93-1.46,15.67-3.89Z"/><path class="cls-1" d="M127.27,314.61c3.64,2.12,9.18,3.38,14.81,3.38,6.07,0,11.93-1.45,15.67-3.89,3.33-2.17,8.64-3.46,14.22-3.46,5.1,0,10.27,1.16,13.48,3,3.64,2.12,9.18,3.38,14.8,3.38,6.07,0,11.93-1.45,15.67-3.89,3.33-2.17,8.65-3.47,14.22-3.47,5.11,0,10.27,1.16,13.48,3,3.64,2.11,9.18,3.38,14.81,3.38a35.58,35.58,0,0,0,9.73-1.33q2.34-2.36,4.57-4.83l-.08,0c-3.33,2.17-8.65,3.47-14.22,3.47-5.11,0-10.27-1.16-13.48-3-3.64-2.11-9.18-3.38-14.81-3.38-6.07,0-11.92,1.46-15.66,3.9-3.33,2.17-8.65,3.46-14.23,3.46-5.1,0-10.26-1.16-13.47-3C183.14,309.25,177.6,308,172,308c-6.07,0-11.93,1.45-15.67,3.89-3.33,2.17-8.64,3.46-14.22,3.46-5.1,0-10.27-1.16-13.47-3-3.65-2.12-9.18-3.38-14.81-3.38a33.19,33.19,0,0,0-13,2.49c.64.69,1.29,1.38,1.94,2.06a31.34,31.34,0,0,1,11.07-1.9c5.1,0,10.27,1.16,13.47,3Z"/><path class="cls-1" d="M272.65,139.94c-3.33,2.17-8.65,3.47-14.22,3.47-5.11,0-10.27-1.16-13.48-3-3.64-2.11-9.18-3.38-14.81-3.38-6.07,0-11.92,1.46-15.66,3.9-3.33,2.16-8.65,3.46-14.23,3.46-5.1,0-10.26-1.16-13.47-3C183.14,139.22,177.6,138,172,138c-6.07,0-11.93,1.45-15.67,3.89-3.33,2.17-8.64,3.46-14.22,3.46-5.1,0-10.27-1.16-13.47-3-3.64-2.12-9.18-3.38-14.81-3.38-6.07,0-11.93,1.45-15.67,3.89-3.33,2.17-8.64,3.46-14.22,3.46A33.83,33.83,0,0,1,74.76,145c-.36.81-.71,1.63-1.05,2.45a35.6,35.6,0,0,0,10.2,1.45c6.07,0,11.93-1.46,15.67-3.9,3.32-2.16,8.64-3.46,14.22-3.46,5.1,0,10.27,1.16,13.47,3,3.64,2.12,9.18,3.38,14.81,3.38,6.07,0,11.93-1.45,15.67-3.89,3.33-2.17,8.64-3.46,14.22-3.46,5.11,0,10.27,1.16,13.48,3,3.64,2.12,9.17,3.38,14.8,3.38,6.07,0,11.93-1.45,15.67-3.89,3.33-2.17,8.65-3.46,14.22-3.46,5.11,0,10.27,1.15,13.48,3,3.64,2.11,9.18,3.38,14.81,3.38,6.07,0,11.92-1.46,15.66-3.89,3.33-2.17,8.65-3.47,14.23-3.47a34.81,34.81,0,0,1,6.44.62c-.48-1-1-2-1.47-2.93a38.76,38.76,0,0,0-5-.34c-6.07,0-11.93,1.46-15.67,3.89Z"/><path class="cls-1" d="M258.43,123.4c-5.11,0-10.27-1.15-13.48-3-3.64-2.12-9.18-3.38-14.81-3.38-6.07,0-11.92,1.46-15.66,3.89-3.33,2.17-8.65,3.47-14.23,3.47-5.1,0-10.26-1.16-13.47-3C183.14,119.22,177.6,118,172,118c-6.07,0-11.93,1.46-15.67,3.9-3.33,2.16-8.64,3.46-14.22,3.46-5.1,0-10.27-1.16-13.47-3-3.64-2.12-9.18-3.38-14.81-3.38-6.07,0-11.93,1.45-15.67,3.89-3.19,2.08-8.21,3.34-13.53,3.44-.54.88-1.08,1.76-1.6,2.65l.91,0c6.07,0,11.93-1.45,15.67-3.89,3.32-2.17,8.64-3.46,14.22-3.46,5.1,0,10.27,1.16,13.47,3,3.64,2.12,9.18,3.38,14.81,3.38,6.07,0,11.93-1.45,15.67-3.89,3.33-2.17,8.64-3.46,14.22-3.46,5.11,0,10.27,1.15,13.48,3,3.64,2.11,9.17,3.38,14.8,3.38,6.07,0,11.93-1.46,15.67-3.9,3.33-2.16,8.65-3.46,14.22-3.46,5.11,0,10.27,1.16,13.48,3,3.64,2.12,9.18,3.38,14.81,3.38,6.07,0,11.92-1.45,15.66-3.89a22.87,22.87,0,0,1,8.75-3c-.57-.8-1.14-1.6-1.72-2.38a24.42,24.42,0,0,0-8.47,3.18c-3.33,2.17-8.65,3.46-14.22,3.46Z"/><path class="cls-1" d="M230.14,87c-6.07,0-11.92,1.45-15.66,3.89-3.33,2.17-8.65,3.46-14.23,3.46-5.1,0-10.26-1.16-13.47-3C183.14,89.21,177.6,88,172,88,165.9,88,160,89.4,156.3,91.84,153,94,147.66,95.3,142.08,95.3c-5.1,0-10.27-1.15-13.47-3a27.75,27.75,0,0,0-10.33-3.1c-1,.78-2.09,1.59-3.12,2.41,4.64.19,9.19,1.29,12.11,3,3.64,2.11,9.18,3.38,14.81,3.38,6.07,0,11.93-1.46,15.67-3.9,3.33-2.17,8.64-3.46,14.22-3.46,5.11,0,10.27,1.16,13.48,3,3.64,2.12,9.17,3.38,14.8,3.38,6.07,0,11.93-1.45,15.67-3.89,3.33-2.17,8.65-3.46,14.22-3.46,5.11,0,10.27,1.16,13.48,3,3.64,2.12,9.18,3.38,14.81,3.38a36.34,36.34,0,0,0,3.64-.19c-.95-.84-1.91-1.67-2.89-2.48l-.75,0c-5.11,0-10.27-1.16-13.48-3-3.64-2.12-9.18-3.38-14.81-3.38Z"/><path class="cls-1" d="M172,348a36.84,36.84,0,0,0-5.81.47,109,109,0,0,0,18.32,1.81A33.66,33.66,0,0,0,172,348Z"/><path class="cls-1" d="M142.08,328c6.07,0,11.93-1.46,15.67-3.9,3.33-2.17,8.64-3.46,14.22-3.46,5.1,0,10.27,1.16,13.48,3,3.64,2.12,9.18,3.38,14.8,3.38,6.07,0,11.93-1.45,15.67-3.89,3.33-2.17,8.65-3.46,14.22-3.46,5.11,0,10.27,1.15,13.48,3a29,29,0,0,0,11.9,3.25c1.06-.82,2.11-1.67,3.15-2.53h-.24c-5.11,0-10.27-1.16-13.48-3-3.64-2.12-9.18-3.38-14.81-3.38-6.07,0-11.92,1.45-15.66,3.89-3.33,2.17-8.65,3.46-14.23,3.46-5.1,0-10.26-1.16-13.47-3C183.14,319.25,177.6,318,172,318c-6.07,0-11.93,1.45-15.67,3.89-3.33,2.17-8.64,3.47-14.22,3.47-5.1,0-10.27-1.16-13.47-3-3.65-2.12-9.18-3.38-14.81-3.38a36.82,36.82,0,0,0-5.08.36c.88.8,1.78,1.6,2.68,2.38.79-.05,1.59-.09,2.4-.09,5.1,0,10.27,1.16,13.47,3,3.64,2.12,9.18,3.39,14.81,3.39Z"/><path class="cls-1" d="M200,67q-3.36-.43-6.76-.66A36.29,36.29,0,0,0,200,67Z"/><path class="cls-1" d="M258.43,133.4c-5.11,0-10.27-1.15-13.48-3-3.64-2.11-9.18-3.38-14.81-3.38-6.07,0-11.92,1.46-15.66,3.9-3.33,2.16-8.65,3.46-14.23,3.46-5.1,0-10.26-1.16-13.47-3C183.14,129.22,177.6,128,172,128c-6.07,0-11.93,1.45-15.67,3.89-3.33,2.17-8.64,3.46-14.22,3.46-5.1,0-10.27-1.16-13.47-3-3.64-2.12-9.18-3.38-14.81-3.38-6.07,0-11.93,1.45-15.67,3.89-3.33,2.17-8.64,3.46-14.22,3.46a34.55,34.55,0,0,1-4.8-.34c-.43.83-.86,1.66-1.28,2.5a37.89,37.89,0,0,0,6.08.49c6.07,0,11.93-1.45,15.67-3.89,3.32-2.17,8.64-3.46,14.22-3.46,5.1,0,10.27,1.16,13.47,3,3.64,2.12,9.18,3.38,14.81,3.38,6.07,0,11.93-1.45,15.67-3.89,3.33-2.17,8.64-3.46,14.22-3.46,5.11,0,10.27,1.15,13.48,3,3.64,2.12,9.17,3.38,14.8,3.38,6.07,0,11.93-1.46,15.67-3.89,3.33-2.17,8.65-3.47,14.22-3.47,5.11,0,10.27,1.16,13.48,3,3.64,2.11,9.18,3.38,14.81,3.38,6.07,0,11.92-1.46,15.66-3.9,3.33-2.16,8.65-3.46,14.23-3.46l.74,0c-.53-.89-1.06-1.77-1.61-2.64-5.75.13-11.24,1.54-14.8,3.86-3.33,2.17-8.65,3.46-14.22,3.46Z"/><path class="cls-1" d="M303.12,179.44c-3.64-2.12-9.17-3.38-14.8-3.38-6.07,0-11.93,1.45-15.67,3.89-3.33,2.17-8.65,3.46-14.22,3.46-5.11,0-10.27-1.16-13.48-3-3.64-2.12-9.18-3.38-14.81-3.38-6.07,0-11.92,1.46-15.66,3.89-3.33,2.17-8.65,3.47-14.23,3.47-5.1,0-10.26-1.16-13.47-3C183.14,179.23,177.6,178,172,178c-6.07,0-11.93,1.46-15.67,3.9-3.33,2.16-8.64,3.46-14.22,3.46-5.1,0-10.27-1.16-13.47-3-3.64-2.12-9.18-3.38-14.81-3.38-6.07,0-11.93,1.45-15.67,3.89-3.33,2.17-8.64,3.46-14.22,3.46-5.11,0-10.27-1.16-13.48-3a23.56,23.56,0,0,0-6.36-2.41c-.15.88-.29,1.75-.43,2.64a21,21,0,0,1,5.46,2.06c3.64,2.12,9.18,3.38,14.81,3.38,6.07,0,11.93-1.45,15.67-3.89,3.32-2.17,8.64-3.46,14.22-3.46,5.1,0,10.27,1.15,13.47,3,3.64,2.12,9.18,3.38,14.81,3.38,6.07,0,11.93-1.46,15.67-3.89,3.33-2.17,8.64-3.47,14.22-3.47,5.11,0,10.27,1.16,13.48,3,3.64,2.11,9.17,3.38,14.8,3.38,6.07,0,11.93-1.46,15.67-3.9,3.33-2.16,8.65-3.46,14.22-3.46,5.11,0,10.27,1.16,13.48,3,3.64,2.12,9.18,3.38,14.81,3.38,6.07,0,11.92-1.45,15.66-3.89,3.33-2.17,8.65-3.46,14.23-3.46,5.1,0,10.27,1.16,13.47,3a24.26,24.26,0,0,0,6.84,2.52c-.15-.95-.3-1.9-.46-2.85a20.86,20.86,0,0,1-5.05-2Z"/><path class="cls-1" d="M303.12,189.44c-3.64-2.12-9.17-3.38-14.8-3.38-6.07,0-11.93,1.45-15.67,3.89-3.33,2.17-8.65,3.46-14.22,3.46-5.11,0-10.27-1.15-13.48-3-3.64-2.11-9.18-3.38-14.81-3.38-6.07,0-11.92,1.46-15.66,3.89-3.33,2.17-8.65,3.47-14.23,3.47-5.1,0-10.26-1.16-13.47-3C183.14,189.23,177.6,188,172,188c-6.07,0-11.93,1.46-15.67,3.9-3.33,2.17-8.64,3.46-14.22,3.46-5.1,0-10.27-1.16-13.47-3-3.64-2.12-9.18-3.38-14.81-3.38-6.07,0-11.93,1.45-15.67,3.89-3.33,2.17-8.64,3.46-14.22,3.46-5.11,0-10.27-1.16-13.48-3a25.18,25.18,0,0,0-7.72-2.69c-.1.88-.19,1.76-.27,2.65a22.47,22.47,0,0,1,6.66,2.33c3.64,2.12,9.18,3.38,14.81,3.38,6.07,0,11.93-1.45,15.67-3.89,3.32-2.17,8.64-3.46,14.22-3.46,5.1,0,10.27,1.16,13.47,3,3.64,2.12,9.18,3.38,14.81,3.38,6.07,0,11.93-1.45,15.67-3.89,3.33-2.17,8.64-3.46,14.22-3.46,5.11,0,10.27,1.15,13.48,3,3.64,2.11,9.17,3.38,14.8,3.38,6.07,0,11.93-1.46,15.67-3.89,3.33-2.17,8.65-3.47,14.22-3.47,5.11,0,10.27,1.16,13.48,3,3.64,2.12,9.18,3.39,14.81,3.39,6.07,0,11.92-1.46,15.66-3.9,3.33-2.17,8.65-3.46,14.23-3.46,5.1,0,10.27,1.16,13.47,3a25.43,25.43,0,0,0,8,2.76c-.07-.93-.16-1.84-.26-2.76a22.05,22.05,0,0,1-6.44-2.29Z"/><path class="cls-1" d="M303.12,199.44c-3.64-2.12-9.17-3.38-14.8-3.38-6.07,0-11.93,1.46-15.67,3.89-3.33,2.17-8.65,3.47-14.22,3.47-5.11,0-10.27-1.16-13.48-3-3.64-2.11-9.18-3.38-14.81-3.38-6.07,0-11.92,1.46-15.66,3.9-3.33,2.16-8.65,3.46-14.23,3.46-5.1,0-10.26-1.16-13.47-3C183.14,199.23,177.6,198,172,198c-6.07,0-11.93,1.45-15.67,3.89-3.33,2.17-8.64,3.46-14.22,3.46-5.1,0-10.27-1.16-13.47-3-3.64-2.12-9.18-3.38-14.81-3.38-6.07,0-11.93,1.45-15.67,3.89-3.33,2.17-8.64,3.46-14.22,3.46-5.11,0-10.27-1.15-13.48-3a26.15,26.15,0,0,0-8.49-2.85c0,.9-.08,1.8-.1,2.69a23.33,23.33,0,0,1,7.26,2.45c3.64,2.12,9.18,3.39,14.81,3.39,6.07,0,11.93-1.46,15.67-3.9,3.32-2.17,8.64-3.46,14.22-3.46,5.1,0,10.27,1.16,13.47,3,3.64,2.12,9.18,3.38,14.81,3.38,6.07,0,11.93-1.45,15.67-3.89,3.33-2.17,8.64-3.46,14.22-3.46,5.11,0,10.27,1.15,13.48,3,3.64,2.12,9.17,3.38,14.8,3.38,6.07,0,11.93-1.46,15.67-3.89,3.33-2.17,8.65-3.47,14.22-3.47,5.11,0,10.27,1.16,13.48,3,3.64,2.11,9.18,3.38,14.81,3.38,6.07,0,11.92-1.46,15.66-3.9,3.33-2.16,8.65-3.46,14.23-3.46,5.1,0,10.27,1.16,13.47,3a26.07,26.07,0,0,0,8.58,2.87c0-.92-.06-1.82-.09-2.73a23.12,23.12,0,0,1-7.16-2.43Z"/><path class="cls-1" d="M303.12,209.44c-3.64-2.11-9.17-3.38-14.8-3.38-6.07,0-11.93,1.46-15.67,3.89-3.33,2.17-8.65,3.47-14.22,3.47-5.11,0-10.27-1.16-13.48-3-3.64-2.12-9.18-3.39-14.81-3.39-6.07,0-11.92,1.46-15.66,3.9-3.33,2.17-8.65,3.46-14.23,3.46-5.1,0-10.26-1.16-13.47-3C183.14,209.23,177.6,208,172,208c-6.07,0-11.93,1.45-15.67,3.89-3.33,2.17-8.64,3.46-14.22,3.46-5.1,0-10.27-1.16-13.47-3-3.65-2.12-9.18-3.38-14.81-3.38-6.07,0-11.93,1.45-15.67,3.89-3.33,2.17-8.64,3.46-14.22,3.46-5.11,0-10.27-1.15-13.48-3a25.94,25.94,0,0,0-8.66-2.87c0,.9,0,1.81.06,2.71a23.13,23.13,0,0,1,7.27,2.46c3.64,2.11,9.18,3.38,14.81,3.38,6.07,0,11.93-1.46,15.67-3.9,3.33-2.16,8.64-3.46,14.22-3.46,5.1,0,10.27,1.16,13.47,3,3.65,2.12,9.18,3.38,14.81,3.38,6.07,0,11.93-1.45,15.67-3.89,3.33-2.17,8.64-3.46,14.22-3.46,5.11,0,10.27,1.16,13.48,3,3.64,2.12,9.17,3.38,14.8,3.38,6.07,0,11.93-1.45,15.67-3.89,3.33-2.17,8.65-3.46,14.22-3.46,5.11,0,10.27,1.15,13.48,3,3.64,2.11,9.18,3.38,14.81,3.38,6.07,0,11.92-1.46,15.66-3.89,3.33-2.17,8.65-3.47,14.23-3.47,5.1,0,10.27,1.16,13.47,3a25.93,25.93,0,0,0,8.48,2.85c0-.9.07-1.79.09-2.69a23.29,23.29,0,0,1-7.24-2.45Z"/><path class="cls-1" d="M288.32,156.05c-6.07,0-11.93,1.46-15.67,3.9-3.33,2.17-8.65,3.46-14.22,3.46-5.11,0-10.27-1.16-13.48-3-3.64-2.12-9.18-3.38-14.81-3.38-6.07,0-11.92,1.45-15.66,3.89-3.33,2.17-8.65,3.46-14.23,3.46-5.1,0-10.26-1.16-13.47-3C183.14,159.22,177.6,158,172,158c-6.07,0-11.93,1.46-15.67,3.89-3.33,2.17-8.64,3.46-14.22,3.46-5.1,0-10.27-1.15-13.47-3-3.64-2.11-9.18-3.38-14.81-3.38-6.07,0-11.93,1.46-15.67,3.9-3.33,2.16-8.64,3.46-14.22,3.46-5.11,0-10.27-1.16-13.48-3a18.62,18.62,0,0,0-2-1c-.25.85-.5,1.71-.74,2.56.5.23,1,.47,1.41.72,3.64,2.12,9.18,3.38,14.81,3.38,6.07,0,11.93-1.46,15.67-3.89,3.32-2.17,8.64-3.47,14.22-3.47,5.1,0,10.27,1.16,13.47,3,3.64,2.11,9.18,3.38,14.81,3.38,6.07,0,11.93-1.46,15.67-3.9,3.33-2.16,8.64-3.46,14.22-3.46,5.11,0,10.27,1.16,13.48,3,3.64,2.12,9.17,3.38,14.8,3.38,6.07,0,11.93-1.45,15.67-3.89,3.33-2.17,8.65-3.46,14.22-3.46,5.11,0,10.27,1.16,13.48,3,3.64,2.12,9.18,3.38,14.81,3.38,6.07,0,11.92-1.45,15.66-3.89,3.33-2.17,8.65-3.46,14.23-3.46,5.1,0,10.27,1.15,13.47,3a19.16,19.16,0,0,0,2.08,1q-.53-1.76-1.08-3.48c-3.64-2-9-3.21-14.47-3.21Z"/><path class="cls-1" d="M303.12,169.44c-3.64-2.12-9.17-3.38-14.8-3.38-6.07,0-11.93,1.45-15.67,3.89-3.33,2.17-8.65,3.46-14.22,3.46-5.11,0-10.27-1.16-13.48-3-3.64-2.12-9.18-3.38-14.81-3.38-6.07,0-11.92,1.45-15.66,3.89-3.33,2.17-8.65,3.46-14.23,3.46-5.1,0-10.26-1.15-13.47-3C183.14,169.22,177.6,168,172,168c-6.07,0-11.93,1.46-15.67,3.89-3.33,2.17-8.64,3.47-14.22,3.47-5.1,0-10.27-1.16-13.47-3-3.64-2.12-9.18-3.39-14.81-3.39-6.07,0-11.93,1.46-15.67,3.9-3.33,2.17-8.64,3.46-14.22,3.46-5.11,0-10.27-1.16-13.48-3A21.47,21.47,0,0,0,66,171.37c-.2.86-.4,1.73-.59,2.6a18.28,18.28,0,0,1,3.69,1.57c3.64,2.12,9.18,3.38,14.81,3.38,6.07,0,11.93-1.45,15.67-3.89,3.32-2.17,8.64-3.46,14.22-3.46,5.1,0,10.27,1.15,13.47,3,3.64,2.11,9.18,3.38,14.81,3.38,6.07,0,11.93-1.46,15.67-3.89,3.33-2.17,8.64-3.47,14.22-3.47,5.11,0,10.27,1.16,13.48,3,3.64,2.12,9.17,3.39,14.8,3.39,6.07,0,11.93-1.46,15.67-3.9,3.33-2.17,8.65-3.46,14.22-3.46,5.11,0,10.27,1.16,13.48,3,3.64,2.12,9.18,3.38,14.81,3.38,6.07,0,11.92-1.45,15.66-3.89,3.33-2.17,8.65-3.46,14.23-3.46,5.1,0,10.27,1.15,13.47,3a22.16,22.16,0,0,0,4.91,2c-.22-1-.46-2-.7-3a18.33,18.33,0,0,1-2.88-1.3Z"/><path class="cls-1" d="M65.89,317.57a9.11,9.11,0,0,1,4.54-1.81c.91,0,1.59.22,2.5.22.91.23,1.59.46,2.5.69s1.59.68,2.49.9c1.82.91,6.36,3.41,6.36,3.41l3.64-3.18a.84.84,0,0,0,.45-.23.69.69,0,0,0-.24-.45c0-.23-.21-.45-.44-.68l2-1.59,5,5.67-1.82,1.82-.68-.68c-.22,0-.22-.22-.45-.22a.22.22,0,0,0-.22.22h-.24L75.2,335.27l-.46.46a11.26,11.26,0,0,0,.69,1.14l-2.05,1.59s-6.13-7.27-7-8.4c-.22-.46-.45-1.14-.67-1.59a14.31,14.31,0,0,1-1.82-3.18,5.11,5.11,0,0,1-.22-1.81,2.47,2.47,0,0,1,0-1.82A7.35,7.35,0,0,1,65.21,318l.68-.46Zm3.63,3.64a9.1,9.1,0,0,0-1.13,1.59,4.49,4.49,0,0,0-.22,1.81c0,1.64,1.07,2.4,1.58,3.4.91,1.14,2.27,2.73,2.27,2.73l.23.23,8.63-7.27s-3.18-1.59-6.14-2.95c-.9-.23-1.59-.23-2.49-.45a3.59,3.59,0,0,0-2.73.91ZM53.19,283.07a15.27,15.27,0,0,1,2.71-1.36l2.73-.68h2.72a16.08,16.08,0,0,1,2.95.45,12.22,12.22,0,0,1,4.54,2.73,17.06,17.06,0,0,1,2,2A11,11,0,0,1,72.7,289a15.1,15.1,0,0,1,2,8.39,10,10,0,0,1-1.59,5.22,12.83,12.83,0,0,1-1.36,2.5,17.54,17.54,0,0,1-4.54,3.63,14.2,14.2,0,0,1-5.9,2,23.06,23.06,0,0,1-5.67-.68c-.9-.45-1.58-.68-2.49-1.14a53.38,53.38,0,0,1-4.09-3.62c-.45-.91-1.14-1.59-1.59-2.5a17.86,17.86,0,0,1-1.82-5.22c0-.68-.22-1.59-.22-2.5a13.1,13.1,0,0,1,.45-3,11.55,11.55,0,0,1,2.5-5,14.14,14.14,0,0,1,4.77-4.09Zm2.71,4.77a9,9,0,0,0-2.94,2c-1.29,1-2,2.55-2.72,4.08a8.49,8.49,0,0,0-.46,3.41c.23.46.23.91.46,1.36a2.56,2.56,0,0,1,.22,1.14,5.17,5.17,0,0,0,.68,1.14,8.09,8.09,0,0,0,3.64,3.63c1.16.78,2.58.9,4.77.9,2.62,0,6.09-1.78,8.38-4.08a6.84,6.84,0,0,0,1.14-1.59,5.88,5.88,0,0,0,.91-1.59,5.52,5.52,0,0,0,.45-1.82,4.79,4.79,0,0,0,0-1.81,9.07,9.07,0,0,0-1.14-3.86c-.45-.69-.9-1.37-1.12-1.81a10.82,10.82,0,0,0-1.6-1.37,6,6,0,0,0-2.94-1.36,10.94,10.94,0,0,0-3.87,0c-1.35.46-2.94.67-3.86,1.59ZM33,253.1l5.45,3.18-1.37,2.27c-.22,0-.45-.22-.68-.22h-.45c-.23,0-.23.22-.46.22,0,.23-.22.46-.22.68s-.23.46-.23.69v2.5c0,.45.23,1.13.23,1.59a12.57,12.57,0,0,0,2,3.86c.45.45,1.14.9,1.59,1.36a7.49,7.49,0,0,0,7.27.9,11.25,11.25,0,0,0,5.9-3.63,16.69,16.69,0,0,0,1.59-2.72,15.84,15.84,0,0,0,1.14-2.95,11.54,11.54,0,0,0-.23-5.68c0-.45-.23-.68-.23-.9-.22-.23-.22-.46-.45-.69s-.23-.46-.46-.67-.45-.23-.45-.46a.83.83,0,0,1-.68-.23H50.91l-.67-2.49,6.12-1.59c.92,2.49,1.59,4.54,2,5.9v.23l.23.22c0,.23.23.68.23.91v.68a8.33,8.33,0,0,1,.46,2.27v2.5a18.26,18.26,0,0,1-1.15,4.76,15.09,15.09,0,0,1-2.27,4.31,21.73,21.73,0,0,1-3.39,3.18,19.77,19.77,0,0,1-4.32,2.27,15.94,15.94,0,0,1-5.68.23,10,10,0,0,1-4.77-2,15.2,15.2,0,0,1-6.8-14.08c0-2.09.83-3.94,2-6.36Zm-5-33.59,5,4.1-1.81,2a.82.82,0,0,0-.68-.24c0-.22-.24-.22-.46-.22l-.23.22a.49.49,0,0,0-.45.46c-.24.23-.24.45-.45.91-.23.68-.23,1.59-.46,2.27a3.84,3.84,0,0,0,.23,1.59,9.17,9.17,0,0,0,1.13,4.09c.45.68.9,1.12,1.37,1.81A4.83,4.83,0,0,0,33,237.68a7.8,7.8,0,0,0,5.22.91,12.29,12.29,0,0,0,6.36-2.5,19.49,19.49,0,0,0,2-2.5,10,10,0,0,0,2.27-5.68,10.88,10.88,0,0,0,.23-2.72c0-.23-.23-.46-.23-.91,0-.23-.22-.46-.22-.67-.23-.46-.23-.68-.46-.68a.5.5,0,0,0-.45-.47c0-.23-.23-.23-.68-.45a4.68,4.68,0,0,0-1.14-.23l-.23-2.49,6.36-.68a48.89,48.89,0,0,1,.91,6.12l.23.23v4.31c-.23.91-.23,1.6-.46,2.28a25.91,25.91,0,0,1-1.82,4.54,17.71,17.71,0,0,1-3.17,3.85A15.25,15.25,0,0,1,39.11,244c-3.44.43-7.1-1-10-3.41a15.94,15.94,0,0,1-2.94-4.53A15.42,15.42,0,0,1,28,219.51Zm24.74-33.36-.45,7.94-2.73-.23v-1.14l-.22-.21h-.46l-13.62-.92,10.9,14.31H48c.23.22.46,0,.69,0v-.47c.22-.22.22-.45.22-.9l2.73.22-.69,7.95-2.49-.23c0-.45-.23-.68-.23-.9v-.23c0-.23-.23-.23-.45-.23l-21.12-1.59H26.4c-.23,0-.23,0-.23.23L26,210a1.68,1.68,0,0,1-.23.9H23.23l.44-7.94,2.73.23c0,.68,0,1.13.22,1.36h.45l13.4.9-10.9-14.29H28c-.23-.22-.46,0-.68,0a3.76,3.76,0,0,1-.24,1.13H24.36l.67-7.94,2.5.23a3.92,3.92,0,0,1,.23,1.36h.68l20.89,1.36a.22.22,0,0,0,.22.22.22.22,0,0,0,.23-.22c.23,0,.23-.23.23-.45a.83.83,0,0,0,.23-.68ZM26.4,155.28c.22,0,.67.23.91.23.22.21.68.45.9.67a15.21,15.21,0,0,1,1.36,2.72,13.43,13.43,0,0,1-.22,3A8,8,0,0,1,28,164.58a4.43,4.43,0,0,1-2.5,1.36c-.46,0-.68.23-.91.23-.45,0-.67-.23-1.13-.23a1.73,1.73,0,0,1-.91-.45c-.47-.48-.89-1.39-.46-1.82,0-.68.46-.91.92-1.13a.68.68,0,0,0,.45-.23h.22a3,3,0,0,0,1.82-.45,1.79,1.79,0,0,0,.91-.91v-.68a.8.8,0,0,1-.23-.46c-.22-.45-.68-.68-1.36-1.13l-.68-.68c-.22-.23-.22-.91-.22-1.37,0-.22,0-.45.22-.45,0-.22,0-.46.23-.46a1.2,1.2,0,0,1,.9-.44,1,1,0,0,1,1.14,0Zm33.36,1.13-2,7.72-2.49-.68v-1.37c0-.22-.23-.22-.45-.22l-13.4-3.63,7.95,16.11,2,.46c.23.22.23.22.45.22,0-.22,0-.22.23-.45,0-.23.23-.46.23-.91l2.72.68-2,7.72-2.72-.68a1.77,1.77,0,0,0,.22-.91V180h-.22a.23.23,0,0,0-.23-.23l-20.66-5.45H28.9c-.23,0-.23.23-.46.46,0,.22-.23.46-.23.67l-2.49-.67,2-7.72,2.49.68v1.36c0,.22.24.22.45.22L43.88,173l-8-16.35-1.59-.22a1.77,1.77,0,0,0-.68-.23c0,.23-.23.45-.68,1.36l-2.49-.68,2-7.71,2.49.68v1.36a.68.68,0,0,1,.45.23l20.66,5.44h.46a.23.23,0,0,0,.23-.23c0-.22.23-.45.46-.91l2.48.69ZM50,118.94l2,5.91-2.5.91a.49.49,0,0,0-.45-.46.76.76,0,0,0-.23-.45h-.45a.84.84,0,0,0-.68.22c-.23,0-.46.23-.68.46a11.77,11.77,0,0,0-1.59,1.82l-.69,1.36A13.49,13.49,0,0,0,43.65,133c0,.68.23,1.37.23,2,.22.68.68,1.36.9,2a10.39,10.39,0,0,0,4.09,3.41,12.08,12.08,0,0,0,6.81,1.13,11.24,11.24,0,0,0,3-1.13,5.48,5.48,0,0,0,2.72-1.59,10.16,10.16,0,0,0,2.28-2.05A4.88,4.88,0,0,0,65,134.61c.22-.22.22-.45.44-.68,0-.68.24-1.36.24-1.82a.79.79,0,0,0-.24-.45c0-.23-.22-.45-.44-.68,0-.23-.46-.46-.69-.91l.91-2.27,5.45,2.72c-.91,2.5-1.59,4.55-2,5.91l-.22.23a4.12,4.12,0,0,0-.46,1.13l-.45.46c-.23.45-.23.68-.46,1.13a3.34,3.34,0,0,0-.9.91A8.6,8.6,0,0,1,65,142.11a19.25,19.25,0,0,1-4.09,2.95,16.4,16.4,0,0,1-9.3,1.82,12.67,12.67,0,0,1-4.77-1.37,10.94,10.94,0,0,1-6.59-7.94,14.48,14.48,0,0,1-.45-5.46,19.85,19.85,0,0,1,1.36-5.22,12.63,12.63,0,0,1,3.18-4.54,8.05,8.05,0,0,1,2.27-1.59A12.3,12.3,0,0,1,50,118.94Zm37.91-14.51L83.15,111l-2.05-1.59.23-.46a.68.68,0,0,0,.23-.45.22.22,0,0,1,.22.23l-15-1.36.45,5.44,7,5a.71.71,0,0,0,.45.22c.23,0,.46-.45,1.14-.9l2,1.6-4.54,6.34-2-1.36c0-.23.23-.45.23-.91.22-.22.22-.22.22-.45h-.22c0-.23,0-.23-.23-.23l-17-12.25h-.68l-.68.68-2.27-1.36,4.54-6.58,2.26,1.59c-.21.23-.21.45-.44.68,0,.23-.23.23-.23.45.23,0,.23.23.46.46l5.66,3.85L62,97.16h.46v.23a.23.23,0,0,0-.23.23,3,3,0,0,0-.68.9l-2.26-1.58,5.21-7.49,2,1.58a2,2,0,0,0-.68,1.36c0,.46.45,10,.45,10l17.49,1.36a2.14,2.14,0,0,0,2-.9l2,1.59ZM110.15,82l-5.67,5.67-1.82-2,.68-.69c0-.22.23-.22.23-.45a.23.23,0,0,1-.23-.23l-9.75-10L92,92.17l1.36,1.36a.7.7,0,0,0,.45.23c.24,0,.24,0,.46-.23.23,0,.45-.23.68-.46l1.81,1.82-5.67,5.67-1.81-2c.45-.23.45-.45.68-.68v-.22c.22-.23,0-.23-.23-.46L75,81.73s-.23-.23-.23,0h-.45c0,.23-.23.23-.68.68l-1.82-2,5.68-5.45,1.82,1.81a3.45,3.45,0,0,0-.68,1.36l9.52,10,1.6-17.93-1.6-1.59s-.44.23-1.12.68l-1.82-1.82L90.87,62l1.81,1.82A9.39,9.39,0,0,0,92,64.93a.73.73,0,0,0,.22.46L107,80.59v.23h.22a.82.82,0,0,0,.68-.23c.23-.22.46-.22.46-.46L110.15,82Zm3.64-40c.23.23.23.68.45.91,0,.46.23.68.23,1.14a6.23,6.23,0,0,1-.91,2.72,7.06,7.06,0,0,1-5.22,2.95,6.16,6.16,0,0,1-2.73-.68c-.22-.22-.68-.45-.91-.68a13.42,13.42,0,0,1-.9-1.82c0-.22.22-.68.22-.9.23-.46.46-.69.68-.69a1.43,1.43,0,0,1,1.59-.22.81.81,0,0,0,.46.22.23.23,0,0,0,.23.23c.68.46,1.13.91,1.59.91a1,1,0,0,0,1.13,0c.23-.23.45-.23.45-.45.23-.23.23-.23.23-.46V42.46a1.26,1.26,0,0,1,.68-1.14.71.71,0,0,1,.46-.23.84.84,0,0,1,.68-.22c.23,0,.45.22.91.45.22,0,.45.46.68.68Zm22.92,24.52-7,3.86-1.36-2.27c.46-.23.69-.46.91-.46,0-.23.22-.23.22-.45a.73.73,0,0,0-.22-.46l-6.8-12-5.91,17,1.14,1.82c0,.22,0,.22.23.45a.7.7,0,0,0,.45-.23,2.35,2.35,0,0,0,.91-.22l1.13,2.26-6.81,3.86-1.36-2.27c.45-.22.68-.45.91-.45,0-.23.22-.23.22-.45v-.23c-.22,0-.22,0-.22-.23L102.43,57.67v-.23a.22.22,0,0,1-.22-.23.82.82,0,0,0-.68.23c-.23,0-.46.23-.69.23L99.49,55.4l6.8-4.09,1.37,2.27c-.23.45-.46.68-.68.68-.23.23-.23.23-.23.46a.7.7,0,0,0,.23.45L113.79,67l5.68-17.25-.91-1.36a.49.49,0,0,0-.46-.46,9.24,9.24,0,0,1-1.13.46l-1.36-2.27,7-4.09,1.13,2.5c-.23.23-.46.23-.69.45a.22.22,0,0,0-.22.23v.46l.22.22,10.68,18.39v.22c.21,0,.21.23.21.23a.71.71,0,0,0,.46-.23,2.35,2.35,0,0,0,.91-.22l1.36,2.27ZM173,36.33a6,6,0,0,1-.68,4.76A7.65,7.65,0,0,1,171,43.37c-1.13,1.13-2.49,2.27-3.85,3.62-1.59.91-6.12,3.64-6.12,3.64l.9,4.77c0,.45.23.45.23.67h1.36l.45,2.5-7.71,1.59-.45-2.72a.83.83,0,0,0,.68-.23c.22,0,.45,0,.45-.22v-.46l-4.09-20.65v-.46c-.22-.23-.68-.23-1.36-.23L151,32.7c9.3-1.82,11.34-2,12.48-2.28a17.39,17.39,0,0,1,3.63.24,6.62,6.62,0,0,1,3.4,1.35,6.14,6.14,0,0,1,2.27,3.41l.23.91Zm-5,1.36a5.72,5.72,0,0,0-.9-1.59,4.75,4.75,0,0,0-1.59-1.36,6.22,6.22,0,0,0-2-.23,3.8,3.8,0,0,0-1.59.23,6.28,6.28,0,0,0-2,.23l-1.59.22-.21.23,2,11.12S162.59,45,164,44.05c1.36-1.14,2.26-2,2.72-2.5a4.62,4.62,0,0,0,.68-1.14,2.81,2.81,0,0,0,.68-2.72Zm35.42,19.07-22.7-.46V53.58h.91a.8.8,0,0,0,.45-.23l.46-21.79a.22.22,0,0,0-.23-.22.23.23,0,0,0-.23-.23,1.71,1.71,0,0,1-.91-.23v-2.5l21.79.46-.23,5.9h-2.49A4.8,4.8,0,0,0,200,33.6a.83.83,0,0,0-.23-.68A4,4,0,0,0,198,32.7l-10.21-.23-.23,6.35h8.85c.45,0,.68,0,.91-.22.23,0,.23,0,.23-.23a1.83,1.83,0,0,1,.22-.68h2.5L200,44.27h-2.49a4.55,4.55,0,0,0-.23-1.13c-.23-.23-.46-.23-.91-.23l-8.85-.23-.22,9.54,11.57.22c.67,0,1.13,0,1.36-.45a.5.5,0,0,0,.46-.45c.21-.23.21-.68.21-1.37h2.51v6.59Zm28.82,8.63-7.48-2.28.68-2.49h1.35a.79.79,0,0,0,.24-.46l2.72-9.07a20.17,20.17,0,0,1-3.64.22,17.38,17.38,0,0,1-5-.68,13.86,13.86,0,0,1-5-3c-.91-.46-1.14-1.36-1.59-2.73,0-.68-.23-1.36-.23-1.81.23-1.14,2.27-8.17,2.27-8.17l.23-.23v-.23c-.23,0-.23-.22-.45-.22,0-.23-.46-.23-.69-.45l.69-2.5,7.49,2.26-.68,2.5h-1.36a.79.79,0,0,0-.24.46l-2,6.81c-.23.22,0,.45,0,.9a2.94,2.94,0,0,0,.68.91,4.41,4.41,0,0,0,2.49,1.36,19.29,19.29,0,0,0,8.4.45l2-6.8c0-.45.23-.68,0-.68a11.28,11.28,0,0,1-1.12-.69l.91-2.49,7.48,2.27-.68,2.49H238.4c-.23,0-.23,0-.23.23v.23l-6.12,20.2a.71.71,0,0,0-.23.46.81.81,0,0,0,.45.22c.23.23.45.23.69.46l-.69,2.5Zm27,14.74-6.8-3.85,1.13-2.5.91.45H255l.22-.22v-.23l5-8.85-11.81-6.59-5,9.08a.81.81,0,0,0-.22.46c.22,0,.22.23.45.23,0,.23.46.45.68.68l-1.36,2.26-6.81-3.85,1.13-2.27a2.3,2.3,0,0,1,.91.23h.45a.23.23,0,0,0,.23-.23l10.22-18.61.23-.23v-.23l-.91-.91,1.14-2.27,7,3.86-1.36,2.28a3.92,3.92,0,0,0-1.36-.23l-.23.23-3.4,6.12L262,61.52l3.4-5.9a1.72,1.72,0,0,0,.23-.68l-.91-.91,1.14-2.27,7,3.86-1.36,2.27a9.45,9.45,0,0,0-1.37-.45.69.69,0,0,1-.22.45l-10.2,18.39c0,.23,0,.23-.23.45V77a.8.8,0,0,0,.45.23c.23.22.45.45.68.45l-1.37,2.49Zm35,14.08a34.74,34.74,0,0,1-4.76,3.41c-.91.22-1.82.67-2.73.9-.68,0-1.81.23-2.72.23a11.85,11.85,0,0,1-5.45-1.13,15.16,15.16,0,0,1-2.73-1.37,18.16,18.16,0,0,1-2.27-2A13.59,13.59,0,0,1,268.82,84a11.44,11.44,0,0,1,.22-2.73,11.91,11.91,0,0,1,.68-2.72,17.51,17.51,0,0,1,3.18-4.77,19.63,19.63,0,0,1,5.22-3.86,14.36,14.36,0,0,1,8.41-.45c1.94.48,3.72,1,5,2.27.68.45,1.59,1.14,2.26,1.59A19.6,19.6,0,0,1,297,77.87a10,10,0,0,1,.9,2.5,14.06,14.06,0,0,1-.21,8.39,18.15,18.15,0,0,1-3.41,5.45Zm-4.09-3.86a14.16,14.16,0,0,0,2.28-2.95,13.86,13.86,0,0,0,1.14-3.18,3.61,3.61,0,0,0,.21-1.59,4.11,4.11,0,0,0-.21-1.58c0-1.37-.7-2-1.14-3a11.2,11.2,0,0,0-1.59-1.81,10,10,0,0,0-4.54-2.5,7.85,7.85,0,0,0-2.27,0,5.13,5.13,0,0,0-2.5.69A9.75,9.75,0,0,0,277,77.64a10.92,10.92,0,0,0-2.5,3.18,33.44,33.44,0,0,0-1.14,3.63,5,5,0,0,0,.23,1.82,4.19,4.19,0,0,0,.46,1.81,7.44,7.44,0,0,0,2.27,3.41c.45.45,1.13.9,1.59,1.36a14.43,14.43,0,0,0,1.81.91,10,10,0,0,0,3.64.22A8.35,8.35,0,0,0,287,92.85c.45-.46,1.14-.68,1.59-1.14a9.65,9.65,0,0,0,1.58-1.36Zm35.19,17.26c-.22,0-.68.22-.9.22a2.09,2.09,0,0,1-1.14.23,5.72,5.72,0,0,1-4.77-3,7.09,7.09,0,0,1-1.14-2.73v-1.59a7.61,7.61,0,0,1,1.37-2c0-.23.45-.46.68-.68a1.7,1.7,0,0,1,.91-.45,2.08,2.08,0,0,1,1.13.22c.59.6,1.28,1.31.91,2,0,.23-.23.23-.23.46-.22.22-.22.22-.22.45-.46.69-.91,1.14-.91,1.59-.23.46,0,.68.23,1.14,0,.22.22.22.22.45.23,0,.46.23.68.23A6.22,6.22,0,0,0,324,104h.69a2,2,0,0,1,1.36.68.81.81,0,0,0,.22.46v.68a1.79,1.79,0,0,1-.22.91c-.22.22-.45.68-.68.91ZM301.73,131l-4.31-6.59,2.27-1.36.91.91c.22,0,.22,0,.45-.23l11.8-7.25-17.25-5.23L294,112.37a.73.73,0,0,0-.45.22v.46c.21,0,.21.46.45.91l-2.28,1.37-4.08-6.82,2.27-1.36a2.37,2.37,0,0,0,.46.68c.22.23.22.23.45.23s.23,0,.46-.23l17.92-11.12.23-.23c.22,0,.22,0,.22-.23a.71.71,0,0,0-.22-.45,1,1,0,0,0-.23-.68l2.27-1.59,4.09,6.81-2.05,1.36c-.45-.22-.68-.45-.68-.68-.22-.23-.22-.23-.45-.23a.71.71,0,0,0-.46.23l-11.58,7.26,17.26,5,1.36-.69c.46-.22.46-.45.69-.45a9.07,9.07,0,0,0-.46-1.36l2.05-1.36,4.31,6.81-2.27,1.35c-.23-.45-.45-.68-.68-.68a.8.8,0,0,0-.23-.44.8.8,0,0,1-.45.23v.21L303.77,128l-.46.45.23.23c0,.22.23.45.46.91L301.73,131Zm34,32.69a6.38,6.38,0,0,1-5,0,10.67,10.67,0,0,1-2.27-1.13,28.93,28.93,0,0,1-4.07-3.64c-1.14-1.36-4.32-5.66-4.32-5.66l-4.77,1.58c-.23,0-.45,0-.45.23v.46a1.76,1.76,0,0,0,.22.9l-2.49.68-2.5-7.49,2.72-.91a1.69,1.69,0,0,0,.23.91.23.23,0,0,0,.23.23.22.22,0,0,0,.22.23c.23-.23.23-.23.46-.23l20-6.13a.8.8,0,0,0,.46-.23c.22,0,.22-.45,0-1.36l2.49-.68c2.72,9.08,3.4,11.12,3.63,12.26a20.39,20.39,0,0,1,.23,3.62c-.23.69-.23,1.37-.46,1.82a14.5,14.5,0,0,1-.68,1.82,8.24,8.24,0,0,1-2.94,2.5l-.91.22Zm-2-4.77a5.68,5.68,0,0,0,1.58-.9c.46-.69.92-1.14.92-1.82a3.24,3.24,0,0,0,.22-2.05c0-.67-.22-1.12-.22-1.58l-1.15-3.4v-.46L324.2,152.1l1.14,1.59a5.8,5.8,0,0,1,1.58,1.82c1.37,1.12,2.28,2,3,2.49a4.56,4.56,0,0,0,1.12.68,3.82,3.82,0,0,0,2.73.22Zm-12.94,37-3.86-22.47,2.5-.45a2.2,2.2,0,0,1,.23.9.73.73,0,0,1,.22.46h.68l20.65-3.63.23-.22h.23v-1.37l2.72-.45L348,190l-5.91,1.14-.45-2.72c.68,0,.91,0,1.13-.24a.48.48,0,0,0,.46-.44,2,2,0,0,0,0-1.59v-.91l-1.82-9.31-6.13.91,1.59,8.85a1.77,1.77,0,0,0,.45.91h1.15l.45,2.49-6.59,1.14-.45-2.49c.45,0,.91-.24.91-.46.23-.23.23-.45.23-.91l-1.59-8.85-9.31,1.81L324,190.68a3.77,3.77,0,0,0,.69,1.36c.23,0,.46.23.68.23h1.36l.46,2.5-6.36,1.13Zm20.88,25.43v-2.5c.68,0,1.13,0,1.36-.22.23,0,.45-.23.68-.46a1.91,1.91,0,0,0,.46-1.36v-8.63l-20.44-.46c-.21,0-.44,0-.44.23a2.77,2.77,0,0,0-.23,1.14h-2.72l.22-7.94,2.5.23a3.91,3.91,0,0,1,.23,1.13,1,1,0,0,0,.67.22l21.57.23v-.45c.23,0,.23-.45.23-.91l2.72.23L348,221.56l-6.36-.23Zm-25.87,29.74,1.13-7.71,2.73.44v1.36h.45l13.62,2.27-9.54-15.2-1.81-.46a.83.83,0,0,0-.68.23.23.23,0,0,1-.23.23,1.77,1.77,0,0,1-.22.91l-2.5-.46,1.13-7.72,2.73.45v1.14c0,.23.23.23.45.23l20.88,3.4h.45c0-.22.23-.22.23-.45a2.37,2.37,0,0,0,.23-.91l2.72.45-1.36,7.95-2.5-.45c0-.92,0-1.36-.23-1.36,0-.23-.22-.23-.45-.23l-13.39-2,9.76,15.2,1.59.23h.45c.23,0,.23-.45.45-1.36l2.73.45-1.36,7.94-2.5-.45v-1.36a.8.8,0,0,0-.46-.23h-.22l-20.65-3.17c-.23,0-.23-.23-.46-.23l-.22.23a.7.7,0,0,1-.23.45.82.82,0,0,1-.23.68l-2.49-.45Zm12.48,36.09-2.72-5.68,2.27-1.13c.23.22.45.45.67.45,0,.23.23.23.23.46h.46c.22-.23.45-.23.69-.46.21,0,.44-.23.67-.45.73-1.1,1.81-2.22,1.81-3.41a9.3,9.3,0,0,0-.9-8.39,8.7,8.7,0,0,0-4.31-3,12.43,12.43,0,0,0-12.49,3,8.83,8.83,0,0,0-1.82,2.27,10.37,10.37,0,0,0-1.13,2.26,2.59,2.59,0,0,0-.46,1.82v.68c0,.23.23.45.23.68.23.23.23.45.45.45l.91.91-.68,2.27-5.9-2a28.58,28.58,0,0,1,1.59-5.91v-.44a3.87,3.87,0,0,0,.45-1.15.68.68,0,0,0,.23-.45,12.59,12.59,0,0,1,2.5-4.08,12.8,12.8,0,0,1,3.63-3.4,21.59,21.59,0,0,1,9.07-3,15.56,15.56,0,0,1,9.54,3.64,18.43,18.43,0,0,1,2.72,4.53,19.43,19.43,0,0,1,1.14,5.22,15.41,15.41,0,0,1-3.64,10.22,8.49,8.49,0,0,1-2,2.05,19.52,19.52,0,0,1-3.18,2Zm-17.48,27,1.36-2.27a1.77,1.77,0,0,0,.91.22,1.11,1.11,0,0,0,.68.23c.23-.23.46-.23.46-.45l.68-.68,2.49-4.54-17.7-10.22c-.23,0-.45,0-.45-.22a4,4,0,0,0-.92,1.36l-2.49-1.36,4.31-7.26,2.27,1.36c-.22.45-.46.68-.46.91a.68.68,0,0,0-.22.44l.46.46,17.7,10.22,2.73-4.54c0-.23.23-.69.23-.91.22,0,.22-.23.22-.46s-.45-.68-1.36-1.36l1.36-2.27,5.22,3.18L316,317.12l-5.22-2.95Zm-19.74,20.88a7.87,7.87,0,0,1-2.73-4.31c0-1.19-.52-2.87,0-5,.46-1.81.91-3.63,1.59-5.68l1.37-3.62-3.64-3.18c-.23,0-.45-.23-.68-.23a.68.68,0,0,0-.45.23c0,.23-.23.45-.46.68l-2-1.82,5-5.89,2.05,1.59c-.23.22-.23.45-.46.67a.77.77,0,0,1-.22.45.22.22,0,0,0,.22.23l.23.23L307,322.8c.23,0,.23.22.45.22a3.6,3.6,0,0,0,.91-.68l2,1.59-5.67,6.81c-1,1-1.91,2.32-2.73,2.72a14.31,14.31,0,0,1-2.94,2.27c-.46.23-1.15.46-1.59.69a5.81,5.81,0,0,1-1.82.22,6,6,0,0,1-3.86-.91l-.67-.68Zm2.95-4.31c1.39,1.4,4.1,1.12,5.44-.23,1.59-1.59,3.63-3.86,3.63-3.86l.22-.45-8.62-7.26s-1.12,2.72-1.58,4.3c-.23.92-.23,1.59-.46,2.5v2.5a5.37,5.37,0,0,0,1.37,2.5Z"/><path class="cls-1" d="M10.35,208.27c0,108.94,79.16,197.56,176.46,197.56s176.45-88.62,176.45-197.56S284.1,10.72,186.81,10.72,10.35,99.34,10.35,208.27Zm2,0c0-107.83,78.26-195.56,174.46-195.56s174.45,87.73,174.45,195.56S283,403.84,186.81,403.84,12.35,316.11,12.35,208.27Z"/><path class="cls-1" d="M116.79,354.84a4.42,4.42,0,0,1-3.18,2,5,5,0,0,1-4.08-.91c-1.37-.91-2.27-1.81-2.49-3.17a4.87,4.87,0,0,1,3.85-6.13,5.26,5.26,0,0,1,4.09.91,4.88,4.88,0,0,1,2.27,3.4,4.56,4.56,0,0,1-.46,3.86ZM147,383l-10.21-3.63.91-2.5a9.72,9.72,0,0,0,1.59.45h1.35c.23-.23.23-.23.23-.45l6.36-17.93a6.32,6.32,0,0,1-2.5-.23,16.63,16.63,0,0,1-2.72-.46l.9-2.72a33.57,33.57,0,0,0,4.32.23,3.34,3.34,0,0,0,1.59-.23,3.65,3.65,0,0,0,1.81-.68l2.73.91-8,22.7v.45c0,.23.23.23.23.46.23,0,.45.22.68.22a2.64,2.64,0,0,1,.68.46c.23,0,.46.22.91.45L147,383Zm35-9.77a21.8,21.8,0,0,1-1.14,5.23,6.71,6.71,0,0,1-.91,2.27c-.45.68-.91,1.59-1.36,2.27a13.91,13.91,0,0,1-4.08,3.17,10,10,0,0,1-2.27.92,11.8,11.8,0,0,1-2.72.45l-1.37-.23a16.54,16.54,0,0,1-5.89-1.59l.45-5h2.5a4.44,4.44,0,0,0,.23,1.13c0,.23.21.46.45.69s.68.45.91.68a5.14,5.14,0,0,0,1.82.22h.9a7.07,7.07,0,0,0,5.21-2.95,4.72,4.72,0,0,0,.69-1.13A3.79,3.79,0,0,0,176,378l.22-.91c-1.25.63-4,1.73-6.12,1.37a8.36,8.36,0,0,1-3.86-1.14c-.45-.45-1.13-.91-1.59-1.36a10.7,10.7,0,0,1-2.49-4.54,13.79,13.79,0,0,1-.23-3,9.65,9.65,0,0,1,1.14-3.63,3.6,3.6,0,0,1,.9-1.59,4.59,4.59,0,0,1,1.37-1.59c1-1,1.88-1.19,3.18-2a12.4,12.4,0,0,1,4.08-.46,10.8,10.8,0,0,1,4.76,1.59c.69.46,1.13.91,1.81,1.36a6,6,0,0,1,1.14,2c1.36,2.27,1.59,5.91,1.59,9.07Zm-5-3.62a6.16,6.16,0,0,0-.23-2c-.21-.46-.21-.69-.45-.92a3.18,3.18,0,0,0-.67-.9c-.37-.74-1.64-1.45-3.41-2.05a3.74,3.74,0,0,0-2.26.69c-.92.22-1.36.9-2,1.59a5.57,5.57,0,0,0,.22,6.35,3.28,3.28,0,0,0,3,1.81,5.62,5.62,0,0,0,5-2.27,3.92,3.92,0,0,0,.9-2.26Zm30.42,17.48-10.66,1.13-.23-2.72a12,12,0,0,0,2.73-.68c.21,0,.21-.23.21-.23v-.45l-1.58-18.85c-1.13.23-1.81.69-2.27.69a24,24,0,0,1-2.72.67l-.23-2.72c2-.68,2.95-1.13,4.09-1.59,1-1,1.91-1.05,2.71-2.27l2.73-.23,2.27,23.84v.46c.23,0,.23.22.46.22h1.58a1,1,0,0,0,.69.23l.22,2.5Zm29.28-17.72a7,7,0,0,1,0,5.23,9.86,9.86,0,0,1-3.4,5,18.36,18.36,0,0,1-6.58,3.64c-1.59.45-3.64.91-5.91,1.36l-1.81-5.68,2.72-.91a2.71,2.71,0,0,0,1.59,1.59,3.11,3.11,0,0,0,2.05,0l.45-.22H226a12.51,12.51,0,0,0,4.08-2.5,5.13,5.13,0,0,0,1.59-5.67,3.31,3.31,0,0,0-1.36-2.05,2.91,2.91,0,0,0-2.27-.9,5.52,5.52,0,0,0-3.18.44l-2,.68-1.36-3.85s2.27-.91,4.08-1.59a3.15,3.15,0,0,0,1.59-3.63c-.36-1.1-1.17-1.82-3-1.82a6.91,6.91,0,0,0-2,.23c-.46.23-1.14.45-1.59.68-1.31,1.31-2.05,1.65-2.05,3.86l-2.5.91-1.58-5a19.93,19.93,0,0,1,3.86-2.72,12.37,12.37,0,0,1,3.63-1.59,11,11,0,0,1,7.72.68,6.06,6.06,0,0,1,2.27,3,6.68,6.68,0,0,1,0,2.95,4.74,4.74,0,0,1-.91,2.27,4.11,4.11,0,0,0-1.13.91c-.23.46-.68.68-1.36,1.14l-.46-1.36a13.43,13.43,0,0,1,3.18.22,7.17,7.17,0,0,1,4.32,2.73,6,6,0,0,1,1.12,2Zm29.29-20.65a5,5,0,0,1,.45,4.09c-.22,1.36-1.13,2.26-2.49,3.17a5,5,0,0,1-4.09.68c-3.12-.51-4.67-3.24-3.86-5.67a6,6,0,0,1,6.58-4.31,5.43,5.43,0,0,1,3.41,2Z"/><path class="cls-1" d="M60.69,208.19c0,78.94,56.25,143.16,125.39,143.16s125.38-64.22,125.38-143.16S255.21,65,186.08,65,60.69,129.26,60.69,208.19Zm2.11,0c0-77.77,55.3-141,123.28-141s123.27,63.28,123.27,141.05-55.3,141.05-123.27,141.05S62.8,286,62.8,208.19Z"/><path class="cls-2" d="M188.69,211.54c39.38-.21,76.63,21.48,96.28,55.07a2.74,2.74,0,0,0,5-1.63c0-.25-.08-.59-.08-.94-19.41-33.82-19.22-76.91.08-110.73a3.29,3.29,0,0,0-.08-2.57,2.7,2.7,0,0,0-3.76-1,4.27,4.27,0,0,0-.94.95c-19.67,34-57.08,55.36-96.34,55.27-.2-39.38,21.48-76.63,55.07-96.29a2.75,2.75,0,0,0-1.64-5c-.24,0-.58.09-.93.09-33.82,19.4-76.9,19.22-110.72-.09a3.28,3.28,0,0,0-2.57.09,2.7,2.7,0,0,0-1,3.76,4.09,4.09,0,0,0,.93,1c34,19.65,55.36,57.07,55.28,96.33-39.38.21-76.64-21.48-96.29-55.07a2.74,2.74,0,0,0-5,1.63c0,.25.09.59.09.94C101.46,187.13,101.26,230.22,82,264a3.28,3.28,0,0,0,.09,2.57,2.7,2.7,0,0,0,3.76,1,4.31,4.31,0,0,0,.94-.94c19.67-34,57.08-55.36,96.34-55.27C183.29,250.8,161.6,288,128,307.7a2.75,2.75,0,0,0,1.63,5c.25,0,.58-.09.94-.09,33.82-19.41,76.9-19.23,110.72.09a3.32,3.32,0,0,0,2.57-.09,2.71,2.71,0,0,0,1-3.77,5.27,5.27,0,0,0-.94-.94c-34-19.65-55.36-57.07-55.28-96.33Z"/><path class="cls-1" d="M127.66,104.12a3.44,3.44,0,0,0-1.67,2.11,3.53,3.53,0,0,0,.36,2.67,4.62,4.62,0,0,0,1.09,1.14l.06,0,.06,0c33.22,19.2,54.69,56.4,54.89,94.94-38.27-.08-75.45-21.48-94.89-54.7l0-.06,0-.06a3.57,3.57,0,0,0-4-1.15,3.52,3.52,0,0,0-2.25,3.28l.1,1.1.08.21c19.1,33.27,19.06,76.44-.09,110l0,.08,0,.08A4,4,0,0,0,81.4,267a3.44,3.44,0,0,0,2.1,1.66,3.47,3.47,0,0,0,2.68-.36c.24-.11.49-.36,1.13-1.08l0-.06,0-.06c19.21-33.23,56.41-54.7,94.94-54.89-.09,38.26-21.49,75.44-54.7,94.88l-.06,0-.06,0a3.59,3.59,0,0,0-1.16,4,3.55,3.55,0,0,0,3.29,2.26l1.1-.1.21-.09c33.28-19.1,76.45-19.06,110,.09l.07,0,.08,0a4,4,0,0,0,3.15-.15,3.44,3.44,0,0,0,1.31-4.78,4.57,4.57,0,0,0-1.09-1.14l-.05,0-.07,0c-33.22-19.2-54.69-56.4-54.89-94.94,38.27.08,75.44,21.48,94.88,54.69l0,.07.05.05a3.47,3.47,0,0,0,6.25-2.12l-.1-1.1-.08-.21c-19.1-33.27-19.06-76.45.09-110l0-.07,0-.08a3.9,3.9,0,0,0-.15-3.15,3.47,3.47,0,0,0-2.09-1.67,3.51,3.51,0,0,0-2.68.35,4.59,4.59,0,0,0-1.13,1.11l0,.06,0,.06c-19.21,33.22-56.41,54.69-94.94,54.88.09-38.27,21.49-75.45,54.7-94.89l.06,0,.06,0a3.48,3.48,0,0,0-2.14-6.25l-1.1.1-.2.08c-33.28,19.1-76.45,19.06-110-.08l-.07,0-.08,0a3.93,3.93,0,0,0-3.14.15Zm0,4.07a2,2,0,0,1,.73-2.78,2.6,2.6,0,0,1,1.94,0c33.92,19.31,77.52,19.34,111.19.1l.72-.06a2,2,0,0,1,1.89,1.29,2.1,2.1,0,0,1-.72,2.34c-33.67,19.76-55.34,57.51-55.34,96.34v1.27h.74a112,112,0,0,0,96.93-55.56l.7-.75a2,2,0,0,1,2.76.74,2.64,2.64,0,0,1,0,2c-19.32,33.92-19.36,77.53-.11,111.2l.07.72a2,2,0,0,1-1.3,1.9,2.11,2.11,0,0,1-2.34-.75c-19.85-33.82-57.85-55.54-96.86-55.33H188v1a111.93,111.93,0,0,0,55.56,96.7l.74.71a2,2,0,0,1,.23,1.57,2,2,0,0,1-1,1.19,2.64,2.64,0,0,1-2,0c-33.91-19.31-77.52-19.35-111.19-.11l-.72.07a2,2,0,0,1-1.9-1.3,2.11,2.11,0,0,1,.74-2.34c33.67-19.76,55.34-57.51,55.34-96.33v-1.27h-.74a111.92,111.92,0,0,0-96.92,55.56c-.07.06-.7.73-.7.73a2,2,0,0,1-1.58.23,2,2,0,0,1-1.2-1,2.66,2.66,0,0,1,0-1.95c19.32-33.93,19.36-77.54.11-111.2l-.07-.72a2,2,0,0,1,1.3-1.89,2.1,2.1,0,0,1,2.34.73c19.85,33.83,57.85,55.55,96.88,55.34H184s0-.88,0-1c0-39.22-21.8-77.15-55.57-96.71l-.73-.7Z"/><path class="cls-1" d="M249.92,228.25l-2.49,3.44-3.25,3.45-7.46,6.7-12.63,9.56,1.91.38,6.89,2.3-4.59,4.2-5.74,4.41-5.93,3.82-5.93,3.06-2.87,1-2.68.58-2.48.19-2.11-.58-1.91-1-1.34-1.92-1-2.48-.58-3.26-4.78-93v-.38l44.58-4.4-.39-9h-45l-.36-5.75,2.46-.76,2.3-1.15,2.1-1.54,1.72-1.9,1.34-2.12,1.15-2.48.58-2.48.19-2.69-.38-3.25-.77-2.86-1.34-2.68-1.91-2.3-4.79-3.25-2.86-.77L186.6,119l-3.26.39-2.87.77-2.67,1.54-2.3,1.71-1.72,2.3-1.54,2.68-.76,2.86-.38,3.25.19,2.69,1.72,5,1.54,2.12,1.71,1.9,2.11,1.54,2.1,1.15,2.1.65v5.86H137.62l-.39,9,44.2,4.4.39.38-4,81.69-1.35,14.55-.95,2.48-1.34,1.92-1.92,1-2.09.58-2.49-.19-2.69-.58-5.73-2.3-3.06-1.72-5.93-3.82-5.55-4.41-4.78-4.2,8.8-2.68-2.3-1.53-10.32-8-7.47-6.7-3.26-3.45-2.48-3.44-.77,16.45.58,7.08,1.15,7.08,1.91,6.89,1.34,3.44,3.63,5.93,2.1,2.48v-1.14l1.92-14,8.61,8.81,4.21,3.82,4.21,3.45,4.21,2.87,4.4,2.48,4.58,1.92,7.27,1.91,2.31,1,4.78,2.67,4,3.26,3.26,3.63,3.06-3.63,4-3.26,4.4-2.67,2.48-1,7.27-1.91,4.59-1.92,4.4-2.48,4.21-2.87,4.21-3.45,4.21-3.82,8.61-8.81,1.14,7.85.77,7.26,2.3-2.48,1.91-2.87,1.53-3.06,1.34-3.44,1.92-6.89,1.15-7.08.56-7.08v-6.5l-.76-9.95Zm-60.84-93.76-1-.56-1.52-.21-1.54.21-1.15.56-.75,1-.39,1-.2,5-1.52-1.34-1.34-1.73-.77-1.72-.37-2.11.57-3.06,1.71-2.48,2.69-1.73,3.06-.57,2.87.57,1.33.77,1,1,1.72,2.48.58,3.06-.19,2.11-.58,1.72-1.15,1.53L190.62,141V138.7l-.39-2.48-.38-1-.77-.77Z"/></g></g></svg>