<svg xmlns="http://www.w3.org/2000/svg" viewBox="0 0 860 472"><defs><style>.cls-1{fill:#fff;}.cls-2{fill:#214a9c;}.cls-3{fill:#204a9a;}.cls-4{fill:#fefefe;}</style></defs><title>SIL sign</title><g id="Слой_2" data-name="Слой 2"><g id="Слой_1-2" data-name="Слой 1"><circle class="cls-1" cx="625" cy="236" r="166"/><path class="cls-2" d="M624,0A235.25,235.25,0,0,0,458.27,68H43.5A43.51,43.51,0,0,0,0,111.5v249A43.51,43.51,0,0,0,43.5,404H458.27A235.25,235.25,0,0,0,624,472c130.34,0,236-105.66,236-236S754.34,0,624,0Zm1,402A166,166,0,1,1,791,236,166,166,0,0,1,625,402Z"/><path class="cls-3" d="M626.9,200.33c3-3.8,7.6-7.6,7.6-20.9v-5.7c0-7.6-3.8-11.4-9.5-11.4s-9.5,3.8-9.5,11.4v11.4q0,11.4-11.4,11.4H554.7q-11.4,0-11.4-11.4v-38c0-34.2,15.2-49.4,49.4-49.4h64.6c34.2,0,49.4,15.2,49.4,49.4v34.2c0,26.6-15.58,45.22-22.8,57l-49.4,60.8v3.8h60.8c7.6,0,11.4,3.8,11.4,11.78v41.42q0,11.4-11.4,11.4H554.7q-11.4,0-11.4-11.4v-39.9c0-11.4,3.8-14.82,11.4-24.7Z"/><path class="cls-4" d="M444.5,243l-30.06-10.17a9.43,9.43,0,0,1-4.62-3.23,8.21,8.21,0,0,1-1.51-5.53l.21-4.35a1.45,1.45,0,0,1,1.71-1.56l6,.29a1.44,1.44,0,0,1,1.55,1.71l-.09,1.91c0,.51.27.88.88,1.11a2.9,2.9,0,0,0,1.79.11l25.47-7.78a1.21,1.21,0,0,1,1.2.14,1.23,1.23,0,0,1,.39,1l-.37,7.62a1.89,1.89,0,0,1-1.73,1.83l-12.67,2.66,0,.55L445,232.4a1.79,1.79,0,0,1,1.54,2l-.35,7.35C446.14,243,445.58,243.39,444.5,243Z"/><path class="cls-4" d="M409.16,256.52l-.37-6-8.7.54a1.45,1.45,0,0,1-1.74-1.53L398,244.1a1.44,1.44,0,0,1,1.53-1.73l34.81-2.16a1.44,1.44,0,0,1,1.73,1.53l.34,5.44a1.44,1.44,0,0,1-1.53,1.73l-1.09.07,0,.54a3,3,0,0,1,2.32,1,3.9,3.9,0,0,1,1.18,2.63l.1,1.63a5.15,5.15,0,0,1-5.1,5.78l-17.41,1.08a5.15,5.15,0,0,1-5.78-5.1Zm18.4-7.15L417,250l.09,1.36a1.2,1.2,0,0,0,1.44,1.27l9.25-.57a1.36,1.36,0,0,0-.17-2.72Z"/><path class="cls-4" d="M439.11,268.12l1.82,9.64a5.17,5.17,0,0,1-4.35,6.37l-17.68,3.32a5.31,5.31,0,0,1-4.16-.74,5.36,5.36,0,0,1-2.2-3.61l-1.82-9.64a5.16,5.16,0,0,1,4.35-6.36l17.68-3.33a5.14,5.14,0,0,1,6.36,4.35Zm-19.5,8.38.11.54a1.21,1.21,0,0,0,1.59,1.09l9.64-1.82a1.2,1.2,0,0,0,1.08-1.59l-.1-.54a1.2,1.2,0,0,0-1.59-1.08l-9.64,1.81A1.21,1.21,0,0,0,419.61,276.5Z"/><path class="cls-4" d="M442.69,305.64,438.54,307a3,3,0,0,1-2,0,1.69,1.69,0,0,1-1-.82l-.27-.48-.52.16c0,.07.05.19.08.35a4.45,4.45,0,0,1,0,.82,2.89,2.89,0,0,1-.25,1.11,3.3,3.3,0,0,1-.85,1.1,4.32,4.32,0,0,1-1.65.9l-5.2,1.65a5.13,5.13,0,0,1-6.84-3.53l-3.81-11.94a1.45,1.45,0,0,1,1.06-2.06l23.31-7.44a1.5,1.5,0,0,1,2.13,1.1l3.46,10.85A5.36,5.36,0,0,1,446,303,5.31,5.31,0,0,1,442.69,305.64Zm-13.12-5.25-.33-1-4.67,1.49.33,1a1.2,1.2,0,0,0,1.71.88l2.08-.66A1.2,1.2,0,0,0,429.57,300.39Zm9.1-3.76-.08-.26-4.16,1.32.09.26a1.2,1.2,0,0,0,1.71.89l1.56-.5A1.2,1.2,0,0,0,438.67,296.63Z"/><path class="cls-4" d="M438.84,333.25l-2.48,1.14a5.15,5.15,0,0,1-7.22-2.69l-3.63-7.93a5.14,5.14,0,0,1,2.69-7.22l16.35-7.49a5.16,5.16,0,0,1,7.23,2.69l3.74,8.18a5.15,5.15,0,0,1-2.69,7.22l-9.41,4.31a1.45,1.45,0,0,1-2.17-.81l-4-8.67-3,1.36a1.12,1.12,0,0,0-.54,1.45,1,1,0,0,0,.61.55,1,1,0,0,0,.83,0,1.45,1.45,0,0,1,2.17.81l2.27,5A1.44,1.44,0,0,1,438.84,333.25ZM445,318.47l-1.73.79,1,2.23,2-.91a1,1,0,0,0,.55-.64,1.15,1.15,0,0,0,0-.8A1.2,1.2,0,0,0,445,318.47Z"/><path class="cls-4" d="M449.51,347.13l-1.43-2.31-6.95,4.29a1.44,1.44,0,0,1-2.25-.53L436,343.94a1.45,1.45,0,0,1,.53-2.25l20.87-12.88a1.44,1.44,0,0,1,2.25.53l2.86,4.63a1.44,1.44,0,0,1-.53,2.25l-6.95,4.3,1.43,2.32,6.95-4.3a1.45,1.45,0,0,1,2.25.54l2.87,4.63A1.45,1.45,0,0,1,468,346l-20.87,12.89a1.44,1.44,0,0,1-2.25-.53L442,353.68a1.44,1.44,0,0,1,.53-2.25Z"/><path class="cls-4" d="M458.43,376.16l-7.49-9.37a1.45,1.45,0,0,1,.26-2.3l19.15-15.31a1.45,1.45,0,0,1,2.3.25l3.4,4.26a1.44,1.44,0,0,1-.25,2.3l-5.11,4.08,3.06,3.83a5.15,5.15,0,0,1-.85,7.66L466.09,377a5.15,5.15,0,0,1-7.66-.85Zm6.47-11.11-.34-.43-3.4,2.73.34.42a1.2,1.2,0,0,0,1.91.22l1.28-1A1.2,1.2,0,0,0,464.9,365.05Z"/><path class="cls-4" d="M500.4,365.87l18.32,15.48a1.44,1.44,0,0,1,.19,2.3L496.4,410.29a1.45,1.45,0,0,1-2.31.2l-5.41-4.58a1.44,1.44,0,0,1-.19-2.3l17.59-20.81-5-4.22-17.59,20.81a1.44,1.44,0,0,1-2.3.19L475.78,395a1.45,1.45,0,0,1-.2-2.31l22.52-26.64A1.44,1.44,0,0,1,500.4,365.87Z"/><path class="cls-4" d="M521.14,394.57l8.33,5.19a5.15,5.15,0,0,1,1.75,7.5l-9.5,15.27a5.14,5.14,0,0,1-7.51,1.75l-8.33-5.18a5.15,5.15,0,0,1-1.75-7.5l9.5-15.28a5.16,5.16,0,0,1,7.51-1.75Zm-7,20,.47.29a1.2,1.2,0,0,0,1.87-.44l5.18-8.33a1.21,1.21,0,0,0-.43-1.88l-.47-.29a1.2,1.2,0,0,0-1.87.44l-5.18,8.33A1.21,1.21,0,0,0,514.13,414.61Z"/><path class="cls-4" d="M551.78,411.6a1.44,1.44,0,0,1,.79,2.17L542.2,436a1.44,1.44,0,0,1-2.17.79l-4.69-2.19a1.44,1.44,0,0,1-.79-2.17l7.83-16.8-.49-.23-7.46,12.76a6.34,6.34,0,0,1-3.88,2.91,8,8,0,0,1-5.57-.7l-1.73-.81a1.45,1.45,0,0,1-.79-2.17l2.08-4.44a1.44,1.44,0,0,1,2.17-.79c.79.36,1.51.1,2.17-.8l8.87-14.5a1.82,1.82,0,0,1,1-.89,2.58,2.58,0,0,1,1.62.33Z"/><path class="cls-4" d="M562.11,434.33l-2.6-.84-2.5,7.78a1.45,1.45,0,0,1-2.06,1.06l-5.19-1.67a1.44,1.44,0,0,1-1-2.06l7.52-23.35a1.45,1.45,0,0,1,2.06-1.05l5.18,1.67a1.45,1.45,0,0,1,1.06,2.06L562,425.71l2.59.84,2.51-7.78a1.45,1.45,0,0,1,2.06-1.06l5.19,1.67a1.44,1.44,0,0,1,1,2.06l-7.52,23.34a1.45,1.45,0,0,1-2.06,1.06l-5.19-1.67a1.45,1.45,0,0,1-1-2.06Z"/><path class="cls-4" d="M584.44,421.14l9.64,1.81a5.14,5.14,0,0,1,4.35,6.36L595.12,447a5.14,5.14,0,0,1-6.36,4.35l-9.64-1.8a5.16,5.16,0,0,1-4.36-6.37l3.31-17.67a5.17,5.17,0,0,1,6.37-4.36Zm.73,21.21.54.1a1.2,1.2,0,0,0,1.59-1.08l1.81-9.65a1.21,1.21,0,0,0-1.09-1.59l-.54-.1a1.21,1.21,0,0,0-1.59,1.09l-1.8,9.64A1.2,1.2,0,0,0,585.17,442.35Z"/><path class="cls-4" d="M610.73,453.21l-5.43-.4a1.44,1.44,0,0,1-1.52-1.75l1.32-17.93-3.54-.26a1.45,1.45,0,0,1-1.51-1.75l.36-4.89a1.44,1.44,0,0,1,1.75-1.51l15.76,1.15a1.45,1.45,0,0,1,1.52,1.75l-.36,4.89a1.45,1.45,0,0,1-1.75,1.51l-3.54-.26-1.31,17.94A1.44,1.44,0,0,1,610.73,453.21Z"/><path class="cls-4" d="M636.28,453.26l-12,.73a1.45,1.45,0,0,1-1.73-1.53L621.09,428a1.45,1.45,0,0,1,1.53-1.74l5.44-.33a1.45,1.45,0,0,1,1.73,1.53l.4,6.53,4.89-.3a5.16,5.16,0,0,1,5.78,5.11l.53,8.7a5.16,5.16,0,0,1-5.11,5.78Zm-5.35-11.69-.55,0,.27,4.36.54,0a1.2,1.2,0,0,0,1.28-1.44l-.1-1.63A1.21,1.21,0,0,0,630.93,441.57Zm19.53-15.39,1.5,24.48a1.45,1.45,0,0,1-1.54,1.73l-5.44.33a1.44,1.44,0,0,1-1.73-1.53l-1.49-24.48a1.44,1.44,0,0,1,1.53-1.73l5.44-.33A1.44,1.44,0,0,1,650.46,426.18Z"/><path class="cls-4" d="M673.7,418.05l1.36,4.71,8.12-2.33c2.34-.67,4.21-.63,5.62.14s2.46,2.34,3.14,4.71l2.71,9.43c.68,2.38.63,4.26-.16,5.66s-2.35,2.43-4.69,3.11l-16.5,4.74a1.45,1.45,0,0,1-2-1.12l-9.63-33.53a1.45,1.45,0,0,1,1.12-2l19.91-5.72a1.44,1.44,0,0,1,2,1.12l1.66,5.76a1.46,1.46,0,0,1-1.12,2ZM681,430.69l-3.41,1,1.51,5.23,3.4-1a1.45,1.45,0,0,0,1.12-2l-.6-2.09A1.44,1.44,0,0,0,681,430.69Z"/><path class="cls-4" d="M717.28,424.18l1.11,2.49a5.39,5.39,0,0,1,.24,4.22,5.34,5.34,0,0,1-3,3l-8,3.55a5.15,5.15,0,0,1-7.2-2.76l-7.31-16.44a5.15,5.15,0,0,1,2.76-7.19l8.22-3.66a5.17,5.17,0,0,1,7.2,2.77l4.21,9.46a1.45,1.45,0,0,1-.83,2.16L706,425.62l1.33,3a1,1,0,0,0,.61.56,1,1,0,0,0,.83,0,1.1,1.1,0,0,0,.55-1.44,1.44,1.44,0,0,1,.83-2.15l5-2.22A1.44,1.44,0,0,1,717.28,424.18Zm-14.72-6.27.77,1.74,2.24-1-.88-2a1,1,0,0,0-.64-.55,1,1,0,0,0-.8,0A1.2,1.2,0,0,0,702.56,417.91Z"/><path class="cls-4" d="M729.75,418a1.09,1.09,0,0,0,.83-.11,1,1,0,0,0,.48-.67,1.09,1.09,0,0,0-.1-.83l-.84-1.4a1.44,1.44,0,0,0-2.24-.57l-.23.14a1.46,1.46,0,0,1-2.25-.57l-1.67-2.82a1.45,1.45,0,0,1,.58-2.24l.23-.13a1.45,1.45,0,0,0,.57-2.25l-.56-.93a1,1,0,0,0-.67-.49,1,1,0,0,0-.82.11,1.11,1.11,0,0,0-.38,1.49l.28.47a1.45,1.45,0,0,1-.57,2.24l-4.69,2.78a1.44,1.44,0,0,1-2.24-.57l-1.67-2.81a5.15,5.15,0,0,1,1.9-7.47l7.5-4.45a5.31,5.31,0,0,1,4.16-.73,5.38,5.38,0,0,1,3.31,2.63l2.78,4.69a2.52,2.52,0,0,1,.38,2,2.23,2.23,0,0,1-.82,1.34l-.51.43.28.47a1.72,1.72,0,0,1,.27-.13,3.24,3.24,0,0,1,.68-.15,2.38,2.38,0,0,1,1,.08,3.62,3.62,0,0,1,1.15.65,4.93,4.93,0,0,1,1.2,1.44l2.78,4.68a5.15,5.15,0,0,1-1.9,7.47l-7.5,4.46A5.13,5.13,0,0,1,723,424.3L721,421a1.44,1.44,0,0,1,.57-2.24l4.68-2.78a1.44,1.44,0,0,1,2.24.57l.56.94A1.06,1.06,0,0,0,729.75,418Z"/><path class="cls-4" d="M734,389.65l7.78-6a5.14,5.14,0,0,1,7.64,1l11,14.27a5.14,5.14,0,0,1-1,7.64l-7.79,6a5.15,5.15,0,0,1-7.64-1L733,397.29a5.16,5.16,0,0,1,1-7.64Zm16.28,13.61.43-.34A1.21,1.21,0,0,0,751,401l-6-7.78a1.21,1.21,0,0,0-1.91-.25l-.43.33a1.21,1.21,0,0,0-.25,1.91l6,7.79A1.21,1.21,0,0,0,750.26,403.26Z"/><path class="cls-4" d="M762.7,376.44l-1.94,1.92,12.64,12.79a1.44,1.44,0,0,1,0,2.31l-3.88,3.84a1.44,1.44,0,0,1-2.31,0L750,379.84a1.44,1.44,0,0,1,0-2.31l12-11.88a1.44,1.44,0,0,1,2.31,0l17.24,17.45a1.44,1.44,0,0,1,0,2.31l-3.88,3.83a1.44,1.44,0,0,1-2.31,0Z"/><path class="cls-4" d="M777.23,364.57l3.38-4.28-2.57-2a1,1,0,0,0-.8-.22,1.05,1.05,0,0,0-.73.4,1.11,1.11,0,0,0,.18,1.53,1.43,1.43,0,0,1,.27,2.29l-3,3.86a1.45,1.45,0,0,1-2.3.27l-2.14-1.69a5.16,5.16,0,0,1-.91-7.65l5.07-6.42a5.14,5.14,0,0,1,7.65-.91L798,362.89a1.44,1.44,0,0,1,.27,2.3l-3.37,4.28a1.45,1.45,0,0,1-2.3.27l-.85-.67-.34.42a3,3,0,0,1,1.08,2.28,3.82,3.82,0,0,1-.88,2.74l-.67.86a5.16,5.16,0,0,1-7.66.9l-5.13-4a5.14,5.14,0,0,1-.91-7.65ZM787.88,366l-2.14-1.69-.5.64a1.21,1.21,0,0,0,.22,1.92l1.07.84a1.09,1.09,0,0,0,.81.22,1.07,1.07,0,0,0,.73-.4,1,1,0,0,0,.21-.8A1,1,0,0,0,787.88,366Z"/><path class="cls-4" d="M804.71,335.89l4.66,2.84a5.16,5.16,0,0,1,1.82,7.49l-4.82,7.91a5.36,5.36,0,0,1-3.34,2.59,5.3,5.3,0,0,1-4.15-.77l-15.36-9.36a5.14,5.14,0,0,1-1.82-7.49l4.82-7.91a5.14,5.14,0,0,1,7.49-1.82l4.65,2.83a1.45,1.45,0,0,1,.55,2.25l-2.84,4.66a1.44,1.44,0,0,1-2.24.54l-1.17-.71a1.36,1.36,0,0,0-1.42,2.33l8.38,5.1a1.36,1.36,0,1,0,1.42-2.32l-1.16-.71a1.45,1.45,0,0,1-.55-2.25l2.84-4.65A1.44,1.44,0,0,1,804.71,335.89Z"/><path class="cls-4" d="M812.28,321.17l-1.12,2.48,7.45,3.36a1.44,1.44,0,0,1,.82,2.16l-2.23,5A1.45,1.45,0,0,1,815,335l-22.36-10.07a1.45,1.45,0,0,1-.82-2.16l2.24-5a1.45,1.45,0,0,1,2.16-.82l7.46,3.36,1.12-2.49-7.46-3.35a1.45,1.45,0,0,1-.82-2.17l2.24-5a1.44,1.44,0,0,1,2.16-.81l22.36,10.07a1.44,1.44,0,0,1,.82,2.16l-2.23,5a1.46,1.46,0,0,1-2.17.82Z"/><path class="cls-4" d="M801.65,297.53l2.87-9.39a5.16,5.16,0,0,1,6.81-3.62l17.2,5.26a5.15,5.15,0,0,1,3.62,6.8L829.28,306a5.15,5.15,0,0,1-6.8,3.62l-17.21-5.26a5.15,5.15,0,0,1-3.62-6.8Zm21.16,1.62.16-.52a1.21,1.21,0,0,0-.9-1.71l-9.38-2.86a1.2,1.2,0,0,0-1.7.9l-.16.52a1.2,1.2,0,0,0,.9,1.7l9.38,2.87A1.2,1.2,0,0,0,822.81,299.15Z"/><path class="cls-4" d="M827.89,263.62l5.37.94a5.16,5.16,0,0,1,4.43,6.31l-1.6,9.12a5.14,5.14,0,0,1-6.31,4.43l-17.71-3.1a5.13,5.13,0,0,1-4.43-6.31l1.59-9.12a5.14,5.14,0,0,1,6.31-4.43l5.37.94a1.45,1.45,0,0,1,1.33,1.89l-.94,5.37a1.45,1.45,0,0,1-1.89,1.33l-1.35-.24a1.37,1.37,0,0,0-.47,2.69l9.67,1.69a1.37,1.37,0,0,0,.47-2.69l-1.34-.23a1.44,1.44,0,0,1-1.33-1.89L826,265A1.44,1.44,0,0,1,827.89,263.62Z"/><path class="cls-4" d="M839.3,249.2l-.35,5.44a1.44,1.44,0,0,1-1.73,1.53l-18-1.14-.23,3.53a1.44,1.44,0,0,1-1.73,1.53l-4.9-.31a1.44,1.44,0,0,1-1.53-1.73l1-15.78a1.45,1.45,0,0,1,1.74-1.53l4.89.31a1.45,1.45,0,0,1,1.53,1.74l-.22,3.54,17.95,1.14A1.44,1.44,0,0,1,839.3,249.2Z"/><path class="cls-4" d="M811.1,219.85a1.46,1.46,0,0,1,1.55-1.72l24.5-1.21a1.44,1.44,0,0,1,1.71,1.55l.27,5.45a1.44,1.44,0,0,1-1.55,1.71L830,226l0,.54,7.71,1.53a1.84,1.84,0,0,1,1.73,1.82l.3,6a1.46,1.46,0,0,1-1.56,1.72l-24.49,1.21a1.45,1.45,0,0,1-1.72-1.55l-.27-5.45a1.45,1.45,0,0,1,1.56-1.71l7.62-.38,0-.54-7.71-1.53a1.83,1.83,0,0,1-1.73-1.82Z"/><path class="cls-4" d="M446.1,152.93l-7.9,5.67a13,13,0,0,1-4.73,2.48,8.18,8.18,0,0,1-4.72-1l-5.28-2.46c-2.18-1-3.53-2.26-4.05-3.73s-.29-3.28.71-5.43l4.47-9.6c1-2.15,2.24-3.5,3.7-4s3.28-.32,5.46.7l4.32,2a1.41,1.41,0,0,1,.77,2.12l-2.91,6.24a1.4,1.4,0,0,1-2.11.77l-1-.45a1.41,1.41,0,0,0-2.11.77l-.45,1c-.45,1-.27,1.62.53,2l.72.33a1.7,1.7,0,0,0,1.89-.29l7.9-5.67a13,13,0,0,1,4.73-2.48,8.25,8.25,0,0,1,4.72,1l5.28,2.46q3.27,1.53,4.06,3.73t-.72,5.43l-5,10.81c-1,2.18-2.25,3.53-3.71,4.06s-3.27.29-5.45-.73l-4.8-2.23a1.41,1.41,0,0,1-.77-2.12l2.91-6.24a1.4,1.4,0,0,1,2.11-.77l1.44.67a1.4,1.4,0,0,0,2.11-.77l1-2.16c.45-1,.27-1.63-.53-2l-.72-.34A1.7,1.7,0,0,0,446.1,152.93Z"/><path class="cls-4" d="M453.58,130.46,456.5,126l-2.65-1.75a1,1,0,0,0-.8-.15,1,1,0,0,0-.82,1.24,1,1,0,0,0,.45.68,1.41,1.41,0,0,1,.45,2.2l-2.63,4a1.4,1.4,0,0,1-2.2.45l-2.21-1.46a5.18,5.18,0,0,1-2.41-3.33,5.24,5.24,0,0,1,.9-4l4.38-6.64a5.24,5.24,0,0,1,3.34-2.4,5.17,5.17,0,0,1,4,.9l17.25,11.39a1.41,1.41,0,0,1,.45,2.2l-2.92,4.42a1.4,1.4,0,0,1-2.2.46l-.89-.59-.29.44a2.94,2.94,0,0,1,1.24,2.12,3.82,3.82,0,0,1-.63,2.73l-.58.89a5,5,0,0,1-7.35,1.5l-5.31-3.51a5,5,0,0,1-1.5-7.34ZM464,131l-2.21-1.46-.44.67a1.16,1.16,0,0,0,.38,1.83l1.1.73a1,1,0,0,0,.8.15A1.07,1.07,0,0,0,464,131Z"/><path class="cls-4" d="M465.58,111.66l-.34.41a1.41,1.41,0,0,1-2.24.2l-3.66-3a1.4,1.4,0,0,1-.2-2.24l.34-.41-4.89-4.07a5,5,0,0,1-.68-7.46l3.23-3.87a1.39,1.39,0,0,1,2.23-.2L463,94a1.41,1.41,0,0,1,.2,2.24l-.34.41a1.17,1.17,0,0,0,.17,1.86l1.83,1.53,1-1.22a1.41,1.41,0,0,1,2.24-.21l3.67,3.06a1.41,1.41,0,0,1,.2,2.24l-1,1.22,12.22,10.18a1.41,1.41,0,0,1,.2,2.24L480,121.64a1.41,1.41,0,0,1-2.24.2Z"/><path class="cls-4" d="M497.84,92.15l1.84,1.91a5,5,0,0,1-.15,7.49l-6.11,5.88a5,5,0,0,1-7.5-.15L473.8,94.67a5,5,0,0,1,.15-7.49l6.31-6.06a5,5,0,0,1,7.49.15l7,7.26a1.4,1.4,0,0,1-.05,2.24L488,97.2l2.2,2.29a1,1,0,0,0,.74.32,1,1,0,0,0,.76-.29,1,1,0,0,0,.31-.74,1,1,0,0,0-.28-.75,1.41,1.41,0,0,1,0-2.25l3.82-3.68A1.41,1.41,0,0,1,497.84,92.15Zm-15.54-.87,1.29,1.34L485.31,91l-1.47-1.52a1,1,0,0,0-.76-.3,1,1,0,0,0-.74.27A1.17,1.17,0,0,0,482.3,91.28Z"/><path class="cls-4" d="M496.38,78.37l-.42.33a1.41,1.41,0,0,1-2.23-.3l-2.9-3.79a1.4,1.4,0,0,1,.29-2.23l.42-.32-2.9-3.78a1.41,1.41,0,0,1,.3-2.23l4.21-3.23a1.41,1.41,0,0,1,2.23.3l2.9,3.79,1.26-1a1.41,1.41,0,0,1,2.23.3l2.9,3.78a1.41,1.41,0,0,1-.3,2.23l-1.26,1,6,7.78a1.17,1.17,0,0,0,1.86.25l.42-.32a1.4,1.4,0,0,1,2.23.29l2.9,3.79a1.41,1.41,0,0,1-.3,2.23l-4,3.06a5,5,0,0,1-7.44-1Z"/><path class="cls-4" d="M513.8,58.31l6.92,8.82.45-.28-4.66-10.19a1.51,1.51,0,0,1,.53-2.19l5.21-3.17c1-.61,1.65-.38,2,.67l9.11,29.2a8.6,8.6,0,0,1,.33,5,6.21,6.21,0,0,1-3,3.45L528,91.26a1.41,1.41,0,0,1-2.19-.53l-2.48-4.08a1.4,1.4,0,0,1,.53-2.18l.9-.55c1-.61,1.12-1.3.35-2.08L506.1,63c-.79-.76-.69-1.44.31-2l5.2-3.17A1.51,1.51,0,0,1,513.8,58.31Z"/><path class="cls-4" d="M547.19,30.66l12.64,31.48a1.41,1.41,0,0,1-.88,2.07l-6.39,2.57a1.41,1.41,0,0,1-2.07-.89L537.85,34.42a1.4,1.4,0,0,1,.88-2.07l6.39-2.57A1.41,1.41,0,0,1,547.19,30.66Z"/><path class="cls-4" d="M579.71,34.61l5.43,20A1.4,1.4,0,0,1,584,56.51l-5.11,1.39A1.4,1.4,0,0,1,577,56.78l-4.39-16.11a1.32,1.32,0,1,0-2.55.7l4.38,16.11a1.4,1.4,0,0,1-1.12,2l-5.11,1.39a1.4,1.4,0,0,1-1.95-1.11l-6.26-23a1.4,1.4,0,0,1,1.11-1.95l5.12-1.39a1.4,1.4,0,0,1,1.95,1.12l.28,1,.51-.14a2.89,2.89,0,0,1,.47-2.41,3.77,3.77,0,0,1,2.27-1.63l1.54-.42a5,5,0,0,1,6.5,3.72Z"/><path class="cls-4" d="M589.28,36.12l-.52.08A1.41,1.41,0,0,1,587,34.86l-.71-4.71a1.41,1.41,0,0,1,1.34-1.81l.52-.08-.7-4.72a1.41,1.41,0,0,1,1.33-1.81L594,21a1.4,1.4,0,0,1,1.8,1.34l.71,4.71,1.57-.23a1.4,1.4,0,0,1,1.81,1.33l.71,4.72a1.41,1.41,0,0,1-1.34,1.81l-1.57.23,1.45,9.7a1.17,1.17,0,0,0,1.51,1.11l.53-.07a1.39,1.39,0,0,1,1.8,1.33l.71,4.72a1.41,1.41,0,0,1-1.34,1.81l-5,.75a5.19,5.19,0,0,1-4-.88,5.14,5.14,0,0,1-2-3.58Z"/><path class="cls-4" d="M627.14,44.53l.1,2.65a5,5,0,0,1-5.1,5.49l-8.47.31a5,5,0,0,1-5.5-5.1l-.64-17.48a5,5,0,0,1,5.1-5.49l8.73-.32a5,5,0,0,1,5.5,5.1l.37,10.06a1.41,1.41,0,0,1-1.53,1.65l-9.27.34.12,3.18a1,1,0,0,0,.34.73,1,1,0,0,0,1.49-.06,1,1,0,0,0,.29-.75,1.41,1.41,0,0,1,1.53-1.65l5.29-.19A1.41,1.41,0,0,1,627.14,44.53Zm-11-11,.07,1.86,2.38-.09-.08-2.12a1,1,0,0,0-.37-.73,1.07,1.07,0,0,0-.73-.29A1.16,1.16,0,0,0,616.13,33.53Z"/><path class="cls-4" d="M632.88,57.38l.4-4.22A1.41,1.41,0,0,1,635,51.73l4.75.45a1.41,1.41,0,0,1,1.43,1.73l0,.27a1.33,1.33,0,0,0,2.64.25l.38-4-5.8-.55a5,5,0,0,1-4.78-5.78L635,29.89a5,5,0,0,1,5.78-4.77l1.58.15a3.8,3.8,0,0,1,2.52,1.23,2.89,2.89,0,0,1,.87,2.29l.53.05.1-1.05a1.4,1.4,0,0,1,1.73-1.43l5.28.5a1.41,1.41,0,0,1,1.43,1.73l-2.93,30.6A5,5,0,0,1,646.09,64l-8.44-.81a5,5,0,0,1-4.77-5.78ZM645,42.56l.73-7.65a1.33,1.33,0,1,0-2.64-.25L642.43,41a1.17,1.17,0,0,0,1.2,1.44Z"/><path class="cls-4" d="M658.75,53.5l5-23.31A1.4,1.4,0,0,1,665.67,29l5.18,1.12A1.41,1.41,0,0,1,672.07,32l-.34,1.55.52.11a2.93,2.93,0,0,1,1.52-1.92,3.81,3.81,0,0,1,2.78-.4,1.4,1.4,0,0,1,1.21,1.89l-1.11,5.18a1.41,1.41,0,0,1-1.89,1.22l-2.59-.56a1.4,1.4,0,0,0-1.89,1.22l-3.24,15a1.41,1.41,0,0,1-1.89,1.22L660,55.39A1.4,1.4,0,0,1,658.75,53.5Z"/><path class="cls-4" d="M690.43,35.93a1.38,1.38,0,0,1,1.07,1.94l-6.92,22.32a1.4,1.4,0,0,1-2,1.05l-5.06-1.57a1.41,1.41,0,0,1-1-2l6.9-22.27a1.41,1.41,0,0,1,2-1Zm3.45-11.14a1.4,1.4,0,0,1,1,2l-1.72,5.57a1.41,1.41,0,0,1-2,1l-5.06-1.57a1.4,1.4,0,0,1-1-2l1.72-5.57a1.41,1.41,0,0,1,2-1.05Z"/><path class="cls-4" d="M697.37,46.16l-.49-.2a1.41,1.41,0,0,1-.88-2.07l1.8-4.42a1.4,1.4,0,0,1,2.07-.87l.49.2,1.8-4.42a1.4,1.4,0,0,1,2.07-.87l4.91,2a1.4,1.4,0,0,1,.87,2.07L708.22,42l1.47.6a1.4,1.4,0,0,1,.87,2.07l-1.79,4.42a1.41,1.41,0,0,1-2.07.88l-1.48-.6-3.69,9.08a1.18,1.18,0,0,0,.73,1.73l.49.2a1.4,1.4,0,0,1,.87,2.07l-1.79,4.42a1.4,1.4,0,0,1-2.07.87l-4.67-1.89a5,5,0,0,1-2.91-6.91Z"/><path class="cls-4" d="M723.51,51l-4.1,10.43.47.25,6.43-9.17a1.51,1.51,0,0,1,2.16-.65l5.37,2.89c1,.55,1.16,1.22.41,2L713.67,79.44a8.55,8.55,0,0,1-4.13,2.81,6.24,6.24,0,0,1-4.47-.81l-2.8-1.5a1.4,1.4,0,0,1-.65-2.15l2.26-4.21a1.4,1.4,0,0,1,2.15-.64l.94.5c1,.55,1.68.3,2-.75l6.65-25.91q.38-1.61,1.92-.78l5.36,2.89A1.49,1.49,0,0,1,723.51,51Z"/><path class="cls-4" d="M748.33,87.14l8.63,7a1.41,1.41,0,0,1,.23,2.24l-3.69,4.52a1.41,1.41,0,0,1-2.24.22L736.07,88.76a1.41,1.41,0,0,1-.23-2.24l21.45-26.28a1.4,1.4,0,0,1,2.23-.23l5.34,4.36a1.4,1.4,0,0,1,.23,2.23Z"/><path class="cls-4" d="M773,113.38l-1.94,1.81a5,5,0,0,1-7.49-.28l-5.77-6.21a5,5,0,0,1,.27-7.49L770.92,89.3a5,5,0,0,1,7.49.28l6,6.4a5,5,0,0,1-.28,7.49l-7.37,6.86a1.41,1.41,0,0,1-2.25-.08l-6.31-6.8-2.33,2.17a1,1,0,0,0-.33.73,1,1,0,0,0,.27.76,1,1,0,0,0,.74.33,1,1,0,0,0,.76-.27,1.41,1.41,0,0,1,2.25.08l3.61,3.88A1.41,1.41,0,0,1,773,113.38Zm1.14-15.52-1.36,1.26,1.62,1.75L776,99.43a1,1,0,0,0,.31-.76,1,1,0,0,0-.25-.74A1.17,1.17,0,0,0,774.17,97.86Z"/><path class="cls-4" d="M777.53,131.76l-2.78-3.87a1.89,1.89,0,0,1,.22-2.44l15.52-19.28c.67-.87,1.36-.83,2.06.15l3.4,4.74a1.66,1.66,0,0,1-.21,2.43l-6.4,6.55.31.43,8.25-4a1.74,1.74,0,0,1,2.37.58l3.4,4.74c.7,1,.53,1.64-.52,2l-23.24,8.51A1.89,1.89,0,0,1,777.53,131.76Z"/><path class="cls-4" d="M799.41,154.08l-2.33,1.27a5,5,0,0,1-7.19-2.13l-4-7.45a5,5,0,0,1,2.13-7.19l15.36-8.35a5,5,0,0,1,7.19,2.12L814.7,140a5,5,0,0,1-2.13,7.18L803.73,152a1.41,1.41,0,0,1-2.16-.64l-4.43-8.15-2.8,1.52a1.08,1.08,0,0,0-.42,1.44,1.06,1.06,0,0,0,.63.5,1,1,0,0,0,.81-.08,1.4,1.4,0,0,1,2.15.64l2.53,4.65A1.4,1.4,0,0,1,799.41,154.08Zm5-14.75-1.63.88,1.13,2.1,1.87-1a.93.93,0,0,0,.48-.65,1,1,0,0,0-.06-.78A1.16,1.16,0,0,0,804.36,139.33Z"/><path class="cls-4" d="M830,150.19l2,4.9a1.4,1.4,0,0,1-.86,2.07l-31.33,13a1.4,1.4,0,0,1-2.08-.86l-2-4.89a1.4,1.4,0,0,1,.86-2.08l31.33-13A1.39,1.39,0,0,1,830,150.19Z"/><path class="cls-1" d="M70.91,242.3c-15.75-8.82-21-13.65-21-31.5V187.7c0-18.9,8.4-27.3,27.3-27.3h42c18.9,0,27.3,8.4,27.3,27.3v18.9q0,6.3-6.3,6.3h-27.3q-6.3,0-6.3-6.3v-4.2q0-6.3-6.3-6.3h-4.2c-4.2,0-6.31,2.1-6.31,5.25v3.15A7.1,7.1,0,0,0,94,210.8l33.6,18.9c15.75,8.82,21,13.65,21,31.5v23.1c0,18.9-8.4,27.3-27.3,27.3H74.06c-18.9,0-27.3-8.4-27.3-27.3v-21q0-6.3,6.3-6.3h27.3q6.3,0,6.31,6.3v6.3q0,6.3,6.29,6.3h9.46c4.2,0,6.3-2.1,6.3-5.25V267.5a7.09,7.09,0,0,0-4.2-6.3Z"/><path class="cls-1" d="M236.81,303.2q0,6.3-6.3,6.3h-27.3q-6.3,0-6.3-6.3V168.8q0-6.3,6.3-6.3h27.3q6.3,0,6.3,6.3Z"/><path class="cls-1" d="M375.42,273.8q6.3,0,6.3,6.3v23.1q0,6.3-6.3,6.3H297.71q-6.3,0-6.3-6.3V168.8q0-6.3,6.3-6.3H325q6.3,0,6.3,6.3v105Z"/></g></g></svg>