<svg aria-hidden="true" style="position: absolute; width: 0; height: 0; overflow: hidden;" version="1.1" xmlns="http://www.w3.org/2000/svg" xmlns:xlink="http://www.w3.org/1999/xlink">
<defs>
<symbol id="icon-arrow" viewBox="0 0 64 32">
<path d="M5.388 0.832c-0.305-0.266-0.663-0.473-1.055-0.611s-0.809-0.203-1.229-0.192c-0.419 0.011-0.832 0.098-1.215 0.256s-0.728 0.384-1.016 0.665c-0.288 0.281-0.513 0.612-0.663 0.973s-0.22 0.746-0.208 1.133c0.012 0.387 0.106 0.767 0.278 1.12s0.417 0.672 0.721 0.937l28.738 25.033c0.593 0.517 1.378 0.805 2.194 0.805s1.601-0.288 2.194-0.805l28.742-25.033c0.311-0.264 0.563-0.582 0.74-0.937s0.276-0.738 0.291-1.128c0.015-0.39-0.054-0.779-0.203-1.144s-0.376-0.699-0.666-0.983-0.639-0.511-1.026-0.67c-0.386-0.158-0.803-0.244-1.227-0.253s-0.843 0.061-1.237 0.203-0.753 0.356-1.056 0.628l-26.551 23.125-26.545-23.125z"></path>
</symbol>
<symbol id="icon-bascet" viewBox="0 0 32 32">
<path d="M31.739 8.875c-0.092-0.13-0.213-0.237-0.355-0.31s-0.298-0.112-0.458-0.112h-21.223l-1.607-5.54c-0.63-2.182-2.127-2.417-2.741-2.417h-4.284c-0.549 0-0.993 0.445-0.993 0.993s0.445 0.993 0.993 0.993h4.283c0.136 0 0.549 0 0.831 0.974l5.527 20.311c0.12 0.428 0.511 0.724 0.956 0.724h13.499c0.419 0 0.793-0.263 0.935-0.657l4.758-14.053c0.109-0.304 0.064-0.643-0.122-0.907v0zM25.47 22.506h-12.046l-3.161-12.067h19.253l-4.046 12.067zM23.5 26.504c-1.381 0-2.5 1.119-2.5 2.5s1.119 2.5 2.5 2.5c1.381 0 2.5-1.119 2.5-2.5s-1.119-2.5-2.5-2.5zM14.5 26.504c-1.381 0-2.5 1.119-2.5 2.5s1.119 2.5 2.5 2.5c1.381 0 2.5-1.119 2.5-2.5s-1.119-2.5-2.5-2.5z"></path>
</symbol>
<symbol id="icon-magnify" viewBox="0 0 32 32">
<path d="M19.93 22.052l5.51 5.508c0.137 0.147 0.303 0.266 0.487 0.348s0.383 0.126 0.584 0.13c0.201 0.004 0.401-0.033 0.588-0.109s0.356-0.188 0.499-0.33c0.142-0.142 0.255-0.312 0.33-0.499s0.113-0.387 0.109-0.588c-0.004-0.201-0.048-0.4-0.13-0.584s-0.2-0.35-0.348-0.487l-5.51-5.508c1.496-2.030 2.169-4.551 1.885-7.057s-1.505-4.812-3.417-6.456c-1.912-1.644-4.375-2.505-6.896-2.41s-4.912 1.139-6.695 2.922c-1.783 1.783-2.827 4.175-2.922 6.695s0.766 4.983 2.41 6.896c1.644 1.912 3.95 3.133 6.456 3.417s5.027-0.389 7.057-1.885zM21 14c0 1.857-0.737 3.637-2.050 4.95s-3.093 2.050-4.95 2.050-3.637-0.737-4.95-2.050c-1.313-1.313-2.050-3.093-2.050-4.95s0.737-3.637 2.050-4.95c1.313-1.313 3.093-2.050 4.95-2.050s3.637 0.737 4.95 2.050c1.313 1.313 2.050 3.093 2.050 4.95z"></path>
</symbol>
<symbol id="icon-menu_close" viewBox="0 0 32 32">
<path d="M8.534 23.815l-0.925-0.925 7.314-7.314-7.314-7.314 0.925-0.925 7.314 7.314 7.314-7.314 0.925 0.925-7.314 7.314 7.314 7.314-0.925 0.925-7.314-7.314-7.314 7.314z"></path>
</symbol>
<symbol id="icon-menu_open" viewBox="0 0 44 32">
<path d="M0 30.587v-4.831h44.308v4.831h-44.308zM0 18.51v-4.831h44.308v4.831h-44.308zM0 6.433v-4.831h44.308v4.831h-44.308z"></path>
</symbol>
<symbol id="icon-message" viewBox="0 0 32 32">
<path fill="none" stroke-linejoin="round" stroke-linecap="round" stroke-miterlimit="4" stroke-width="2.3704" stroke="black" d="M10.667 12h10.667M10.667 17.333h8M24 5.333c1.061 0 2.078 0.421 2.828 1.172s1.172 1.768 1.172 2.828v10.667c0 1.061-0.421 2.078-1.172 2.828s-1.768 1.172-2.828 1.172h-6.667l-6.667 4v-4h-2.667c-1.061 0-2.078-0.421-2.828-1.172s-1.172-1.768-1.172-2.828v-10.667c0-1.061 0.421-2.078 1.172-2.828s1.768-1.172 2.828-1.172h16z"></path>
</symbol>
<symbol id="icon-phone" viewBox="0 0 30 32">
<path fill="#fefefe" style="fill: var(--color1, #fefefe)" d="M27.261 21.501l-4.273-0.479c-0.502-0.058-1.012-0.003-1.49 0.16s-0.912 0.43-1.27 0.782l-3.096 3.038c-4.776-2.384-8.658-6.193-11.087-10.879l3.112-3.054c0.723-0.71 1.077-1.7 0.959-2.707l-0.488-4.16c-0.095-0.805-0.489-1.548-1.106-2.087s-1.415-0.836-2.242-0.835h-2.911c-1.901 0-3.483 1.552-3.365 3.417 0.892 14.099 12.382 25.358 26.733 26.233 1.901 0.116 3.482-1.436 3.482-3.302v-2.856c0.017-1.667-1.262-3.071-2.961-3.269z"></path>
</symbol>
<symbol id="icon-logo" viewBox="0 0 48 32">
<path fill="#fff" style="fill: var(--color1, #fff)" d="M24.105 0l1.842 15.053h-3.632l1.789-15.053z"></path>
<path fill="#fff" style="fill: var(--color1, #fff)" d="M0.947 25.158c-0.105 0.158-0.211 0.316-0.316 0.474-0.105 0.105-0.211 0.211-0.316 0.316-0.158 0.105-0.263 0.105-0.316 0-0.053-0.211-0.053-0.474 0-0.684l0.158-1.211c0.053-0.316 0.105-0.632 0.211-0.895 0.105-0.211 0.263-0.421 0.421-0.526 0.211-0.158 0.368-0.105 0.474 0.158 0.053 0.105 0.105 0.211 0.158 0.263 0.158 0.158 0.316 0.211 0.526 0.158 0.263-0.053 0.526-0.158 0.789-0.316s0.474-0.421 0.632-0.684c0.158-0.263 0.263-0.526 0.316-0.789 0.053-0.474-0.316-0.526-1.105-0.158-0.158 0.105-0.316 0.158-0.421 0.211-0.579 0.263-1.053 0.316-1.263 0.105-0.263-0.211-0.316-0.684-0.263-1.421 0.105-0.842 0.368-1.632 0.789-2.316s1-1.316 1.632-1.737c0.211-0.158 0.474-0.263 0.684-0.368s0.474-0.158 0.737-0.211c0.053-0.158 0.158-0.316 0.263-0.474 0.105-0.105 0.158-0.211 0.316-0.316s0.263-0.105 0.316 0c0.053 0.211 0.105 0.421 0.053 0.632l-0.158 1.105c0 0.211-0.105 0.474-0.211 0.684 0 0.053-0.158 0.211-0.316 0.316s-0.368 0.053-0.684-0.158c-0.316-0.211-0.684-0.158-1 0.053-0.263 0.158-0.474 0.421-0.684 0.684-0.158 0.211-0.263 0.526-0.316 0.789-0.053 0.421 0.211 0.474 0.842 0.211l0.421-0.211c0.789-0.368 1.316-0.421 1.579-0.211s0.368 0.684 0.211 1.474c-0.105 0.895-0.421 1.737-0.895 2.474s-1.053 1.368-1.789 1.895c-0.263 0.158-0.526 0.316-0.789 0.474-0.158 0.053-0.421 0.158-0.684 0.211v0z"></path>
<path fill="#fff" style="fill: var(--color1, #fff)" d="M7.421 17.632c0 0.579 0.105 1 0.368 1.158s0.579 0.053 1-0.211c0.526-0.368 1-0.895 1.368-1.421 0.263-0.368 0.526-0.737 0.842-1.053 0.158-0.105 0.211-0.053 0.316 0.053 0.053 0.158 0.105 0.368 0.053 0.526-0.158 0.737-0.474 1.368-0.947 1.947-0.526 0.737-1.158 1.368-1.947 1.842-0.842 0.579-1.526 0.632-1.947 0.211s-0.579-1.316-0.421-2.632c0.158-1.316 0.579-2.526 1.211-3.684 0.526-1.053 1.316-1.947 2.263-2.632 0.789-0.526 1.368-0.579 1.789-0.158s0.526 1.211 0.421 2.316c0 0.263-0.105 0.579-0.211 0.842-0.158 0.263-0.421 0.474-0.684 0.632l-3.474 2.263zM10.526 14.263v0c0-0.526-0.105-0.842-0.316-1s-0.526-0.053-0.947 0.211c-0.421 0.263-0.737 0.632-1 1.053-0.316 0.526-0.526 1.053-0.684 1.632l2.947-1.895z"></path>
<path fill="#fff" style="fill: var(--color1, #fff)" d="M17.316 10.947l0.632-4.947-0.316 0.211c-0.211 0.158-0.421 0.211-0.474 0.105-0.105-0.105-0.105-0.316-0.053-0.632s0.105-0.632 0.263-0.895c0.105-0.211 0.316-0.421 0.526-0.579l1.526-1.053c0.211-0.158 0.368-0.211 0.474-0.105s0.105 0.316 0.053 0.684c-0.053 0.263-0.105 0.579-0.263 0.842-0.105 0.211-0.263 0.368-0.474 0.526l-0.105 0.053-1.053 8.158c0 0.211-0.053 0.368-0.105 0.579-0.053 0.105-0.158 0.211-0.263 0.263l-0.526 0.368c-0.158 0.105-0.263 0.158-0.368 0.158s-0.105-0.053-0.158-0.211l-1.421-5.105-0.474 4.895 0.316-0.211c0.211-0.158 0.368-0.211 0.474-0.105 0.053 0.105 0.105 0.316 0.053 0.632s-0.105 0.579-0.263 0.842c-0.105 0.211-0.316 0.421-0.526 0.579l-1.526 1.053c-0.211 0.158-0.368 0.211-0.474 0.105s-0.105-0.316-0.053-0.684c0.053-0.263 0.105-0.579 0.263-0.842 0.105-0.211 0.263-0.368 0.474-0.526l0.105-0.053 0.737-6.632-0.105 0.053c-0.158 0.105-0.316 0.158-0.368 0-0.105-0.211-0.105-0.421-0.053-0.632 0.053-0.316 0.105-0.579 0.263-0.842 0.105-0.211 0.316-0.421 0.526-0.579l0.895-0.632c0.211-0.158 0.368-0.211 0.421-0.158 0.105 0.105 0.158 0.263 0.158 0.421l1.263 4.895z"></path>
<path fill="#fff" style="fill: var(--color1, #fff)" d="M24.105 32l-1.789-15.316h3.632l-1.842 15.316z"></path>
<path fill="#fff" style="fill: var(--color1, #fff)" d="M34.105 15.842c0.053-0.158 0.158-0.368 0.211-0.526 0.105-0.105 0.211-0.211 0.316-0.316 0.211-0.158 0.316-0.158 0.368-0.053 0.053 0.211 0.053 0.474 0 0.684l-0.211 1.632v0.105c-0.053 0.263-0.105 0.526-0.211 0.789-0.105 0.211-0.263 0.368-0.421 0.474-0.263 0.158-0.421 0.053-0.474-0.263 0-0.053 0-0.105 0-0.105-0.053-0.263-0.158-0.474-0.368-0.526s-0.474 0-0.632 0.158c-0.316 0.211-0.632 0.526-0.842 0.842s-0.368 0.737-0.421 1.105c-0.053 0.526 0.316 0.632 1.211 0.368l0.368-0.105c0.632-0.211 1.105-0.158 1.316 0.158 0.263 0.316 0.316 0.895 0.211 1.737-0.105 1-0.474 2-1 2.895-0.526 0.842-1.211 1.579-2 2.105-0.263 0.158-0.579 0.316-0.842 0.474-0.211 0.105-0.474 0.158-0.684 0.158-0.053 0.158-0.158 0.316-0.263 0.474-0.105 0.105-0.211 0.211-0.316 0.316-0.211 0.158-0.368 0.158-0.421 0.105s-0.105-0.316-0.053-0.632l0.211-2v-0.105c0.053-0.316 0.105-0.579 0.211-0.895 0.105-0.211 0.263-0.421 0.474-0.526 0.211-0.158 0.368 0 0.474 0.421l0.053 0.263c0.105 0.368 0.211 0.579 0.421 0.632 0.316 0.053 0.632-0.053 0.842-0.263 0.316-0.211 0.579-0.474 0.789-0.842 0.211-0.316 0.316-0.684 0.368-1.105 0.105-0.632-0.263-0.842-1.053-0.632-0.211 0.053-0.421 0.105-0.526 0.158-0.632 0.158-1.105 0.105-1.316-0.158-0.263-0.474-0.316-1.053-0.158-1.579 0.158-1 0.474-2 1-2.842 0.474-0.842 1.105-1.579 1.895-2.105 0.211-0.158 0.474-0.263 0.684-0.316 0.368-0.211 0.579-0.211 0.789-0.211v0.053z"></path>
<path fill="#fff" style="fill: var(--color1, #fff)" d="M39.053 14.368c0.842-0.579 1.526-0.632 1.947-0.211s0.579 1.263 0.421 2.526c-0.158 1.263-0.579 2.474-1.211 3.526-0.526 1-1.316 1.895-2.263 2.526-0.842 0.579-1.526 0.632-1.947 0.158-0.421-0.421-0.579-1.263-0.421-2.526s0.579-2.474 1.211-3.526c0.579-1 1.368-1.842 2.263-2.474v0zM38.842 16.158v0c-0.474 0.316-0.842 0.789-1.105 1.316-0.316 0.632-0.526 1.263-0.632 2-0.105 0.474-0.053 1 0.158 1.474 0.211 0.263 0.526 0.263 0.947 0 0.474-0.368 0.842-0.789 1.105-1.368 0.316-0.632 0.526-1.263 0.632-2 0.105-0.474 0.053-1-0.158-1.421-0.211-0.263-0.526-0.263-0.947 0v0z"></path>
<path fill="#fff" style="fill: var(--color1, #fff)" d="M44.895 13.737l-0.368 2.789 1.263-0.842c0.263-0.158 0.421-0.211 0.474-0.105s0.105 0.263 0.053 0.632c-0.053 0.316-0.105 0.579-0.263 0.842-0.105 0.211-0.316 0.421-0.526 0.579l-3 1.947c-0.263 0.158-0.421 0.211-0.474 0.105s-0.105-0.316-0.053-0.632c0.053-0.263 0.105-0.579 0.263-0.789 0.105-0.211 0.316-0.421 0.526-0.579l0.421-0.263 0.526-4.211-0.211 0.158c-0.263 0.158-0.421 0.211-0.474 0.105s-0.105-0.316-0.053-0.632c0.053-0.263 0.105-0.579 0.263-0.842 0.105-0.211 0.316-0.421 0.526-0.526l1.158-0.737c0.105-0.053 0.158-0.053 0.211-0.053s0.053 0.105 0.053 0.211l-0.158 1.263c0.368-0.737 0.842-1.474 1.316-2.158 0.316-0.421 0.684-0.842 1.158-1.158 0.368-0.211 0.632-0.263 0.789-0.158s0.211 0.421 0.158 0.842c-0.053 0.368-0.158 0.684-0.316 1-0.158 0.263-0.316 0.526-0.579 0.684-0.158 0.105-0.368 0.158-0.526 0.105s-0.263-0.053-0.421 0c-0.263 0.211-0.474 0.474-0.632 0.789-0.368 0.368-0.684 0.895-1.105 1.632v0z"></path>
</defs>
</svg>
