<svg aria-hidden="true" style="position: absolute; width: 0; height: 0; overflow: hidden;" version="1.1" xmlns="http://www.w3.org/2000/svg" xmlns:xlink="http://www.w3.org/1999/xlink">
<defs>
<symbol id="icon-arrow" viewBox="0 0 64 32">
<path d="M5.388 0.832c-0.305-0.266-0.663-0.473-1.055-0.611s-0.809-0.203-1.229-0.192c-0.419 0.011-0.832 0.098-1.215 0.256s-0.728 0.384-1.016 0.665c-0.288 0.281-0.513 0.612-0.663 0.973s-0.22 0.746-0.208 1.133c0.012 0.387 0.106 0.767 0.278 1.12s0.417 0.672 0.721 0.937l28.738 25.033c0.593 0.517 1.378 0.805 2.194 0.805s1.601-0.288 2.194-0.805l28.742-25.033c0.311-0.264 0.563-0.582 0.74-0.937s0.276-0.738 0.291-1.128c0.015-0.39-0.054-0.779-0.203-1.144s-0.376-0.699-0.666-0.983-0.639-0.511-1.026-0.67c-0.386-0.158-0.803-0.244-1.227-0.253s-0.843 0.061-1.237 0.203-0.753 0.356-1.056 0.628l-26.551 23.125-26.545-23.125z"></path>
</symbol>
<symbol id="icon-bascet" viewBox="0 0 32 32">
<path d="M31.739 8.875c-0.092-0.13-0.213-0.237-0.355-0.31s-0.298-0.112-0.458-0.112h-21.223l-1.607-5.54c-0.63-2.182-2.127-2.417-2.741-2.417h-4.284c-0.549 0-0.993 0.445-0.993 0.993s0.445 0.993 0.993 0.993h4.283c0.136 0 0.549 0 0.831 0.974l5.527 20.311c0.12 0.428 0.511 0.724 0.956 0.724h13.499c0.419 0 0.793-0.263 0.935-0.657l4.758-14.053c0.109-0.304 0.064-0.643-0.122-0.907v0zM25.47 22.506h-12.046l-3.161-12.067h19.253l-4.046 12.067zM23.5 26.504c-1.381 0-2.5 1.119-2.5 2.5s1.119 2.5 2.5 2.5c1.381 0 2.5-1.119 2.5-2.5s-1.119-2.5-2.5-2.5zM14.5 26.504c-1.381 0-2.5 1.119-2.5 2.5s1.119 2.5 2.5 2.5c1.381 0 2.5-1.119 2.5-2.5s-1.119-2.5-2.5-2.5z"></path>
</symbol>
<symbol id="icon-magnify" viewBox="0 0 32 32">
<path d="M19.93 22.052l5.51 5.508c0.137 0.147 0.303 0.266 0.487 0.348s0.383 0.126 0.584 0.13c0.201 0.004 0.401-0.033 0.588-0.109s0.356-0.188 0.499-0.33c0.142-0.142 0.255-0.312 0.33-0.499s0.113-0.387 0.109-0.588c-0.004-0.201-0.048-0.4-0.13-0.584s-0.2-0.35-0.348-0.487l-5.51-5.508c1.496-2.030 2.169-4.551 1.885-7.057s-1.505-4.812-3.417-6.456c-1.912-1.644-4.375-2.505-6.896-2.41s-4.912 1.139-6.695 2.922c-1.783 1.783-2.827 4.175-2.922 6.695s0.766 4.983 2.41 6.896c1.644 1.912 3.95 3.133 6.456 3.417s5.027-0.389 7.057-1.885zM21 14c0 1.857-0.737 3.637-2.050 4.95s-3.093 2.050-4.95 2.050-3.637-0.737-4.95-2.050c-1.313-1.313-2.050-3.093-2.050-4.95s0.737-3.637 2.050-4.95c1.313-1.313 3.093-2.050 4.95-2.050s3.637 0.737 4.95 2.050c1.313 1.313 2.050 3.093 2.050 4.95z"></path>
</symbol>
<symbol id="icon-menu_close" viewBox="0 0 32 32">
<path d="M8.534 23.815l-0.925-0.925 7.314-7.314-7.314-7.314 0.925-0.925 7.314 7.314 7.314-7.314 0.925 0.925-7.314 7.314 7.314 7.314-0.925 0.925-7.314-7.314-7.314 7.314z"></path>
</symbol>
<symbol id="icon-menu_open" viewBox="0 0 44 32">
<path d="M0 30.587v-4.831h44.308v4.831h-44.308zM0 18.51v-4.831h44.308v4.831h-44.308zM0 6.433v-4.831h44.308v4.831h-44.308z"></path>
</symbol>
<symbol id="icon-message" viewBox="0 0 32 32">
<path fill="none" stroke-linejoin="round" stroke-linecap="round" stroke-miterlimit="4" stroke-width="2.3704" stroke="black" d="M10.667 12h10.667M10.667 17.333h8M24 5.333c1.061 0 2.078 0.421 2.828 1.172s1.172 1.768 1.172 2.828v10.667c0 1.061-0.421 2.078-1.172 2.828s-1.768 1.172-2.828 1.172h-6.667l-6.667 4v-4h-2.667c-1.061 0-2.078-0.421-2.828-1.172s-1.172-1.768-1.172-2.828v-10.667c0-1.061 0.421-2.078 1.172-2.828s1.768-1.172 2.828-1.172h16z"></path>
</symbol>
<symbol id="icon-phone" viewBox="0 0 30 32">
<path fill="#fefefe" style="fill: var(--color1, #fefefe)" d="M27.261 21.501l-4.273-0.479c-0.502-0.058-1.012-0.003-1.49 0.16s-0.912 0.43-1.27 0.782l-3.096 3.038c-4.776-2.384-8.658-6.193-11.087-10.879l3.112-3.054c0.723-0.71 1.077-1.7 0.959-2.707l-0.488-4.16c-0.095-0.805-0.489-1.548-1.106-2.087s-1.415-0.836-2.242-0.835h-2.911c-1.901 0-3.483 1.552-3.365 3.417 0.892 14.099 12.382 25.358 26.733 26.233 1.901 0.116 3.482-1.436 3.482-3.302v-2.856c0.017-1.667-1.262-3.071-2.961-3.269z"></path>
</symbol>
<symbol id="icon-logo" viewBox="0 0 48 32">
<path fill="#fff" style="fill: var(--color1, #fff)" d="M24.105 0l1.842 15.053h-3.632l1.789-15.053z"></path>
<path fill="#fff" style="fill: var(--color1, #fff)" d="M0.947 25.158c-0.105 0.158-0.211 0.316-0.316 0.474-0.105 0.105-0.211 0.211-0.316 0.316-0.158 0.105-0.263 0.105-0.316 0-0.053-0.211-0.053-0.474 0-0.684l0.158-1.211c0.053-0.316 0.105-0.632 0.211-0.895 0.105-0.211 0.263-0.421 0.421-0.526 0.211-0.158 0.368-0.105 0.474 0.158 0.053 0.105 0.105 0.211 0.158 0.263 0.158 0.158 0.316 0.211 0.526 0.158 0.263-0.053 0.526-0.158 0.789-0.316s0.474-0.421 0.632-0.684c0.158-0.263 0.263-0.526 0.316-0.789 0.053-0.474-0.316-0.526-1.105-0.158-0.158 0.105-0.316 0.158-0.421 0.211-0.579 0.263-1.053 0.316-1.263 0.105-0.263-0.211-0.316-0.684-0.263-1.421 0.105-0.842 0.368-1.632 0.789-2.316s1-1.316 1.632-1.737c0.211-0.158 0.474-0.263 0.684-0.368s0.474-0.158 0.737-0.211c0.053-0.158 0.158-0.316 0.263-0.474 0.105-0.105 0.158-0.211 0.316-0.316s0.263-0.105 0.316 0c0.053 0.211 0.105 0.421 0.053 0.632l-0.158 1.105c0 0.211-0.105 0.474-0.211 0.684 0 0.053-0.158 0.211-0.316 0.316s-0.368 0.053-0.684-0.158c-0.316-0.211-0.684-0.158-1 0.053-0.263 0.158-0.474 0.421-0.684 0.684-0.158 0.211-0.263 0.526-0.316 0.789-0.053 0.421 0.211 0.474 0.842 0.211l0.421-0.211c0.789-0.368 1.316-0.421 1.579-0.211s0.368 0.684 0.211 1.474c-0.105 0.895-0.421 1.737-0.895 2.474s-1.053 1.368-1.789 1.895c-0.263 0.158-0.526 0.316-0.789 0.474-0.158 0.053-0.421 0.158-0.684 0.211v0z"></path>
<path fill="#fff" style="fill: var(--color1, #fff)" d="M7.421 17.632c0 0.579 0.105 1 0.368 1.158s0.579 0.053 1-0.211c0.526-0.368 1-0.895 1.368-1.421 0.263-0.368 0.526-0.737 0.842-1.053 0.158-0.105 0.211-0.053 0.316 0.053 0.053 0.158 0.105 0.368 0.053 0.526-0.158 0.737-0.474 1.368-0.947 1.947-0.526 0.737-1.158 1.368-1.947 1.842-0.842 0.579-1.526 0.632-1.947 0.211s-0.579-1.316-0.421-2.632c0.158-1.316 0.579-2.526 1.211-3.684 0.526-1.053 1.316-1.947 2.263-2.632 0.789-0.526 1.368-0.579 1.789-0.158s0.526 1.211 0.421 2.316c0 0.263-0.105 0.579-0.211 0.842-0.158 0.263-0.421 0.474-0.684 0.632l-3.474 2.263zM10.526 14.263v0c0-0.526-0.105-0.842-0.316-1s-0.526-0.053-0.947 0.211c-0.421 0.263-0.737 0.632-1 1.053-0.316 0.526-0.526 1.053-0.684 1.632l2.947-1.895z"></path>
<path fill="#fff" style="fill: var(--color1, #fff)" d="M17.316 10.947l0.632-4.947-0.316 0.211c-0.211 0.158-0.421 0.211-0.474 0.105-0.105-0.105-0.105-0.316-0.053-0.632s0.105-0.632 0.263-0.895c0.105-0.211 0.316-0.421 0.526-0.579l1.526-1.053c0.211-0.158 0.368-0.211 0.474-0.105s0.105 0.316 0.053 0.684c-0.053 0.263-0.105 0.579-0.263 0.842-0.105 0.211-0.263 0.368-0.474 0.526l-0.105 0.053-1.053 8.158c0 0.211-0.053 0.368-0.105 0.579-0.053 0.105-0.158 0.211-0.263 0.263l-0.526 0.368c-0.158 0.105-0.263 0.158-0.368 0.158s-0.105-0.053-0.158-0.211l-1.421-5.105-0.474 4.895 0.316-0.211c0.211-0.158 0.368-0.211 0.474-0.105 0.053 0.105 0.105 0.316 0.053 0.632s-0.105 0.579-0.263 0.842c-0.105 0.211-0.316 0.421-0.526 0.579l-1.526 1.053c-0.211 0.158-0.368 0.211-0.474 0.105s-0.105-0.316-0.053-0.684c0.053-0.263 0.105-0.579 0.263-0.842 0.105-0.211 0.263-0.368 0.474-0.526l0.105-0.053 0.737-6.632-0.105 0.053c-0.158 0.105-0.316 0.158-0.368 0-0.105-0.211-0.105-0.421-0.053-0.632 0.053-0.316 0.105-0.579 0.263-0.842 0.105-0.211 0.316-0.421 0.526-0.579l0.895-0.632c0.211-0.158 0.368-0.211 0.421-0.158 0.105 0.105 0.158 0.263 0.158 0.421l1.263 4.895z"></path>
<path fill="#fff" style="fill: var(--color1, #fff)" d="M24.105 32l-1.789-15.316h3.632l-1.842 15.316z"></path>
<path fill="#fff" style="fill: var(--color1, #fff)" d="M34.105 15.842c0.053-0.158 0.158-0.368 0.211-0.526 0.105-0.105 0.211-0.211 0.316-0.316 0.211-0.158 0.316-0.158 0.368-0.053 0.053 0.211 0.053 0.474 0 0.684l-0.211 1.632v0.105c-0.053 0.263-0.105 0.526-0.211 0.789-0.105 0.211-0.263 0.368-0.421 0.474-0.263 0.158-0.421 0.053-0.474-0.263 0-0.053 0-0.105 0-0.105-0.053-0.263-0.158-0.474-0.368-0.526s-0.474 0-0.632 0.158c-0.316 0.211-0.632 0.526-0.842 0.842s-0.368 0.737-0.421 1.105c-0.053 0.526 0.316 0.632 1.211 0.368l0.368-0.105c0.632-0.211 1.105-0.158 1.316 0.158 0.263 0.316 0.316 0.895 0.211 1.737-0.105 1-0.474 2-1 2.895-0.526 0.842-1.211 1.579-2 2.105-0.263 0.158-0.579 0.316-0.842 0.474-0.211 0.105-0.474 0.158-0.684 0.158-0.053 0.158-0.158 0.316-0.263 0.474-0.105 0.105-0.211 0.211-0.316 0.316-0.211 0.158-0.368 0.158-0.421 0.105s-0.105-0.316-0.053-0.632l0.211-2v-0.105c0.053-0.316 0.105-0.579 0.211-0.895 0.105-0.211 0.263-0.421 0.474-0.526 0.211-0.158 0.368 0 0.474 0.421l0.053 0.263c0.105 0.368 0.211 0.579 0.421 0.632 0.316 0.053 0.632-0.053 0.842-0.263 0.316-0.211 0.579-0.474 0.789-0.842 0.211-0.316 0.316-0.684 0.368-1.105 0.105-0.632-0.263-0.842-1.053-0.632-0.211 0.053-0.421 0.105-0.526 0.158-0.632 0.158-1.105 0.105-1.316-0.158-0.263-0.474-0.316-1.053-0.158-1.579 0.158-1 0.474-2 1-2.842 0.474-0.842 1.105-1.579 1.895-2.105 0.211-0.158 0.474-0.263 0.684-0.316 0.368-0.211 0.579-0.211 0.789-0.211v0.053z"></path>
<path fill="#fff" style="fill: var(--color1, #fff)" d="M39.053 14.368c0.842-0.579 1.526-0.632 1.947-0.211s0.579 1.263 0.421 2.526c-0.158 1.263-0.579 2.474-1.211 3.526-0.526 1-1.316 1.895-2.263 2.526-0.842 0.579-1.526 0.632-1.947 0.158-0.421-0.421-0.579-1.263-0.421-2.526s0.579-2.474 1.211-3.526c0.579-1 1.368-1.842 2.263-2.474v0zM38.842 16.158v0c-0.474 0.316-0.842 0.789-1.105 1.316-0.316 0.632-0.526 1.263-0.632 2-0.105 0.474-0.053 1 0.158 1.474 0.211 0.263 0.526 0.263 0.947 0 0.474-0.368 0.842-0.789 1.105-1.368 0.316-0.632 0.526-1.263 0.632-2 0.105-0.474 0.053-1-0.158-1.421-0.211-0.263-0.526-0.263-0.947 0v0z"></path>
<path fill="#fff" style="fill: var(--color1, #fff)" d="M44.895 13.737l-0.368 2.789 1.263-0.842c0.263-0.158 0.421-0.211 0.474-0.105s0.105 0.263 0.053 0.632c-0.053 0.316-0.105 0.579-0.263 0.842-0.105 0.211-0.316 0.421-0.526 0.579l-3 1.947c-0.263 0.158-0.421 0.211-0.474 0.105s-0.105-0.316-0.053-0.632c0.053-0.263 0.105-0.579 0.263-0.789 0.105-0.211 0.316-0.421 0.526-0.579l0.421-0.263 0.526-4.211-0.211 0.158c-0.263 0.158-0.421 0.211-0.474 0.105s-0.105-0.316-0.053-0.632c0.053-0.263 0.105-0.579 0.263-0.842 0.105-0.211 0.316-0.421 0.526-0.526l1.158-0.737c0.105-0.053 0.158-0.053 0.211-0.053s0.053 0.105 0.053 0.211l-0.158 1.263c0.368-0.737 0.842-1.474 1.316-2.158 0.316-0.421 0.684-0.842 1.158-1.158 0.368-0.211 0.632-0.263 0.789-0.158s0.211 0.421 0.158 0.842c-0.053 0.368-0.158 0.684-0.316 1-0.158 0.263-0.316 0.526-0.579 0.684-0.158 0.105-0.368 0.158-0.526 0.105s-0.263-0.053-0.421 0c-0.263 0.211-0.474 0.474-0.632 0.789-0.368 0.368-0.684 0.895-1.105 1.632v0z"></path>
</symbol>
<symbol id="icon-logo_text" viewBox="0 0 132 32">
<path fill="#fff" style="fill: var(--color1, #fff)" d="M7.531 21.823v-8.643h-1.803v8.643h-5.474v-21.641h5.474v8.27h1.803v-8.27h5.474v21.641h-5.474z"></path>
<path fill="#fff" style="fill: var(--color1, #fff)" d="M23.015 21.823v-16.945h-2.081v16.945h-5.474v-21.641h13.021v21.641h-5.466z"></path>
<path fill="#fff" style="fill: var(--color1, #fff)" d="M38.498 21.823v-16.945h-2.081v16.945h-5.474v-21.641h13.021v21.641h-5.466z"></path>
<path fill="#fff" style="fill: var(--color1, #fff)" d="M53.815 0c0.051-0.001 0.111-0.002 0.171-0.002 0.898 0 1.757 0.17 2.546 0.479l-0.047-0.016c0.72 0.289 1.332 0.71 1.833 1.237l0.002 0.002c0.46 0.495 0.82 1.088 1.046 1.745l0.010 0.035c0.217 0.618 0.342 1.331 0.342 2.073 0 0.003 0 0.006 0 0.009v-0 2.924h-5.061v-1.589c0.013-0.122 0.021-0.264 0.021-0.407 0-0.422-0.066-0.828-0.188-1.21l0.008 0.028c-0.091-0.346-0.401-0.596-0.769-0.596-0.009 0-0.018 0-0.026 0l0.001-0c-0.020-0.002-0.044-0.004-0.068-0.004-0.254 0-0.474 0.145-0.581 0.357l-0.002 0.004c-0.11 0.231-0.175 0.502-0.175 0.789 0 0.002 0 0.004 0 0.006v-0 10.423c-0 0.011-0.001 0.023-0.001 0.036 0 0.259 0.077 0.499 0.21 0.7l-0.003-0.005c0.133 0.181 0.345 0.296 0.584 0.296 0.021 0 0.042-0.001 0.062-0.003l-0.003 0q0.373 0 0.659-0.5c0.167-0.391 0.264-0.845 0.264-1.323 0-0.124-0.007-0.247-0.020-0.369l0.001 0.015v-1.954h5.212c0 0.006 0 0.014 0 0.022 0 1.673-0.113 3.32-0.331 4.933l0.021-0.188c-0.206 0.794-0.554 1.488-1.019 2.086l0.010-0.013c-0.491 0.61-1.111 1.095-1.82 1.417l-0.031 0.013c-0.8 0.344-1.731 0.544-2.709 0.544-0.075 0-0.151-0.001-0.226-0.004l0.011 0c-0.122 0.008-0.265 0.013-0.408 0.013-1.569 0-3.010-0.55-4.14-1.468l0.012 0.010c-0.989-0.967-1.602-2.315-1.602-3.806 0-0.131 0.005-0.261 0.014-0.39l-0.001 0.017v-10.677c-0.004-0.081-0.007-0.176-0.007-0.271 0-1.507 0.61-2.871 1.596-3.86l-0 0c1.116-0.993 2.596-1.6 4.217-1.6 0.135 0 0.268 0.004 0.401 0.012l-0.018-0.001z"></path>
<path fill="#fff" style="fill: var(--color1, #fff)" d="M96.651 0c0.046-0.001 0.101-0.002 0.156-0.002 0.898 0 1.757 0.17 2.545 0.479l-0.047-0.016c0.72 0.29 1.332 0.71 1.833 1.237l0.002 0.002c0.459 0.495 0.82 1.089 1.046 1.745l0.010 0.035c0.225 0.619 0.358 1.334 0.365 2.078l0 0.003v2.924h-5.069v-1.589c0.013-0.122 0.021-0.264 0.021-0.407 0-0.422-0.066-0.828-0.188-1.21l0.008 0.028c-0.091-0.346-0.401-0.596-0.769-0.596-0.009 0-0.018 0-0.026 0l0.001-0c-0.020-0.002-0.044-0.004-0.068-0.004-0.254 0-0.474 0.145-0.581 0.357l-0.002 0.004c-0.11 0.231-0.175 0.502-0.175 0.789 0 0.002 0 0.004 0 0.006v-0 10.423c-0 0.011-0.001 0.023-0.001 0.036 0 0.259 0.077 0.499 0.21 0.7l-0.003-0.005c0.133 0.181 0.345 0.296 0.584 0.296 0.021 0 0.042-0.001 0.062-0.003l-0.003 0c0.254 0 0.469-0.167 0.651-0.5 0.167-0.391 0.264-0.846 0.264-1.324 0-0.124-0.007-0.247-0.019-0.367l0.001 0.015v-1.954h5.212c0 0.005 0 0.012 0 0.018 0 1.674-0.113 3.322-0.331 4.937l0.021-0.188c-0.207 0.794-0.555 1.488-1.019 2.087l0.010-0.013c-0.486 0.608-1.101 1.093-1.804 1.417l-0.031 0.013c-0.8 0.344-1.731 0.544-2.709 0.544-0.075 0-0.151-0.001-0.226-0.004l0.011 0c-0.122 0.008-0.265 0.013-0.409 0.013-1.569 0-3.010-0.55-4.14-1.468l0.012 0.010c-0.989-0.967-1.602-2.315-1.602-3.806 0-0.131 0.005-0.261 0.014-0.39l-0.001 0.017v-10.677c-0.004-0.081-0.007-0.176-0.007-0.271 0-1.507 0.61-2.871 1.596-3.86l-0 0c1.116-0.993 2.596-1.6 4.217-1.6 0.135 0 0.268 0.004 0.401 0.012l-0.018-0.001z"></path>
<path fill="#fff" style="fill: var(--color1, #fff)" d="M61.895 21.823v-21.641h11.162v4.695h-5.688v3.607h4.973v4.695h-4.973v3.948h5.688v4.695h-11.162z"></path>
<path fill="#fff" style="fill: var(--color1, #fff)" d="M82.51 21.823v-8.643h-1.803v8.643h-5.474v-21.641h5.474v8.27h1.803v-8.27h5.474v21.641h-5.474z"></path>
<path fill="#fff" style="fill: var(--color1, #fff)" d="M117.14 16.167c0.009 0.119 0.014 0.259 0.014 0.399 0 1.547-0.631 2.946-1.65 3.954l-0.001 0c-1.267 0.932-2.858 1.491-4.58 1.491s-3.313-0.559-4.602-1.507l0.022 0.015c-0.992-1.018-1.604-2.41-1.604-3.946 0-0.143 0.005-0.286 0.016-0.426l-0.001 0.019v-10.328c-0.001-0.037-0.001-0.080-0.001-0.123 0-0.862 0.167-1.686 0.47-2.439l-0.016 0.044c0.287-0.725 0.711-1.341 1.245-1.841l0.003-0.003c0.543-0.485 1.193-0.863 1.909-1.094l0.038-0.011c0.728-0.237 1.566-0.374 2.436-0.374 0.037 0 0.075 0 0.112 0.001l-0.006-0q6.205 0 6.205 5.815v10.328zM111.666 5.688v0c0.005-0.035 0.009-0.075 0.009-0.116 0-0.23-0.098-0.437-0.254-0.583l-0.001-0c-0.138-0.105-0.311-0.169-0.499-0.175l-0.001-0c-0.2 0.008-0.383 0.072-0.536 0.177l0.003-0.002c-0.174 0.147-0.283 0.365-0.283 0.608 0 0.032 0.002 0.064 0.006 0.095l-0-0.004v10.638q0 0.564 0.278 0.715c0.152 0.094 0.335 0.152 0.531 0.159l0.002 0c0.187-0.004 0.36-0.063 0.504-0.161l-0.003 0.002q0.246-0.151 0.246-0.715v-10.638z"></path>
<path fill="#fff" style="fill: var(--color1, #fff)" d="M126.109 0.183c0.019-0 0.040-0 0.062-0 0.825 0 1.624 0.107 2.386 0.309l-0.065-0.015c0.746 0.196 1.39 0.558 1.918 1.044l-0.003-0.003c0.563 0.541 0.997 1.213 1.253 1.967l0.010 0.035c0.289 0.871 0.456 1.873 0.456 2.915 0 0.093-0.001 0.185-0.004 0.277l0-0.013q0 3.329-1.525 5.1c-1.038 1.102-2.507 1.787-4.137 1.787-0.149 0-0.297-0.006-0.443-0.017l0.019 0.001h-1.16v8.254h-5.315v-21.641zM124.91 4.687v0 4.385h0.413c0.018 0.001 0.039 0.001 0.060 0.001 0.438 0 0.825-0.219 1.058-0.553l0.003-0.004c0.256-0.455 0.407-0.998 0.407-1.577 0-0.091-0.004-0.181-0.011-0.269l0.001 0.012c0.002-0.038 0.003-0.083 0.003-0.128 0-0.481-0.119-0.935-0.328-1.333l0.008 0.016c-0.216-0.336-0.588-0.555-1.011-0.555-0.044 0-0.087 0.002-0.13 0.007l0.005-0z"></path>
<path fill="#fff" style="fill: var(--color1, #fff)" d="M2.034 30.077v-2.081h-0.961v2.081h-1.073v-4.918h1.073v1.978h0.961v-1.978h1.073v4.918h-1.072z"></path>
<path fill="#fff" style="fill: var(--color1, #fff)" d="M5.887 29.688c-0.099 0.147-0.234 0.264-0.391 0.339l-0.006 0.003c-0.147 0.070-0.32 0.111-0.503 0.111-0.002 0-0.004 0-0.006 0h0c-0.012 0-0.026 0.001-0.041 0.001-0.188 0-0.365-0.044-0.522-0.123l0.007 0.003c-0.147-0.078-0.267-0.189-0.355-0.322l-0.002-0.004c-0.090-0.136-0.156-0.296-0.189-0.468l-0.001-0.008c-0.035-0.17-0.056-0.365-0.056-0.565 0-0.005 0-0.010 0-0.015v0.001c0-0.003-0-0.006-0-0.010 0-0.197 0.026-0.388 0.075-0.57l-0.003 0.015c0.050-0.189 0.135-0.354 0.248-0.495l-0.002 0.003c0.119-0.147 0.268-0.265 0.437-0.346l0.008-0.003c0.189-0.086 0.41-0.136 0.643-0.136 0.020 0 0.039 0 0.059 0.001l-0.003-0h0.628v-0.54c0.001-0.012 0.002-0.026 0.002-0.040 0-0.113-0.036-0.218-0.098-0.303l0.001 0.002c-0.089-0.081-0.207-0.131-0.337-0.131-0.021 0-0.042 0.001-0.062 0.004l0.002-0c-0.114 0.003-0.218 0.042-0.303 0.104l0.002-0.001c-0.109 0.086-0.183 0.212-0.198 0.355l-0 0.002-0.945-0.334c0.078-0.321 0.252-0.594 0.49-0.793l0.002-0.002c0.261-0.195 0.589-0.311 0.945-0.311 0.025 0 0.051 0.001 0.076 0.002l-0.004-0c0.046-0.005 0.1-0.007 0.155-0.007 0.366 0 0.704 0.119 0.978 0.32l-0.005-0.003c0.241 0.259 0.389 0.607 0.389 0.99 0 0.052-0.003 0.103-0.008 0.153l0.001-0.006v3.519h-1.072v-0.381zM5.887 27.909h-0.397c-0 0-0.001 0-0.001 0-0.16 0-0.307 0.057-0.421 0.152l0.001-0.001c-0.12 0.117-0.195 0.28-0.195 0.461 0 0.025 0.001 0.050 0.004 0.074l-0-0.003c-0.001 0.012-0.001 0.026-0.001 0.040 0 0.14 0.052 0.268 0.137 0.366l-0.001-0.001c0.087 0.089 0.207 0.144 0.341 0.144 0.009 0 0.017-0 0.026-0.001l-0.001 0c0.008 0 0.018 0.001 0.027 0.001 0.147 0 0.279-0.065 0.37-0.167l0-0.001c0.090-0.113 0.144-0.257 0.144-0.414 0-0.011-0-0.022-0.001-0.033l0 0.002v-0.612z"></path>
<path fill="#fff" style="fill: var(--color1, #fff)" d="M9.184 28.417l0.27-1.406 0.357-1.827h1.104l-1.382 5.648c-0.074 0.334-0.23 0.625-0.446 0.859l0.001-0.001c-0.21 0.194-0.492 0.313-0.801 0.313-0.028 0-0.056-0.001-0.084-0.003l0.004 0h-0.413v-0.945h0.222c0.005 0 0.011 0 0.017 0 0.133 0 0.254-0.055 0.341-0.143l0-0c0.119-0.158 0.203-0.349 0.237-0.557l0.001-0.007 0.072-0.31-1.263-4.878h1.144l0.31 1.827 0.27 1.43z"></path>
<path fill="#fff" style="fill: var(--color1, #fff)" d="M13.251 28.075l-0.262 0.103-0.278 0.072-0.254 0.048h-0.183c-0.022 0.002-0.049 0.003-0.075 0.003-0.279 0-0.533-0.11-0.72-0.289l0 0c-0.175-0.206-0.281-0.475-0.281-0.769 0-0.031 0.001-0.062 0.004-0.093l-0 0.004v-1.994h1.072v1.676q0 0.5 0.429 0.5c0.198-0.008 0.38-0.066 0.537-0.162l-0.005 0.003v-2.018h1.065v4.918h-1.049v-2.002z"></path>
<path fill="#fff" style="fill: var(--color1, #fff)" d="M17.176 30.077v-2.081h-0.961v2.081h-1.072v-4.918h1.072v1.978h0.961v-1.978h1.073v4.918h-1.073z"></path>
<path fill="#fff" style="fill: var(--color1, #fff)" d="M20.655 25.080c0.017-0.001 0.037-0.001 0.056-0.001 0.222 0 0.434 0.038 0.632 0.108l-0.013-0.004c0.177 0.066 0.328 0.163 0.453 0.286l-0-0c0.115 0.115 0.205 0.256 0.26 0.413l0.002 0.008c0.054 0.152 0.091 0.328 0.103 0.511l0 0.006c0.027 0.188 0.044 0.408 0.048 0.631l0 0.004c0 0.23 0 0.445 0 0.636v0.262q0 0.23 0 0.461c0 0.151 0 0.302 0 0.445-0.023 0.249-0.099 0.476-0.218 0.675l0.004-0.007c-0.1 0.161-0.231 0.294-0.384 0.394l-0.005 0.003c-0.139 0.088-0.302 0.155-0.476 0.189l-0.009 0.001c-0.151 0.030-0.325 0.048-0.502 0.048-0.002 0-0.004 0-0.007 0h0c-0.010 0-0.023 0-0.035 0-0.204 0-0.399-0.035-0.581-0.099l0.012 0.004c-0.166-0.060-0.308-0.147-0.43-0.255l0.001 0.001c-0.111-0.101-0.202-0.222-0.267-0.358l-0.003-0.007c-0.060-0.126-0.107-0.273-0.134-0.427l-0.002-0.010c0-0.087 0-0.183 0-0.294s0-0.222 0-0.342 0-0.238 0-0.365v-0.342c0-0.159 0-0.326 0-0.493s0-0.334 0-0.485 0-0.294 0.048-0.429c0.015-0.118 0.043-0.226 0.083-0.327l-0.003 0.009c0.099-0.26 0.273-0.473 0.496-0.617l0.005-0.003c0.245-0.151 0.542-0.24 0.86-0.24 0.027 0 0.054 0.001 0.081 0.002l-0.004-0zM20.655 26.073v0c-0.007-0-0.015-0.001-0.023-0.001-0.14 0-0.263 0.072-0.334 0.182l-0.001 0.002c-0.044 0.076-0.079 0.163-0.102 0.255l-0.001 0.007c-0.023 0.092-0.040 0.2-0.047 0.312l-0 0.006c0 0.119 0 0.254 0 0.405v0.564q0 0.27 0 0.516c0.001 0.141 0.018 0.278 0.050 0.409l-0.002-0.012c0.031 0.112 0.086 0.208 0.159 0.286l-0-0c0.074 0.070 0.174 0.113 0.284 0.113 0.012 0 0.024-0.001 0.036-0.002l-0.002 0c0.003 0 0.006 0 0.009 0 0.1 0 0.191-0.036 0.262-0.096l-0.001 0c0.071-0.059 0.124-0.137 0.15-0.227l0.001-0.003c0.001-0.023 0.002-0.049 0.002-0.075s-0.001-0.053-0.002-0.079l0 0.004q0-0.111 0-0.278c0-0.111 0-0.23 0-0.35s0-0.254 0-0.381 0-0.461 0-0.675c0-0.001 0-0.001 0-0.002 0-0.176-0.017-0.349-0.050-0.515l0.003 0.017c-0.010-0.069-0.036-0.131-0.072-0.184l0.001 0.001c-0.059-0.133-0.19-0.223-0.342-0.223-0.008 0-0.017 0-0.025 0.001l0.001-0z"></path>
<path fill="#fff" style="fill: var(--color1, #fff)" d="M22.983 27.75v-0.937h2.765v0.937h-2.765z"></path>
<path fill="#fff" style="fill: var(--color1, #fff)" d="M28.624 30.077v-3.972h-0.945v3.972h-1.080v-4.933h3.098v4.933h-1.073z"></path>
<path fill="#fff" style="fill: var(--color1, #fff)" d="M32.437 25.088c0.139 0.001 0.273 0.021 0.399 0.058l-0.010-0.003c0.138 0.038 0.258 0.104 0.359 0.192l-0.001-0.001c0.113 0.107 0.205 0.237 0.267 0.382l0.003 0.007c0.080 0.186 0.134 0.402 0.151 0.629l0 0.007q0 0.222 0 0.548t0 0.667c0 0.294 0 0.588 0 0.89-0.012 0.268-0.046 0.522-0.101 0.768l0.005-0.029c-0.031 0.131-0.072 0.244-0.124 0.352l0.005-0.010c-0.053 0.114-0.122 0.211-0.206 0.294l-0 0c-0.091 0.087-0.199 0.157-0.319 0.204l-0.007 0.002c-0.135 0.050-0.29 0.078-0.453 0.078s-0.318-0.029-0.462-0.081l0.009 0.003c-0.15-0.054-0.276-0.145-0.372-0.261l-0.001-0.001v2.185h-1.073v-6.832h1.057v0.373c0.080-0.152 0.203-0.273 0.353-0.347l0.005-0.002c0.136-0.061 0.296-0.096 0.463-0.096 0.010 0 0.021 0 0.031 0l-0.002-0zM32.048 26.137v0c-0.008-0-0.016-0.001-0.025-0.001-0.136 0-0.256 0.065-0.331 0.166l-0.001 0.001c-0.075 0.111-0.12 0.247-0.12 0.394 0 0.010 0 0.019 0.001 0.029l-0-0.001v1.589c0 0.111 0 0.215 0 0.318 0.001 0.081 0.018 0.157 0.049 0.226l-0.001-0.004c0.060 0.164 0.215 0.279 0.396 0.279 0.011 0 0.023-0 0.034-0.001l-0.001 0c0.008 0.001 0.017 0.001 0.026 0.001 0.158 0 0.294-0.094 0.355-0.229l0.001-0.002c0.055-0.148 0.089-0.319 0.095-0.498l0-0.003q0-0.342 0-0.794c0-0.302 0-0.548 0-0.794-0-0.158-0.033-0.308-0.090-0.445l0.003 0.008c-0.054-0.138-0.186-0.234-0.341-0.234-0.017 0-0.034 0.001-0.050 0.003l0.002-0z"></path>
<path fill="#fff" style="fill: var(--color1, #fff)" d="M35.917 25.080c0.016-0 0.036-0.001 0.055-0.001 0.222 0 0.435 0.038 0.633 0.108l-0.013-0.004c0.176 0.066 0.327 0.163 0.453 0.286l-0-0c0.115 0.116 0.204 0.256 0.26 0.413l0.002 0.008c0.054 0.152 0.091 0.328 0.103 0.511l0 0.006c0.027 0.188 0.045 0.408 0.048 0.632l0 0.004c0 0.23 0 0.445 0 0.636v0.262c0 0.151 0 0.302 0 0.461s0 0.302 0 0.445c-0.023 0.249-0.099 0.476-0.218 0.675l0.004-0.007c-0.1 0.161-0.231 0.294-0.384 0.394l-0.005 0.003c-0.139 0.088-0.302 0.155-0.476 0.189l-0.009 0.002c-0.151 0.030-0.324 0.048-0.501 0.048-0.003 0-0.005 0-0.008 0h0c-0.010 0-0.022 0-0.033 0-0.204 0-0.4-0.035-0.583-0.099l0.012 0.004c-0.166-0.060-0.308-0.146-0.43-0.255l0.001 0.001c-0.112-0.101-0.203-0.222-0.267-0.359l-0.003-0.007c-0.060-0.126-0.107-0.273-0.134-0.427l-0.001-0.010c0-0.087 0-0.183 0-0.294s0-0.222 0-0.342 0-0.238 0-0.365v-0.342q0-0.238 0-0.493c0-0.167 0-0.334 0-0.485s0-0.294 0.048-0.429c0.015-0.118 0.043-0.226 0.083-0.327l-0.003 0.009c0.099-0.26 0.273-0.473 0.496-0.617l0.005-0.003c0.245-0.151 0.542-0.24 0.86-0.24 0.027 0 0.054 0.001 0.081 0.002l-0.004-0zM35.917 26.073v0c-0.007-0-0.015-0.001-0.023-0.001-0.14 0-0.263 0.072-0.334 0.182l-0.001 0.002c-0.044 0.076-0.079 0.163-0.102 0.255l-0.001 0.007c-0.023 0.092-0.040 0.201-0.047 0.312l-0 0.006c0 0.119 0 0.254 0 0.405v0.564c0 0.183 0 0.35 0 0.516 0.001 0.141 0.018 0.278 0.050 0.409l-0.002-0.012c0.031 0.111 0.086 0.208 0.159 0.286l-0-0c0.080 0.065 0.182 0.104 0.294 0.104s0.214-0.039 0.295-0.104l-0.001 0.001c0.071-0.059 0.124-0.137 0.15-0.227l0.001-0.003c0.001-0.023 0.002-0.049 0.002-0.075s-0.001-0.053-0.002-0.079l0 0.004q0-0.111 0-0.278c0-0.111 0-0.23 0-0.35s0-0.254 0-0.381 0-0.461 0-0.675c-0-0.177-0.018-0.35-0.050-0.518l0.003 0.017c-0.010-0.069-0.036-0.131-0.072-0.184l0.001 0.001c-0.059-0.133-0.19-0.223-0.342-0.223-0.008 0-0.017 0-0.025 0.001l0.001-0z"></path>
<path fill="#fff" style="fill: var(--color1, #fff)" d="M40.477 30.077v-2.852h-0.024l-1.215 2.852h-1.041v-4.918h1.057v2.955h0.016l1.208-2.955h1.072v4.918h-1.072z"></path>
<path fill="#fff" style="fill: var(--color1, #fff)" d="M44.719 27.535c0.188 0.071 0.335 0.213 0.411 0.393l0.002 0.005c0.066 0.185 0.104 0.398 0.104 0.619 0 0.022-0 0.045-0.001 0.067l0-0.003c0.003 0.034 0.005 0.074 0.005 0.114 0 0.405-0.169 0.77-0.441 1.029l-0.001 0.001c-0.289 0.229-0.659 0.368-1.062 0.368-0.032 0-0.063-0.001-0.095-0.003l0.004 0c-0.025 0.001-0.055 0.002-0.085 0.002-0.375 0-0.719-0.13-0.99-0.346l0.003 0.002c-0.261-0.244-0.426-0.586-0.437-0.967l-0-0.002 1.049-0.159q0 0.524 0.485 0.524c0.002 0 0.005 0 0.007 0 0.131 0 0.248-0.058 0.326-0.15l0.001-0.001c0.085-0.107 0.137-0.244 0.137-0.394 0-0.015-0.001-0.030-0.002-0.045l0 0.002c0.001-0.015 0.001-0.033 0.001-0.051 0-0.162-0.042-0.314-0.115-0.446l0.002 0.005c-0.072-0.107-0.193-0.176-0.33-0.176-0.012 0-0.025 0.001-0.037 0.002l0.002-0h-0.365v-0.794h0.397q0.461 0 0.461-0.588c0-0.007 0.001-0.015 0.001-0.024 0-0.13-0.045-0.249-0.12-0.343l0.001 0.001c-0.080-0.088-0.196-0.144-0.324-0.144-0.009 0-0.018 0-0.027 0.001l0.001-0c-0.009-0.001-0.019-0.001-0.030-0.001-0.131 0-0.248 0.059-0.327 0.151l-0.001 0.001c-0.082 0.105-0.135 0.236-0.143 0.38l-0 0.002-0.985-0.191c0.017-0.38 0.188-0.717 0.452-0.952l0.001-0.001c0.263-0.2 0.596-0.32 0.956-0.32 0.030 0 0.059 0.001 0.088 0.002l-0.004-0c0.037-0.003 0.079-0.005 0.122-0.005 0.385 0 0.738 0.133 1.017 0.357l-0.003-0.003c0.279 0.249 0.454 0.609 0.454 1.010 0 0.017-0 0.033-0.001 0.049l0-0.002c-0.001 0.208-0.039 0.408-0.107 0.592l0.004-0.012c-0.073 0.196-0.225 0.348-0.416 0.419l-0.005 0.002z"></path>
<path fill="#fff" style="fill: var(--color1, #fff)" d="M46.022 30.077v-4.918h1.414c0.043-0.004 0.093-0.006 0.144-0.006 0.415 0 0.799 0.136 1.109 0.367l-0.005-0.004c0.251 0.235 0.407 0.569 0.407 0.94 0 0.027-0.001 0.054-0.002 0.081l0-0.004c0 0.003 0 0.005 0 0.008 0 0.194-0.047 0.377-0.13 0.538l0.003-0.007c-0.088 0.17-0.218 0.308-0.377 0.403l-0.005 0.003c0.195 0.082 0.347 0.234 0.427 0.424l0.002 0.005c0.071 0.18 0.111 0.389 0.111 0.607 0 0.010-0 0.020-0 0.030l0-0.002c0.003 0.036 0.005 0.077 0.005 0.119 0 0.404-0.166 0.77-0.434 1.032l-0 0c-0.318 0.232-0.717 0.372-1.149 0.372-0.054 0-0.108-0.002-0.161-0.006l0.007 0zM48.032 26.59v0c0.001-0.010 0.001-0.021 0.001-0.032 0-0.126-0.049-0.24-0.128-0.326l0 0c-0.115-0.089-0.262-0.143-0.421-0.143-0.006 0-0.011 0-0.017 0h-0.373v1.009h0.294c0.022 0.002 0.047 0.004 0.072 0.004 0.161 0 0.31-0.052 0.43-0.14l-0.002 0.001c0.089-0.088 0.144-0.21 0.144-0.345 0-0.010-0-0.020-0.001-0.030l0 0.001zM48.103 28.465v0c0-0.008 0.001-0.017 0.001-0.026 0-0.146-0.054-0.279-0.144-0.38l0.001 0.001c-0.114-0.096-0.262-0.154-0.424-0.154-0.024 0-0.048 0.001-0.071 0.004l0.003-0h-0.373v1.208h0.373c0.013 0.001 0.028 0.001 0.043 0.001 0.104 0 0.204-0.018 0.297-0.051l-0.006 0.002c0.077-0.031 0.141-0.080 0.19-0.142l0.001-0.001c0.045-0.058 0.076-0.128 0.087-0.204l0-0.002c0.004-0.038 0.006-0.082 0.006-0.127s-0.002-0.089-0.006-0.133l0 0.006z"></path>
<path fill="#fff" style="fill: var(--color1, #fff)" d="M51.448 25.080c0.017-0.001 0.037-0.001 0.056-0.001 0.222 0 0.434 0.038 0.632 0.108l-0.013-0.004c0.177 0.066 0.328 0.163 0.453 0.286l-0-0c0.115 0.115 0.205 0.256 0.26 0.413l0.002 0.008c0.054 0.152 0.091 0.328 0.103 0.51l0 0.006c0.027 0.188 0.044 0.408 0.048 0.632l0 0.004c0 0.23 0 0.445 0 0.636v0.262q0 0.23 0 0.461c0 0.151 0 0.302 0 0.445-0.023 0.249-0.099 0.476-0.218 0.675l0.004-0.007c-0.1 0.161-0.231 0.294-0.384 0.394l-0.005 0.003c-0.139 0.088-0.302 0.155-0.476 0.189l-0.009 0.002c-0.151 0.030-0.325 0.048-0.502 0.048-0.002 0-0.004 0-0.007 0h0c-0.010 0-0.023 0-0.035 0-0.204 0-0.399-0.035-0.581-0.099l0.012 0.004c-0.166-0.060-0.308-0.146-0.43-0.255l0.001 0.001c-0.112-0.101-0.203-0.222-0.267-0.359l-0.003-0.007c-0.060-0.126-0.107-0.273-0.134-0.426l-0.002-0.010c0-0.087 0-0.183 0-0.294s0-0.222 0-0.342 0-0.238 0-0.365v-0.342q0-0.238 0-0.493c0-0.167 0-0.334 0-0.485s0-0.294 0.048-0.429c0.015-0.118 0.043-0.226 0.083-0.327l-0.003 0.009c0.099-0.26 0.273-0.473 0.496-0.617l0.005-0.003c0.245-0.151 0.542-0.24 0.86-0.24 0.027 0 0.054 0.001 0.081 0.002l-0.004-0zM51.448 26.073v0c-0.007-0-0.015-0.001-0.023-0.001-0.14 0-0.263 0.072-0.334 0.182l-0.001 0.002c-0.044 0.076-0.079 0.163-0.102 0.255l-0.001 0.007c-0.022 0.091-0.039 0.2-0.047 0.311l-0 0.007c0 0.119 0 0.254 0 0.405v0.564q0 0.27 0 0.516c0 0.141 0.018 0.278 0.050 0.409l-0.002-0.012c0.031 0.111 0.086 0.208 0.159 0.286l-0-0c0.080 0.065 0.182 0.104 0.294 0.104s0.214-0.039 0.295-0.104l-0.001 0.001c0.071-0.059 0.124-0.137 0.15-0.227l0.001-0.003s0-0.079 0-0.151 0-0.167 0-0.278 0-0.23 0-0.35 0-0.254 0-0.381 0-0.461 0-0.675c-0-0.177-0.017-0.35-0.050-0.517l0.003 0.017c-0.011-0.069-0.036-0.131-0.072-0.184l0.001 0.002c-0.059-0.133-0.19-0.223-0.342-0.223-0.008 0-0.017 0-0.025 0.001l0.001-0z"></path>
<path fill="#fff" style="fill: var(--color1, #fff)" d="M57.057 29.108h0.421v2.113h-0.906v-1.144h-2.28v1.144h-0.906v-2.042l0.405-0.087c0.061-0.076 0.117-0.162 0.163-0.254l0.004-0.009c0.042-0.085 0.080-0.186 0.108-0.29l0.003-0.012c0.029-0.107 0.052-0.235 0.063-0.365l0.001-0.008c0-0.143 0-0.302 0-0.5l0.079-2.51h2.812v3.972zM55.198 26.113v0l-0.048 1.486c-0.006 0.339-0.034 0.665-0.085 0.985l0.005-0.040c-0.035 0.211-0.099 0.401-0.188 0.575l0.005-0.011h1.096v-2.995z"></path>
<path fill="#fff" style="fill: var(--color1, #fff)" d="M59.535 30.141c-0.011 0-0.023 0-0.035 0-0.197 0-0.387-0.029-0.566-0.083l0.014 0.004c-0.161-0.051-0.301-0.127-0.424-0.224l0.003 0.002c-0.11-0.086-0.203-0.189-0.275-0.305l-0.003-0.005c-0.064-0.108-0.116-0.232-0.149-0.364l-0.002-0.010c-0.020-0.085-0.037-0.188-0.047-0.293l-0.001-0.009c0-0.119 0-0.246 0-0.381v-0.421q0-0.215 0-0.389t0-0.493c0-0.167 0-0.334 0-0.485s0-0.294 0.048-0.429c0.015-0.118 0.043-0.226 0.083-0.327l-0.003 0.009c0.101-0.257 0.272-0.468 0.488-0.617l0.005-0.003c0.239-0.151 0.529-0.24 0.84-0.24 0.029 0 0.057 0.001 0.085 0.002l-0.004-0c0.034-0.003 0.074-0.005 0.114-0.005 0.388 0 0.739 0.16 0.99 0.418l0 0c0.224 0.283 0.36 0.644 0.36 1.038 0 0.032-0.001 0.063-0.003 0.095l0-0.004-0.54 0.064-0.54 0.072c0.002-0.022 0.003-0.047 0.003-0.072 0-0.16-0.042-0.311-0.116-0.44l0.002 0.004c-0.063-0.096-0.171-0.159-0.293-0.159-0.003 0-0.006 0-0.009 0h0c-0.005-0-0.010-0-0.015-0-0.184 0-0.34 0.123-0.389 0.291l-0.001 0.003c-0.028 0.116-0.047 0.252-0.055 0.391l-0 0.006q0 0.294 0 0.691v0.334c0 0.191 0 0.381 0 0.564-0 0.008-0 0.018-0 0.027 0 0.137 0.020 0.27 0.058 0.395l-0.002-0.010c0.029 0.1 0.081 0.186 0.151 0.254l0 0c0.067 0.060 0.156 0.096 0.253 0.096 0.009 0 0.017-0 0.026-0.001l-0.001 0q0.413 0 0.413-0.636l1.080 0.159c0.001 0.020 0.002 0.044 0.002 0.068 0 0.392-0.152 0.748-0.4 1.014l0.001-0.001c-0.268 0.239-0.624 0.386-1.014 0.386-0.040 0-0.080-0.002-0.12-0.005l0.005 0z"></path>
<path fill="#fff" style="fill: var(--color1, #fff)" d="M63.293 26.113v3.964h-1.080v-3.964h-0.985v-0.969h3.059v0.969h-0.993z"></path>
<path fill="#fff" style="fill: var(--color1, #fff)" d="M64.715 30.077v-4.918h1.414c0.043-0.004 0.093-0.006 0.144-0.006 0.415 0 0.799 0.136 1.109 0.367l-0.005-0.004c0.251 0.235 0.407 0.569 0.407 0.94 0 0.027-0.001 0.054-0.002 0.081l0-0.004c0 0.002 0 0.004 0 0.007 0 0.195-0.047 0.378-0.13 0.54l0.003-0.007c-0.089 0.169-0.219 0.307-0.377 0.403l-0.005 0.003c0.195 0.082 0.347 0.234 0.427 0.424l0.002 0.005c0.071 0.18 0.111 0.389 0.111 0.607 0 0.010-0 0.020-0 0.030l0-0.002c0.003 0.036 0.005 0.077 0.005 0.119 0 0.404-0.166 0.77-0.434 1.032l-0 0c-0.318 0.232-0.717 0.372-1.149 0.372-0.054 0-0.108-0.002-0.161-0.006l0.007 0zM66.733 26.59v0c0.001-0.010 0.001-0.021 0.001-0.032 0-0.126-0.049-0.24-0.128-0.326l0 0c-0.115-0.089-0.262-0.143-0.421-0.143-0.006 0-0.011 0-0.017 0h-0.373v1.009h0.294c0.022 0.002 0.047 0.004 0.072 0.004 0.161 0 0.31-0.052 0.43-0.14l-0.002 0.001c0.089-0.088 0.144-0.21 0.144-0.345 0-0.010-0-0.020-0.001-0.030l0 0.001zM66.804 28.465v0c0-0.008 0.001-0.017 0.001-0.026 0-0.146-0.054-0.279-0.144-0.38l0.001 0.001c-0.114-0.096-0.262-0.154-0.424-0.154-0.024 0-0.048 0.001-0.071 0.004l0.003-0h-0.373v1.208h0.373c0.013 0.001 0.028 0.001 0.043 0.001 0.104 0 0.204-0.018 0.297-0.051l-0.006 0.002c0.077-0.031 0.141-0.080 0.19-0.142l0.001-0.001c0.045-0.058 0.076-0.128 0.087-0.204l0-0.002c0.004-0.038 0.005-0.082 0.005-0.127s-0.002-0.089-0.006-0.133l0 0.006z"></path>
<path fill="#fff" style="fill: var(--color1, #fff)" d="M69.609 27.869c0 0.183 0 0.365 0 0.532-0 0.003-0 0.007-0 0.011 0 0.137 0.017 0.27 0.050 0.397l-0.002-0.011c0.041 0.192 0.21 0.334 0.412 0.334 0.009 0 0.017-0 0.026-0.001l-0.001 0q0.397 0 0.445-0.572l1.065 0.167c-0.005 0.403-0.168 0.766-0.429 1.033l0-0c-0.267 0.234-0.618 0.377-1.004 0.377-0.035 0-0.071-0.001-0.105-0.004l0.005 0c-0.009 0-0.021 0-0.032 0-0.202 0-0.396-0.032-0.577-0.091l0.013 0.004c-0.161-0.053-0.301-0.129-0.424-0.225l0.003 0.002c-0.109-0.087-0.199-0.193-0.267-0.312l-0.003-0.005c-0.059-0.102-0.111-0.221-0.148-0.346l-0.003-0.012c-0.020-0.084-0.037-0.187-0.047-0.292l-0.001-0.010c0-0.119 0-0.246 0-0.381s0-0.278 0-0.421 0-0.278 0-0.405q0-0.477 0-0.953c0.012-0.268 0.060-0.52 0.141-0.758l-0.006 0.019c0.092-0.264 0.261-0.482 0.48-0.633l0.004-0.003c0.239-0.151 0.529-0.24 0.84-0.24 0.029 0 0.057 0.001 0.085 0.002l-0.004-0c0.032-0.003 0.070-0.004 0.108-0.004 0.391 0 0.746 0.156 1.005 0.409l-0-0c0.239 0.283 0.384 0.651 0.384 1.054 0 0.035-0.001 0.069-0.003 0.103l0-0.005v1.223zM69.696 26.375v0c-0.031 0.085-0.052 0.182-0.056 0.284l-0 0.002c0 0.127 0 0.286 0 0.469h0.906v-0.421c0-0.002 0-0.004 0-0.007 0-0.153-0.032-0.298-0.090-0.429l0.003 0.007c-0.056-0.115-0.173-0.193-0.308-0.193-0.015 0-0.029 0.001-0.044 0.003l0.002-0c-0.004-0-0.009-0-0.014-0-0.183 0-0.337 0.123-0.383 0.291l-0.001 0.003z"></path>
<path fill="#fff" style="fill: var(--color1, #fff)" d="M74.407 30.077v-2.081h-0.961v2.081h-1.073v-4.918h1.073v1.978h0.961v-1.978h1.073v4.918h-1.073z"></path>
<path fill="#fff" style="fill: var(--color1, #fff)" d="M78.379 30.077v-2.081h-0.953v2.081h-1.080v-4.918h1.080v1.978h0.953v-1.978h1.080v4.918h-1.080z"></path>
<path fill="#fff" style="fill: var(--color1, #fff)" d="M81.827 25.080c0.017-0.001 0.037-0.001 0.056-0.001 0.222 0 0.434 0.038 0.632 0.108l-0.013-0.004c0.177 0.066 0.328 0.163 0.453 0.286l-0-0c0.115 0.116 0.204 0.256 0.26 0.413l0.002 0.008c0.054 0.152 0.091 0.328 0.103 0.511l0 0.006c0.027 0.188 0.044 0.408 0.048 0.631l0 0.005c0 0.23 0 0.445 0 0.636v0.262q0 0.23 0 0.461c0 0.151 0 0.302 0 0.445-0.023 0.249-0.1 0.476-0.219 0.675l0.004-0.007c-0.1 0.162-0.23 0.295-0.384 0.394l-0.005 0.003c-0.139 0.088-0.302 0.155-0.476 0.189l-0.009 0.002c-0.151 0.030-0.324 0.048-0.501 0.048-0.002 0-0.005 0-0.007 0h0c-0.010 0-0.023 0-0.035 0-0.204 0-0.399-0.035-0.581-0.099l0.012 0.004c-0.166-0.060-0.308-0.146-0.43-0.255l0.001 0.001c-0.112-0.101-0.203-0.222-0.267-0.359l-0.003-0.007c-0.060-0.126-0.107-0.273-0.134-0.426l-0.002-0.010c0-0.087 0-0.183 0-0.294s0-0.222 0-0.342 0-0.238 0-0.365v-0.342q0-0.238 0-0.493c0-0.167 0-0.334 0-0.485s0-0.294 0.048-0.429c0.016-0.119 0.044-0.226 0.083-0.328l-0.003 0.010c0.099-0.26 0.273-0.473 0.496-0.617l0.005-0.003c0.245-0.151 0.541-0.24 0.858-0.24 0.028 0 0.056 0.001 0.083 0.002l-0.004-0zM81.827 26.073v0c-0.007-0-0.015-0.001-0.023-0.001-0.14 0-0.263 0.072-0.334 0.182l-0.001 0.002c-0.044 0.076-0.079 0.163-0.102 0.255l-0.001 0.007c-0.023 0.092-0.040 0.2-0.047 0.312l-0 0.006c0 0.119 0 0.254 0 0.405v0.564c0 0.183 0 0.35 0 0.516 0 0.141 0.018 0.278 0.050 0.409l-0.002-0.012c0.030 0.112 0.085 0.208 0.159 0.286l-0-0c0.074 0.070 0.174 0.113 0.284 0.113 0.012 0 0.024-0.001 0.036-0.002l-0.002 0c0.003 0 0.006 0 0.009 0 0.1 0 0.191-0.036 0.262-0.096l-0.001 0c0.071-0.059 0.124-0.137 0.15-0.227l0.001-0.003s0-0.079 0-0.151 0-0.167 0-0.278 0-0.23 0-0.35 0-0.254 0-0.381 0-0.461 0-0.675c-0-0.177-0.018-0.35-0.050-0.518l0.003 0.017c-0.011-0.069-0.036-0.131-0.072-0.184l0.001 0.002c-0.059-0.133-0.19-0.223-0.342-0.223-0.008 0-0.017 0-0.025 0.001l0.001-0z"></path>
<path fill="#fff" style="fill: var(--color1, #fff)" d="M85.108 27.869c0 0.183 0 0.365 0 0.532 0 0.001 0 0.002 0 0.003 0 0.14 0.017 0.276 0.050 0.405l-0.002-0.011c0.041 0.192 0.21 0.334 0.412 0.334 0.009 0 0.017-0 0.026-0.001l-0.001 0q0.397 0 0.445-0.572l1.065 0.167c-0.005 0.403-0.168 0.766-0.429 1.033l0-0c-0.267 0.234-0.618 0.377-1.004 0.377-0.035 0-0.071-0.001-0.105-0.004l0.005 0c-0.009 0-0.021 0-0.032 0-0.202 0-0.396-0.032-0.577-0.091l0.013 0.004c-0.161-0.053-0.301-0.129-0.424-0.225l0.003 0.002c-0.109-0.087-0.199-0.193-0.267-0.312l-0.003-0.005c-0.059-0.102-0.111-0.221-0.148-0.346l-0.003-0.012c-0.020-0.084-0.037-0.187-0.047-0.292l-0.001-0.010c0-0.119 0-0.246 0-0.381s0-0.278 0-0.421 0-0.278 0-0.405q0-0.477 0-0.953c0.011-0.268 0.060-0.52 0.141-0.758l-0.006 0.019c0.092-0.265 0.261-0.483 0.48-0.633l0.004-0.003c0.239-0.151 0.529-0.24 0.84-0.24 0.029 0 0.057 0.001 0.085 0.002l-0.004-0c0.032-0.003 0.070-0.004 0.108-0.004 0.391 0 0.746 0.156 1.005 0.409l-0-0c0.239 0.283 0.384 0.651 0.384 1.054 0 0.035-0.001 0.069-0.003 0.103l0-0.005v1.223zM85.196 26.375v0c-0.032 0.085-0.052 0.182-0.056 0.284l-0 0.002q0 0.199 0 0.469h0.906v-0.421c0-0.001 0-0.003 0-0.005 0-0.153-0.032-0.299-0.090-0.431l0.003 0.007c-0.056-0.115-0.173-0.193-0.308-0.193-0.015 0-0.029 0.001-0.044 0.003l0.002-0c-0.004-0-0.009-0-0.014-0-0.183 0-0.337 0.123-0.383 0.291l-0.001 0.003z"></path>
<path fill="#fff" style="fill: var(--color1, #fff)" d="M91.98 30.077v-3.972h-0.945v3.972h-1.080v-4.933h3.098v4.933h-1.073z"></path>
<path fill="#fff" style="fill: var(--color1, #fff)" d="M95.793 25.088c0.001 0 0.001 0 0.002 0 0.141 0 0.277 0.020 0.405 0.058l-0.010-0.003c0.138 0.038 0.258 0.104 0.359 0.192l-0.001-0.001c0.114 0.107 0.205 0.237 0.267 0.382l0.003 0.007c0.080 0.186 0.134 0.402 0.151 0.629l0 0.007c0 0.143 0 0.326 0 0.548s0 0.445 0 0.667 0 0.588 0 0.89c-0.011 0.268-0.045 0.522-0.101 0.767l0.005-0.028c-0.028 0.13-0.066 0.244-0.115 0.352l0.004-0.010c-0.053 0.114-0.123 0.211-0.206 0.294l-0 0c-0.091 0.088-0.199 0.158-0.319 0.204l-0.007 0.002c-0.135 0.050-0.29 0.078-0.453 0.078s-0.318-0.029-0.462-0.081l0.009 0.003c-0.15-0.054-0.276-0.145-0.372-0.261l-0.001-0.001v2.185h-1.073v-6.832h1.057v0.373c0.080-0.152 0.203-0.273 0.353-0.347l0.005-0.002c0.136-0.061 0.296-0.096 0.463-0.096 0.010 0 0.021 0 0.031 0l-0.002-0zM95.404 26.137v0c-0.008-0-0.016-0.001-0.025-0.001-0.136 0-0.256 0.065-0.331 0.166l-0.001 0.001c-0.075 0.111-0.12 0.247-0.12 0.394 0 0.010 0 0.019 0.001 0.029l-0-0.001v1.589c0 0.111 0 0.215 0 0.318 0.001 0.081 0.018 0.157 0.049 0.226l-0.001-0.004c0.060 0.164 0.215 0.279 0.396 0.279 0.011 0 0.023-0 0.034-0.001l-0.001 0c0.008 0.001 0.017 0.001 0.026 0.001 0.158 0 0.294-0.094 0.355-0.229l0.001-0.002c0.055-0.148 0.090-0.319 0.095-0.498l0-0.003c0-0.222 0-0.5 0-0.794s0-0.548 0-0.794c0-0 0-0.001 0-0.002 0-0.157-0.032-0.307-0.090-0.443l0.003 0.007c-0.052-0.138-0.182-0.234-0.336-0.234-0.019 0-0.037 0.001-0.056 0.004l0.002-0z"></path>
<path fill="#fff" style="fill: var(--color1, #fff)" d="M98.741 27.869c0 0.183 0 0.365 0 0.532 0 0.002 0 0.004 0 0.006 0 0.139 0.017 0.274 0.050 0.402l-0.002-0.011c0.042 0.192 0.21 0.334 0.412 0.334 0.006 0 0.012-0 0.018-0l-0.001 0q0.397 0 0.445-0.572l1.065 0.167c-0.004 0.403-0.167 0.767-0.429 1.033l0-0c-0.267 0.234-0.618 0.377-1.004 0.377-0.035 0-0.071-0.001-0.105-0.004l0.005 0c-0.009 0-0.021 0-0.032 0-0.202 0-0.396-0.032-0.577-0.091l0.013 0.004c-0.161-0.053-0.301-0.129-0.424-0.225l0.003 0.002c-0.109-0.087-0.199-0.193-0.267-0.312l-0.003-0.005c-0.060-0.103-0.112-0.221-0.148-0.346l-0.003-0.011c-0.020-0.085-0.037-0.188-0.047-0.293l-0.001-0.009c0-0.119 0-0.246 0-0.381s0-0.278 0-0.421 0-0.278 0-0.405q0-0.477 0-0.953c0.011-0.268 0.060-0.52 0.141-0.758l-0.006 0.019c0.092-0.265 0.261-0.483 0.48-0.633l0.004-0.003c0.239-0.151 0.529-0.24 0.84-0.24 0.029 0 0.057 0.001 0.085 0.002l-0.004-0c0.032-0.003 0.070-0.004 0.108-0.004 0.391 0 0.746 0.156 1.005 0.409l-0-0c0.239 0.283 0.384 0.651 0.384 1.054 0 0.035-0.001 0.069-0.003 0.103l0-0.005v1.223zM98.828 26.375v0c-0.032 0.085-0.052 0.182-0.056 0.284l-0 0.002c0 0.127 0 0.286 0 0.469h0.906v-0.421c0-0.007 0-0.015 0-0.023 0-0.146-0.029-0.286-0.082-0.413l0.003 0.007c-0.056-0.115-0.173-0.193-0.308-0.193-0.015 0-0.029 0.001-0.044 0.003l0.002-0c-0.004-0-0.009-0-0.014-0-0.183 0-0.337 0.123-0.383 0.291l-0.001 0.003z"></path>
<path fill="#fff" style="fill: var(--color1, #fff)" d="M104.922 29.108h0.421v2.113h-0.898v-1.144h-2.28v1.144h-0.906v-2.042l0.405-0.087c0.061-0.076 0.116-0.162 0.163-0.254l0.004-0.009c0.042-0.085 0.080-0.186 0.108-0.29l0.003-0.012c0.029-0.107 0.051-0.234 0.063-0.365l0.001-0.009c0-0.143 0-0.302 0-0.5l0.079-2.51h2.812v3.972zM103.055 26.113v0l-0.048 1.486c-0.005 0.338-0.034 0.665-0.085 0.985l0.005-0.039c-0.035 0.211-0.099 0.401-0.188 0.575l0.005-0.011h1.096v-2.995z"></path>
<path fill="#fff" style="fill: var(--color1, #fff)" d="M108.028 30.077v-3.972h-0.945v3.972h-1.073v-4.933h3.098v4.933h-1.080z"></path>
<path fill="#fff" style="fill: var(--color1, #fff)" d="M111.841 25.088c0 0 0.001 0 0.001 0 0.141 0 0.277 0.020 0.406 0.058l-0.010-0.003c0.135 0.039 0.252 0.105 0.351 0.192l-0.001-0.001c0.117 0.107 0.211 0.236 0.275 0.382l0.003 0.007c0.080 0.186 0.134 0.402 0.151 0.629l0 0.007c0 0.143 0 0.326 0 0.548s0 0.445 0 0.667 0 0.588 0 0.89c-0.011 0.268-0.045 0.522-0.101 0.767l0.005-0.028c-0.029 0.131-0.067 0.245-0.116 0.353l0.005-0.012c-0.053 0.114-0.123 0.211-0.206 0.294l-0 0c-0.091 0.087-0.199 0.157-0.319 0.204l-0.007 0.002c-0.134 0.049-0.288 0.077-0.449 0.077s-0.315-0.028-0.458-0.080l0.009 0.003c-0.15-0.054-0.277-0.144-0.372-0.261l-0.001-0.001v2.185h-1.080v-6.832h1.057v0.373c0.078-0.151 0.198-0.272 0.345-0.347l0.004-0.002c0.136-0.061 0.296-0.096 0.463-0.096 0.010 0 0.021 0 0.031 0l-0.002-0zM111.452 26.137v0c-0.008-0-0.016-0.001-0.025-0.001-0.136 0-0.256 0.065-0.331 0.166l-0.001 0.001c-0.075 0.111-0.12 0.247-0.12 0.394 0 0.010 0 0.019 0.001 0.029l-0-0.001v1.589c0 0.111 0 0.215 0 0.318 0 0.081 0.018 0.157 0.049 0.226l-0.001-0.003c0.060 0.164 0.215 0.279 0.396 0.279 0.011 0 0.023-0 0.034-0.001l-0.001 0c0.008 0.001 0.017 0.001 0.026 0.001 0.158 0 0.294-0.094 0.355-0.229l0.001-0.002c0.055-0.148 0.090-0.319 0.095-0.498l0-0.003q0-0.342 0-0.794c0-0.302 0-0.548 0-0.794-0-0.158-0.033-0.308-0.090-0.445l0.003 0.008c-0.054-0.138-0.186-0.234-0.341-0.234-0.017 0-0.034 0.001-0.050 0.003l0.002-0z"></path>
<path fill="#fff" style="fill: var(--color1, #fff)" d="M116.075 30.077v-2.852h-0.016l-1.216 2.852h-1.049v-4.918h1.057v2.955h0.016l1.208-2.955h1.080v4.918h-1.080z"></path>
<path fill="#fff" style="fill: var(--color1, #fff)" d="M117.784 30.077l0.365-1.517c0.035-0.162 0.090-0.305 0.163-0.437l-0.004 0.008c0.075-0.133 0.18-0.24 0.306-0.316l0.004-0.002c-0.239-0.083-0.431-0.25-0.546-0.463l-0.003-0.005c-0.095-0.195-0.151-0.423-0.151-0.665 0-0.004 0-0.007 0-0.011v0.001c-0.002-0.029-0.003-0.063-0.003-0.097 0-0.401 0.159-0.765 0.417-1.032l-0 0c0.288-0.249 0.666-0.401 1.079-0.401 0.040 0 0.079 0.001 0.118 0.004l-0.005-0h1.533v4.933h-1.096v-1.978h-0.262c-0.006-0-0.013-0-0.021-0-0.148 0-0.281 0.061-0.376 0.159l-0 0c-0.132 0.178-0.222 0.394-0.253 0.629l-0.001 0.007-0.246 1.184zM119.658 26.105v0c-0.028-0.004-0.060-0.006-0.093-0.006-0.148 0-0.286 0.044-0.402 0.119l0.003-0.002c-0.113 0.105-0.184 0.254-0.184 0.42 0 0.014 0.001 0.028 0.002 0.042l-0-0.002c-0.001 0.009-0.001 0.019-0.001 0.029 0 0.148 0.072 0.278 0.182 0.359l0.001 0.001c0.122 0.080 0.272 0.128 0.433 0.128 0.015 0 0.031-0 0.046-0.001l-0.002 0h0.318v-1.112z"></path>
<path fill="#fff" style="fill: var(--color1, #fff)" d="M123.48 26.113v3.964h-1.080v-3.964h-0.985v-0.969h3.059v0.969h-0.993z"></path>
<path fill="#fff" style="fill: var(--color1, #fff)" d="M127.166 30.077v-2.852h-0.024l-1.216 2.852h-1.041v-4.918h1.057v2.955h0.016l1.208-2.955h1.072v4.918h-1.073z"></path>
<path fill="#fff" style="fill: var(--color1, #fff)" d="M130.066 27.869c0 0.183 0 0.365 0 0.532 0 0.001 0 0.003 0 0.004 0 0.14 0.017 0.275 0.050 0.404l-0.002-0.011c0.042 0.192 0.21 0.334 0.412 0.334 0.009 0 0.017-0 0.026-0.001l-0.001 0q0.389 0 0.445-0.572l1.065 0.167c-0.004 0.403-0.167 0.767-0.429 1.033l0-0c-0.267 0.234-0.619 0.377-1.004 0.377-0.035 0-0.071-0.001-0.105-0.004l0.005 0c-0.009 0-0.021 0-0.032 0-0.202 0-0.396-0.032-0.577-0.091l0.013 0.004c-0.161-0.054-0.301-0.129-0.424-0.225l0.003 0.002c-0.109-0.087-0.199-0.193-0.267-0.312l-0.003-0.005c-0.059-0.102-0.111-0.221-0.148-0.346l-0.003-0.012c-0.020-0.084-0.037-0.187-0.047-0.292l-0.001-0.010c0-0.119 0-0.246 0-0.381s0-0.278 0-0.421 0-0.278 0-0.405c0-0.318 0-0.636 0-0.953 0.012-0.268 0.060-0.52 0.141-0.758l-0.006 0.019c0.092-0.264 0.261-0.482 0.48-0.633l0.004-0.003c0.239-0.151 0.529-0.24 0.84-0.24 0.029 0 0.057 0.001 0.085 0.002l-0.004-0c0.032-0.003 0.070-0.004 0.108-0.004 0.391 0 0.746 0.156 1.005 0.409l-0-0c0.239 0.283 0.384 0.651 0.384 1.054 0 0.035-0.001 0.069-0.003 0.103l0-0.005v1.223zM130.153 26.375v0c-0.032 0.085-0.052 0.182-0.056 0.284l-0 0.002c0 0.127 0 0.286 0 0.469h0.906v-0.421c0-0.002 0-0.005 0-0.008 0-0.152-0.032-0.297-0.090-0.428l0.003 0.007c-0.056-0.115-0.173-0.193-0.308-0.193-0.015 0-0.029 0.001-0.044 0.003l0.002-0c-0.004-0-0.009-0-0.014-0-0.183 0-0.337 0.123-0.383 0.291l-0.001 0.003z"></path>
</symbol>
</defs>
</svg>
